<?xml version="1.0" encoding="utf-8"?>
<!-- Generator: Adobe Illustrator 19.2.1, SVG Export Plug-In . SVG Version: 6.00 Build 0)  -->
<svg version="1.1" id="Layer_1" xmlns="http://www.w3.org/2000/svg" xmlns:xlink="http://www.w3.org/1999/xlink" x="0px" y="0px"
	 viewBox="0 0 960 77.9" enable-background="new 0 0 960 77.9" xml:space="preserve">
<g>
	<g>
		<rect x="253.3" y="15.9" width="20.4" height="30.6"/>
		<g>
			<path d="M303,56.5l-0.4-1.2h0l-0.3,1.2l-1.6,5.5h-0.8l-2.4-7.6l-0.9-0.3v-0.2h3.3v0.2l-1.2,0.3l1.6,5.1l0.4,1.2h0l0.3-1.2
				l1.6-5.6h0.7l1.8,5.6l0.4,1.2h0l0.4-1.2l1.5-5.1l-1.3-0.3v-0.2h2.5v0.2l-0.8,0.3l-2.3,7.6h-0.8L303,56.5z"/>
			<path d="M311.8,59l-0.9,2.3l1.1,0.3v0.2h-2.4v-0.2l0.8-0.3l3-7.6h0.7l2.9,7.7l0.9,0.3v0.2h-3.2v-0.2l1.2-0.3l-0.9-2.4H311.8z
				 M314.8,58.7l-1-2.6l-0.4-1.2h0l-0.4,1.2l-1,2.6H314.8z"/>
			<path d="M322.4,61.4l1.3,0.3v0.2h-3.6v-0.2l1.1-0.3v-7.1l-1.1-0.3v-0.2h3.4c1.4,0,2.8,0.5,2.8,2c0,1-0.8,1.8-2.1,2.1v0
				c2.2,0.3,2.2,3.8,3.6,3.7v0.2c-0.2,0.1-0.5,0.1-0.8,0.1c-2.4,0-1.8-3.9-3.6-3.9h-1.1V61.4z M323.3,57.8c1,0,2-0.6,2-1.9
				c0-1.3-0.8-1.7-1.9-1.7h-0.9v3.6H323.3z"/>
			<path d="M330.3,59.8h0.2l0.9,1.8c1.8,0.3,3.1-0.3,3.1-1.5c0-2.1-4.3-1.4-4.3-4.2c0-1.5,1.3-2.2,2.7-2.2c0.8,0,1.6,0.2,2.3,0.5
				v1.7H335l-0.9-1.7c-1.5-0.3-2.8,0-2.8,1.3c0,2.1,4.4,1.5,4.4,4.2c0,1.6-1.4,2.3-3,2.3c-0.8,0-1.6-0.2-2.4-0.5V59.8z"/>
			<path d="M338.4,61.9l-0.1-0.3l4.1-6.5l0.6-0.9l0,0l-1.1,0h-2.2l-0.8,1.6h-0.2v-2h5.7l0.1,0.2l-4.1,6.5l-0.7,1l0,0l1.1,0h2.5
				l0.9-1.8h0.2v2.1H338.4z"/>
			<path d="M348.7,59l-0.9,2.3l1.1,0.3v0.2h-2.4v-0.2l0.8-0.3l3-7.6h0.7l2.9,7.7l0.9,0.3v0.2h-3.2v-0.2l1.2-0.3l-0.9-2.4H348.7z
				 M351.7,58.7l-1-2.6l-0.4-1.2h0l-0.4,1.2l-1,2.6H351.7z"/>
			<path d="M362.2,56.5l-0.4-1.2h0l-0.3,1.2l-1.6,5.5h-0.8l-2.4-7.6l-0.9-0.3v-0.2h3.3v0.2l-1.2,0.3l1.6,5.1l0.4,1.2h0l0.3-1.2
				l1.6-5.6h0.7l1.8,5.6l0.4,1.2h0l0.4-1.2l1.5-5.1l-1.3-0.3v-0.2h2.5v0.2l-0.8,0.3l-2.3,7.6h-0.8L362.2,56.5z"/>
			<path d="M371,59l-0.9,2.3l1.1,0.3v0.2h-2.4v-0.2l0.8-0.3l3-7.6h0.7l2.9,7.7l0.9,0.3v0.2h-3.2v-0.2l1.2-0.3l-0.9-2.4H371z
				 M374,58.7l-1-2.6l-0.4-1.2h0l-0.4,1.2l-1,2.6H374z"/>
		</g>
		<g>
			<rect x="393.2" y="36.5" width="4.3" height="4.3"/>
			<path d="M404.2,44.9l2.2,1.1v0.3h-8.2v-0.3l1.7-1.1V27.2l-1.7-0.6v-0.2l5.8-1.2l0.2,0.1v2l0,0c1-1.4,2.4-2.2,3.9-2.2
				c2.3,0,4.8,2.4,4.8,7.6c0,5.7-3.1,8.2-6,8.2c-1,0-2-0.3-2.8-0.8V44.9z M404.2,39.3c0.6,0.3,1.1,0.4,1.6,0.4
				c1.6,0,2.8-1.7,2.8-6.5c0-4.8-1-5.6-2.5-5.6c-0.7,0-1.2,0.3-1.9,0.9V39.3z"/>
			<polygon points="418.7,39.3 418.7,16 418.5,15.9 412.6,17 412.6,17.3 414.4,17.9 414.4,39.3 412.7,40.4 412.7,40.7 420.4,40.7 
				420.4,40.4 			"/>
			<polygon points="308.1,25.5 308.1,25.8 310.2,26.9 307.4,35.9 307.2,35.9 303.7,26.9 305.4,25.8 305.4,25.5 300.6,25.5 
				297.5,25.5 295.5,25.5 295.5,25.8 297.8,26.9 295.5,35.9 295.2,35.9 291.6,25.5 290,25.5 287.3,35.9 287.1,35.9 283.9,26.9 
				285.7,25.8 285.7,25.5 278,25.5 278,25.8 279.2,26.9 284.1,40.7 286.9,40.7 289.2,32.3 289.4,32.3 292.4,40.7 294.9,40.7 
				299.1,27.3 299.1,27.3 304.9,42.1 299.5,46.1 299.4,46.4 304.7,46.4 311.6,26.9 313.1,25.8 313.1,25.5 			"/>
			<path d="M312.1,17.3V17l5.9-1.2l0.2,0.1v11.2l0.1,0c1.1-1.4,2.5-2.1,4-2.1c2.4,0,5,2.7,5,7.7c0,5.9-3.8,8.2-7.6,8.2
				c-2.2,0-4.3-0.6-5.8-1.5V17.9L312.1,17.3z M318.2,40.2c0.3,0.1,0.7,0.1,1.1,0.1c2.1,0,3.5-2.1,3.5-7.1c0-4.7-1-5.7-2.5-5.7
				c-0.7,0-1.3,0.3-2,0.8V40.2z"/>
			<path d="M335.5,41.1c-3.5,0-6.9-3-6.9-8c0-5,3.4-8,6.9-8c3.5,0,6.9,3,6.9,8C342.4,38.1,339,41.1,335.5,41.1z M335.5,25.8
				c-1.5,0-2.4,2.4-2.4,7.3c0,4.9,0.8,7.3,2.4,7.3c1.5,0,2.4-2.4,2.4-7.3C337.8,28.2,337,25.8,335.5,25.8z"/>
			<path d="M365.5,40.7l-0.2-0.4l5.5-11.6l1.2-2.3l-0.1-0.1l-3.6,0l0,0.1l-2.2,3.9h-0.3v-4.8h11.2l0.2,0.4l-5.5,11.6l-1.2,2.3l0,0.1
				l3.8,0l2.4-4.2h0.3v5L365.5,40.7z"/>
			<path d="M389.7,37.7v-6.8c0-4.3-2.5-5.7-5.3-5.7c-2,0-4,0.6-5.4,1.7l0.1,0.6c1-0.5,2.1-0.9,3.1-0.9c1.6,0,2.8,1,3.1,3.8
				c-5.4,0.4-7.3,3.2-7.3,6.1c0,2.5,1.4,4.6,3.8,4.6c1.8,0,3.2-1.2,3.7-2.3c0.5,1.2,1.7,1.9,3,1.9c1.1,0,2.6,0,2.6,0v-0.5
				C390.7,40.2,389.7,39.4,389.7,37.7z M384,39c-0.9,0-1.7-1.6-1.7-3c0-2.6,1.3-4.4,3.2-4.9c0,0.2,0,6.9,0,7
				C385.1,38.5,384.7,39,384,39z"/>
			<path d="M361.8,39.2c1,0,1.9-0.4,2.7-0.7l0.1,0.2c-0.9,1.3-2.8,2.3-4.5,2.3c-3.7,0-6.9-3-6.9-8c0-4.1,2.8-8,7.6-8
				c1.2,0,2.9,0.2,3.6,0.4v4.7l-0.3,0l-2.5-4.3c-1.6,0-3.8,1.5-3.8,6.9C357.8,37.7,359.8,39.2,361.8,39.2z"/>
			<path d="M353.9,27.2c0-1.2-1-2.1-2.2-2c-0.2,0-0.5,0.1-0.7,0.1c-1.2,0.4-2.1,1.5-2.9,2.7l-0.1,0v-2.7l-0.2-0.1l-5.9,1.2v0.2
				l1.8,1.1v11.7l-1.8,1.1v0.3h8.4v-0.3l-2.3-1.1v-9.8c0.3-0.7,0.7-1.2,1.3-1.3c0.6-0.1,1.2,0.2,1.6,1c0.3,0.1,0.5,0.2,0.8,0.1
				C353,29.3,353.9,28.4,353.9,27.2z"/>
		</g>
	</g>
	<g>
		<path d="M773,52.3h-3.2v16.1h3.2V52.3z M763.8,68.4h3.2V52.3h-3.2v10.8l-6.9-10.8h-3.4v16.1h3.1V57.8L763.8,68.4z M739.7,52.3
			v16.1h3.3c5.3,0,8.5-3.1,8.5-8.1c0-5-3.2-8.1-8.5-8.1H739.7z M742.9,55.1h0.2c3.1,0,4.9,1.8,4.9,5.2c0,3.4-1.9,5.2-4.9,5.2h-0.2
			V55.1z M724.2,60.4c0-3,1.8-5.4,5-5.4c3.1,0,5,2.3,5,5.4c0,3.1-1.9,5.3-5,5.3C726.1,65.7,724.2,63.4,724.2,60.4 M720.7,60.4
			c0,4.8,3.3,8.4,8.4,8.4c5.1,0,8.4-3.7,8.4-8.4c0-4.8-3.3-8.4-8.5-8.4C724.2,52,720.7,55.6,720.7,60.4 M718.9,59.8h-5.8v2.7h2.6
			v1.8c-0.7,0.7-2,1.4-3.8,1.4c-2.9,0-5.1-2.1-5.1-5.4c0-3.2,2-5.3,4.9-5.3c2.1,0,3.4,1.1,4.1,2l2.5-1.9c-1.1-1.7-3.2-3.2-6.6-3.2
			c-5,0-8.3,3.8-8.3,8.4c0,5,3.4,8.4,8.3,8.4c1.8,0,3.2-0.6,4-1.2v1h3.1L718.9,59.8L718.9,59.8z M696.2,60.4v8.1h3.2v-8.1l4.6-8
			h-3.4l-2.7,4.9l-2.6-4.9h-3.6L696.2,60.4z M690.6,55.3v-3h-9.1v3h2.9v13.1h3.2V55.3L690.6,55.3L690.6,55.3z"/>
		<path d="M768.3,39.1c1.4,0,2,0.9,2,2.2v0.7c0,1.2-0.6,2.3-2,2.3c-1.4,0-2-1-2-2.3v-0.8C766.3,40,766.8,39.1,768.3,39.1
			 M772.9,32.1c-0.7-0.7-1.9-1.5-4.2-1.5c-4.2,0-5.7,2.7-5.7,5.9V42c0,3.2,1.6,5.3,5.2,5.3c3.4,0,5.2-2.3,5.2-5.3v-0.7
			c0-3.5-1.5-5.2-4.5-5.2c-1.4,0-2.4,0.6-2.7,1v-0.7c0-1.6,0.6-2.8,2.6-2.8c1.1,0,1.8,0.5,2.3,0.9L772.9,32.1z M759.8,39.1H739v2.6
			h20.7V39.1L759.8,39.1z M729.6,35l1.8,4.9h-3.5L729.6,35z M733.9,47h3.4l-6.1-16.1h-3.4L722,47h3.2l1.6-4.4h5.5L733.9,47z
			 M716.2,47h3.2V30.9h-3.2v10.8l-6.9-10.8H706V47h3.1V36.4L716.2,47z M702.6,39.1h-20.7v2.6h20.7V39.1z"/>
		<path d="M773.4,17.7h-20.7v2.6h20.7V17.7z M742.7,13.6c0-0.9,0.6-1.6,1.7-1.6c1.2,0,1.8,0.9,1.8,2.1h3c0.1-2.6-1.2-4.8-4.8-4.8
			c-3,0-4.9,1.9-4.9,4.5c0,1.9,0.8,3.4,2.4,4.2c0.9,0.5,1.9,0.8,2.8,1.2c1.1,0.4,1.7,1,1.7,2.1c0,1.2-0.8,1.9-2,1.9
			c-1.6,0-2.1-1.2-2.1-2.5h-3.1c-0.1,2.5,0.9,5.3,5.2,5.3c3.1,0,5.3-1.9,5.3-5c0-2.3-1.2-3.6-3.1-4.5c-0.9-0.4-1.7-0.7-2.4-1
			C743.2,15,742.7,14.4,742.7,13.6 M736.6,25.7v-3h-4.2v-3.7h4v-3h-4v-3.4h4.2v-3h-7.4v16.1H736.6z M726.1,12.5v-3H717v3h2.9v13.1
			h3.2V12.5H726.1z M702.1,17.6c0-3,1.8-5.4,5-5.4c3.1,0,5,2.3,5,5.4c0,3.1-1.9,5.3-5,5.3C704.1,22.9,702.1,20.6,702.1,17.6
			 M698.7,17.6c0,4.8,3.3,8.4,8.4,8.4c5.1,0,8.4-3.7,8.4-8.4c0-4.8-3.3-8.4-8.5-8.4C702.1,9.2,698.7,12.8,698.7,17.6 M692.4,25.7
			h3.2V9.5h-3.2v10.8l-6.9-10.8h-3.4v16.1h3.1V15L692.4,25.7z"/>
	</g>
	<path d="M39,0C17.4,0,0,17.4,0,39s17.4,39,39,39s39-17.4,39-39C77.9,17.4,60.5,0,39,0z M16.7,52.3v-6.7c3.7,0,6.7-3,6.7-6.7
		c0-3.7-3-6.7-6.7-6.7v-6.7c7.4,0,13.4,6,13.4,13.4C30.1,46.3,24.1,52.3,16.7,52.3z M41.2,52.3h-6.7V34.5l6.7,8.9V52.3z M61.3,52.3
		h-6.7V34.5l-6.7,8.9L34.5,25.5h6.7l6.7,8.9l6.7-8.9h6.7V52.3z"/>
	<g>
		<path d="M888.9,42.6c-0.6,0-1.1,0.2-1.5,0.6c-0.4,0.4-0.6,0.9-0.6,1.5v13c0,0.6,0.2,1,0.6,1.5c0.4,0.4,0.9,0.6,1.5,0.6
			c0.6,0,1-0.2,1.5-0.6c0.4-0.4,0.6-0.9,0.6-1.5v-13c0-0.6-0.2-1.1-0.6-1.5C890,42.8,889.5,42.6,888.9,42.6z"/>
		<polygon points="875.7,19.7 874.4,29.1 877,29.1 		"/>
		<path d="M867.3,25c0.4-0.4,0.6-0.9,0.6-1.5V20c0-0.6-0.2-1.1-0.6-1.5c-0.4-0.4-0.9-0.6-1.5-0.6h-2.2v7.6h2.2
			C866.4,25.6,866.9,25.4,867.3,25z"/>
		<polygon points="925.2,54.1 927.9,54.1 926.5,44.8 		"/>
		<polygon points="926.3,19.7 924.9,29.1 927.6,29.1 		"/>
		<path d="M900.9,43h-2.2v7.6h2.2c0.6,0,1-0.2,1.4-0.6c0.4-0.4,0.6-0.9,0.6-1.5v-3.5C903,43.7,902.3,43,900.9,43z"/>
		<path d="M938.4,9.7h-84.1h-21.6l22.2,14v46h84v-46l21-14H938.4z M898.6,31.4c0.2,1.4,0.5,2.4,1.1,3c0,0,0.1,0.1,0.1,0.1
			c0.4,0.4,0.8,0.6,1.3,0.5c0.8,0,1.4-0.4,1.9-1.2c0.2-0.4,0.4-0.9,0.4-1.6c0-1-0.5-2-1.3-2.9c-0.1-0.1-0.2-0.2-0.3-0.3
			c-0.7-0.6-1.6-1.5-2.8-2.6c0,0-0.1-0.1-0.1-0.1c-0.3-0.3-0.5-0.5-0.7-0.8c0,0-0.1-0.1-0.1-0.1c0-0.1-0.1-0.1-0.1-0.1
			c-0.1-0.1-0.2-0.2-0.2-0.3c0,0,0,0,0,0c-0.1-0.1-0.2-0.3-0.3-0.4c0,0,0,0,0,0c-0.1-0.1-0.2-0.2-0.3-0.4c-0.3-0.4-0.5-0.7-0.7-1.1
			c-0.5-1-0.8-2.1-0.8-3.3c0-2.2,0.7-3.8,2.2-4.9c0.9-0.7,2-1,3.3-1c1.3,0,2.4,0.3,3.3,0.9c0.5,0.3,1,0.8,1.4,1.3
			c0.1,0.2,0.2,0.4,0.4,0.6c0.4,0.8,1,1.7,1.1,2.7l-3.2,0.6v0.6h-0.6c-0.1-1-0.4-2-0.8-2.6c0,0-0.1-0.2-0.1-0.3
			c-0.3-0.3-0.8-0.5-1.3-0.5c-0.7,0-1.2,0.3-1.5,0.8c-0.3,0.5-0.4,1-0.4,1.7c0,1.1,0.5,2.2,1.4,3.3c0.2,0.2,0.5,0.5,0.8,0.8
			c0.2,0.2,0.5,0.5,0.8,0.7c0.5,0.4,0.9,0.8,1.2,1.1c0.2,0.2,0.3,0.3,0.4,0.4c0.9,0.9,1.6,1.8,2.1,2.6c0.2,0.4,0.4,0.8,0.5,1.1
			c0.3,0.8,0.5,1.6,0.5,2.3c0,1.7-0.4,3.1-1.3,4.2c-0.6,0.8-1.4,1.4-2.5,1.7c-0.6,0.2-1.2,0.3-2,0.3c-1.4,0-2.6-0.3-3.5-1
			c-0.3-0.2-0.6-0.5-0.8-0.7c-0.4-0.5-0.8-1-1-1.6c-0.5-1-0.7-2.1-0.8-3.4L898.6,31.4z M891.3,10l1.5,1.5l-4,4l-1.5-1.5L891.3,10z
			 M879,14.7v-0.5l3,23.9v0.6h-3.6l-0.8-6h-3.7l-0.9,6h-3.7l4-24H879z M861,38.1V14.3v0.4h4.7c1.7,0,3.1,0.4,4.2,1.5
			c1,1.1,1.8,2.3,1.8,3.9L872,20v3.7h-0.6c0,2-0.6,3.1-1.7,4.2c-1.1,1.1-2.5,1.8-4,1.8H864v8.4v0.6h-3V38.1z M870.4,61.4
			c-0.6,0.8-1.4,1.4-2.5,1.7c-0.6,0.2-1.2,0.3-2,0.3c-1.4,0-2.6-0.3-3.5-1c-0.8-0.6-1.4-1.3-1.8-2.3c-0.1-0.2-0.2-0.5-0.3-0.8
			c-0.3-0.8-0.4-1.7-0.5-2.6l3.4-0.2c0.1,0.6,0.2,1.1,0.3,1.6c0.2,0.6,0.4,1.1,0.8,1.4c0.4,0.5,0.9,0.7,1.5,0.7
			c0.8,0,1.4-0.4,1.9-1.2c0.2-0.4,0.4-0.9,0.4-1.6c0-0.3,0-0.6-0.1-0.9c-0.2-0.7-0.6-1.3-1.2-2c-0.7-0.7-1.8-1.7-3.2-3
			c-1.2-1.2-2-2.2-2.5-3.1c-0.3-0.5-0.5-1-0.6-1.6c-0.1-0.6-0.2-1.1-0.2-1.7c0-2.2,0.7-3.8,2.2-4.9c0.9-0.7,2-1,3.3-1
			c1.3,0,2.4,0.3,3.3,0.9c0.7,0.4,1.3,1.1,1.7,1.9c0.2,0.3,0.3,0.6,0.4,0.9c0.2,0.6,0.3,1.2,0.4,1.8l-3.4,0.6v0.6h0
			c0,0-0.1-1-0.2-1.3c-0.1-0.5-0.4-1.1-0.6-1.4c-0.3-0.4-0.8-0.7-1.4-0.7c-0.7,0-1.2,0.3-1.5,0.8c-0.3,0.5-0.4,1-0.4,1.7
			c0,0.5,0.1,0.9,0.3,1.4c0.2,0.6,0.6,1.2,1.1,1.9c0.4,0.4,0.9,0.9,1.6,1.5c0.8,0.7,1.4,1.2,1.6,1.5c0.9,0.9,1.6,1.8,2.1,2.6
			c0.1,0.1,0.1,0.2,0.2,0.3c0,0.1,0.1,0.1,0.1,0.2c0,0,0,0.1,0.1,0.1c0,0,0,0,0,0c0.1,0.2,0.2,0.4,0.2,0.5c0.1,0.2,0.2,0.4,0.2,0.6
			c0.2,0.6,0.3,1.2,0.3,1.7C871.7,58.8,871.2,60.3,870.4,61.4z M885,63.7h-4.6l-3.5-10l-0.8,1.8v8.1h-4.1h0.1v-24h-0.1h4.1v8.1
			l3.9-8.1h4.1v-0.3l-4.8,9.6l5.8,14.1V63.7z M895,38.2l-0.1,0.5h-1.9l-1.5,1.2c0.4,0.2,0.7,0.2,1,0.5c0.2,0.2,0.5,0.2,0.7,0.4
			c1.1,1.1,1.8,2.4,1.8,3.9v13c0,1.6-0.7,2.9-1.8,4c-1.1,1.1-2.5,1.7-4.1,1.7c-0.9,0-1.7-0.2-2.5-0.5c-0.6-0.3-0.8-0.7-1.3-1.1
			c-1.1-1.1-1.3-2.5-1.3-4v-13c0-1.6,0.2-2.9,1.3-4c1.1-1.1,2.3-1.6,3.8-1.7l2.2-1.8L887,22.8v15.8h-4v-24h3.5l5.5,15.6V14.7h3V38.2
			z M907.2,63.7h-3.9l-2.2-9c-0.1,0-0.2,0-0.3,0H899v9h-3v-24h4.8c2,0,3.5,0.4,4.4,1.5c0.1,0.1,0.1,0,0.1,0.1s0.1,0.1,0.1,0.1
			c0.6,0.9,1.2,2.1,1.2,3.6c0,0,0.3,0,0.3,0v3.4c0,1.7-0.9,3.1-2.2,4.2l2.5,10.7L907.2,63.7z M908,38.1V14.7h3v8.1l4.4-8.2l0,0.1
			l0,0.1h3.8l-4.9,9.5l5.6,13.8l4-23.3h0.1h4.9l4,24h0H929l-0.8-6h-3.7l-0.9,6H920h-0.2h-4l-3.7-10l-1,1.8v8.2h-3V38.1z M930,63.7
			v-0.6l-1.6-5.4h-3.7l-0.7,5.7v0.3h-3.7h0H920h0h-4v-0.1l-3.3-9.9l-0.7,1.9v8.1h-4v-24h4v8.1l3.6-8.1h3.8l-4.9,9.5l5.6,13.8l4-23.3
			h0.9v-0.4l-0.9,0.4h4.9l4,24H930z"/>
	</g>
	<g id="Screens_7_">
		<g id="Desktop-Copy-4_7_" transform="translate(-621.000000, -3081.000000)">
			<g id="miasta_2_" transform="translate(621.000000, 3081.000000)">
				<g id="Layer_1_8_">
					<g id="Group_7_">
						<polygon id="Shape_73_" points="152,4.4 137.3,4.4 137.3,74.1 146.5,74.1 146.5,24.8 154.4,74.1 164.5,74.1 171.8,24.1 
							171.8,74.1 181.8,74.1 181.8,4.4 167.1,4.4 159.8,53.9 						"/>
						<path id="Shape_72_" d="M185.1,72.1v2h8.7v-1.2h-6.1l6.1-1.1v-1.3l-6.2-1h6.2v-1.3h-8.7v2l6.2,1L185.1,72.1L185.1,72.1
							L185.1,72.1z M185.1,63.8v2.1l8.7,1.4V66l-1.6-0.2v-1.7l1.6-0.2v-1.4L185.1,63.8L185.1,63.8L185.1,63.8z M186.7,64.9l4.4-0.7
							v1.4L186.7,64.9L186.7,64.9L186.7,64.9z M190.2,59.4v-0.6h1.6c0.2,0,0.4,0,0.5,0.1c0.1,0.1,0.2,0.1,0.3,0.3
							c0.1,0.1,0.1,0.2,0.1,0.4c0,0.2,0,0.3-0.1,0.4s-0.1,0.2-0.3,0.3c-0.1,0.1-0.3,0.1-0.5,0.1h-4.7c-0.3,0-0.5-0.1-0.7-0.2
							c-0.1-0.1-0.2-0.3-0.2-0.5s0.1-0.4,0.2-0.5c0.1-0.1,0.4-0.2,0.7-0.2h0.9v-1.3h-0.8c-0.5,0-0.9,0.1-1.2,0.2s-0.6,0.4-0.7,0.7
							c-0.2,0.3-0.3,0.7-0.3,1.2s0.1,0.9,0.3,1.2c0.2,0.3,0.4,0.6,0.7,0.7c0.3,0.2,0.7,0.2,1.2,0.2h4.5c0.5,0,0.9-0.1,1.2-0.2
							c0.3-0.2,0.6-0.4,0.7-0.7c0.2-0.3,0.3-0.7,0.3-1.2s-0.1-0.9-0.3-1.2c-0.2-0.3-0.4-0.6-0.7-0.7c-0.3-0.2-0.7-0.2-1.2-0.2H189v2
							H190.2L190.2,59.4L190.2,59.4z M185.1,53.2v2.1l8.7,1.4v-1.3l-1.6-0.2v-1.7l1.6-0.2v-1.4L185.1,53.2L185.1,53.2L185.1,53.2z
							 M186.7,54.3l4.4-0.7V55L186.7,54.3L186.7,54.3L186.7,54.3z M185.1,51.1h1.2v-2.6l6.2,2.7h1.2v-4.1h-1.2v2.7l-6.2-2.7h-1.2
							V51.1L185.1,51.1L185.1,51.1z M193.8,44.7v-1.4H191l-5.8-1.8v1.3l4,1.1l-4,1.1v1.5l5.8-1.8H193.8L193.8,44.7L193.8,44.7z
							 M193.8,37.7v-1.5h-8.7v1.3h5.2l-5.2,1.5v1.8h8.7v-1.3h-6.3L193.8,37.7L193.8,37.7L193.8,37.7z M185.1,30.9v2h8.7v-1.2h-6.1
							l6.1-1.1v-1.3l-6.2-1h6.2V27h-8.7v2l6.2,1L185.1,30.9L185.1,30.9L185.1,30.9z M193.8,25.8v-1.4h-8.7v1.4H193.8L193.8,25.8
							L193.8,25.8z M185.1,20v2.1l8.7,1.4v-1.3l-1.6-0.2v-1.7l1.6-0.2v-1.4L185.1,20L185.1,20L185.1,20z M186.7,21.1l4.4-0.7v1.4
							L186.7,21.1L186.7,21.1L186.7,21.1z M187.2,17.9c0.4,0,0.7-0.1,0.9-0.2c0.3-0.1,0.5-0.2,0.7-0.4c0.2-0.2,0.4-0.3,0.6-0.5
							c0.2-0.2,0.4-0.4,0.5-0.6s0.3-0.4,0.5-0.5c0.2-0.2,0.4-0.3,0.6-0.4c0.2-0.1,0.4-0.2,0.7-0.2c0.2,0,0.4,0,0.5,0.1
							c0.1,0.1,0.2,0.1,0.3,0.3c0.1,0.1,0.1,0.2,0.1,0.4c0,0.2,0,0.3-0.1,0.4s-0.1,0.2-0.3,0.3c-0.1,0.1-0.3,0.1-0.5,0.1h-0.9v1.3
							h0.8c0.5,0,0.9-0.1,1.2-0.2s0.6-0.4,0.7-0.7c0.2-0.3,0.3-0.7,0.3-1.2s-0.1-0.9-0.3-1.2s-0.4-0.6-0.7-0.7
							c-0.3-0.2-0.7-0.2-1.2-0.2c-0.4,0-0.7,0.1-0.9,0.2c-0.3,0.1-0.5,0.2-0.7,0.4c-0.2,0.2-0.4,0.3-0.6,0.5
							c-0.2,0.2-0.4,0.4-0.5,0.6c-0.2,0.2-0.3,0.4-0.5,0.5c-0.2,0.2-0.4,0.3-0.6,0.4c-0.2,0.1-0.4,0.2-0.7,0.2
							c-0.3,0-0.5-0.1-0.7-0.2c-0.1-0.1-0.2-0.3-0.2-0.5c0-0.2,0.1-0.4,0.2-0.5s0.4-0.2,0.7-0.2h0.5v-1.3h-0.5
							c-0.5,0-0.9,0.1-1.2,0.2c-0.3,0.2-0.6,0.4-0.7,0.7c-0.2,0.3-0.3,0.7-0.3,1.2c0,0.5,0.1,0.8,0.3,1.2s0.4,0.5,0.7,0.7
							C186.4,17.8,186.8,17.9,187.2,17.9L187.2,17.9L187.2,17.9z M186.4,13.1v-1.5h7.5v-1.4h-7.5V8.7h-1.2v4.4H186.4L186.4,13.1
							L186.4,13.1z M185.1,5.3l8.7-1.4v1.4l-1.6,0.2v1.7l1.6,0.2v1.3l-8.7-1.4L185.1,5.3L185.1,5.3L185.1,5.3z M186.7,6.4l4.4,0.7
							V5.7L186.7,6.4L186.7,6.4z"/>
					</g>
				</g>
			</g>
		</g>
	</g>
	<g id="Screens_6_">
		<g id="Desktop-Copy-4_6_" transform="translate(-674.000000, -3086.000000)">
			<g id="monitor_2_" transform="translate(674.000000, 3086.000000)">
				<g id="Layer_1_7_">
					<g id="Group_6_">
						<path id="Shape_71_" d="M534.9,56.4l0.6-3.6l0,0l1.6,3.5l0,0l1.6-3.5l0,0l0.7,3.6l0.8-0.1l-1.1-5.8l0,0l-1.9,4.3l-1.9-4.3l0,0
							l-1.1,5.8L534.9,56.4L534.9,56.4z M541.4,56.4l0.9-1.9h2.2l0.9,1.9l0.8-0.2l-2.8-5.8l0,0l-2.8,5.8L541.4,56.4L541.4,56.4z
							 M542.6,53.7l0.8-1.6l0.8,1.6H542.6L542.6,53.7z M551.2,53.1H549l-0.3,0.7h1.7v1.4c-0.3,0.3-0.9,0.5-1.4,0.5
							c-1.2,0-2-1.2-2-2.1c0-1.3,1-2.3,2.1-2.3c0.6,0,1.1,0.3,1.5,0.6l0.5-0.6c-0.5-0.5-1.2-0.8-2-0.8c-1.6,0-2.9,1.4-2.9,3
							c0,1.5,1.3,2.9,2.8,2.9c1,0,1.8-0.4,2.2-0.8V53.1L551.2,53.1z M552.4,56.4l0.9-1.9h2.2l0.9,1.9l0.8-0.2l-2.8-5.8l0,0l-2.8,5.8
							L552.4,56.4L552.4,56.4z M553.7,53.7l0.8-1.6l0.8,1.6H553.7L553.7,53.7z M562,55.6h-3l2.9-4.9H558l-0.2,0.7h2.8l-3,4.9h4.1
							L562,55.6L562,55.6z M563.4,56.3v-5.8l-0.8,0.1v5.7L563.4,56.3L563.4,56.3z M565.4,56.3v-3.8l3.6,3.9l0,0v-5.8l-0.8,0.1v3.7
							l-3.6-3.9l0,0v5.9L565.4,56.3L565.4,56.3z M573.3,56.3l0.2-0.7H571v-1.8h1.9V53H571v-1.6h2.3l-0.2-0.7h-3v5.6L573.3,56.3
							L573.3,56.3z"/>
						<path id="Shape_70_" d="M483,46.6l2.8-15.2h0.1l6.9,15.1h0.1l6.7-15.1h0.1l2.8,15.2l3.3-0.4L501,21.5h-0.1l-8.1,18.4
							l-8.2-18.4h-0.1l-4.8,24.7L483,46.6L483,46.6z M507.2,34.1c0,7.1,5.6,12.6,12.4,12.6c6.8,0,12.4-5.5,12.4-12.6
							c0-7.1-5.6-12.6-12.4-12.6C512.8,21.5,507.2,27,507.2,34.1L507.2,34.1z M510.6,34.1c0-5,4.1-9.4,9.1-9.4c5,0,9.1,4.4,9.1,9.4
							s-4.1,9.4-9.1,9.4C514.7,43.6,510.6,39.1,510.6,34.1L510.6,34.1z M538.7,46.2V29.8l15.2,16.9h0.1V22.1l-3.4,0.6v15.7
							l-15.2-16.9h-0.1v25.1L538.7,46.2L538.7,46.2z M561.6,46.2V21.5l-3.4,0.6v24.4L561.6,46.2L561.6,46.2z M569.7,25.2v21.4
							l3.4-0.4V25.2h5.5v-3.1h-14l-1.1,3.1H569.7L569.7,25.2z M578.9,34.1c0,7.1,5.6,12.6,12.4,12.6c6.8,0,12.4-5.5,12.4-12.6
							c0-7.1-5.6-12.6-12.4-12.6S578.9,27,578.9,34.1L578.9,34.1z M582.3,34.1c0-5,4.1-9.4,9.1-9.4s9.1,4.4,9.1,9.4
							s-4.1,9.4-9.1,9.4S582.3,39.1,582.3,34.1L582.3,34.1z M610.1,46.2V34.5h0.1l8.2,12.3l3.8-1L615,35.7c3.3-0.7,5.2-2.7,5.2-6.3
							c0-5.5-4.3-7.3-7.8-7.3h-5.8v24.5L610.1,46.2L610.1,46.2z M610.1,25.2h2.4c2.6,0,4.4,1.3,4.4,4.1c0,2.6-2.1,4.3-4.4,4.3h-2.4
							V25.2L610.1,25.2z"/>
					</g>
				</g>
			</g>
		</g>
	</g>
</g>
</svg>
