<?xml version="1.0" encoding="utf-8"?>
<!-- Generator: Adobe Illustrator 19.2.1, SVG Export Plug-In . SVG Version: 6.00 Build 0)  -->
<svg version="1.1" id="Layer_1" xmlns="http://www.w3.org/2000/svg" xmlns:xlink="http://www.w3.org/1999/xlink" x="0px" y="0px"
	 viewBox="0 0 960 81.2" enable-background="new 0 0 960 81.2" xml:space="preserve">
<g>
	<g id="logo.psd_3_">
		<g>
			<path d="M345.7,26.8c0.3-0.2,0.5-0.4,0.8-0.7c2.9-2.9,5.8-5.8,8.7-8.7c9.6,0,19.3,0,28.7,0c1.7,1.7,3.3,3.3,4.8,4.8
				c-1.5,1.5-3,3-4.7,4.7c-9.3,0-19,0-28.7,0c0,0.4,0,0.7,0,1.1c0,3.7,0,7.4,0,11.1c0,1.1,0.1,2.3,0.2,3.4c0.3,1.8,1,3.5,1.8,5.1
				c0.2,0.4,0.7,0.5,0.7,1c1.2,1.4,2.5,2.6,4.1,3.6c1.2,0.7,2.6,1.1,3.9,1.6c0.6,0.2,1.3,0.2,2,0.3c1.3,0.1,2.5,0,3.7-0.3
				c1.6-0.4,3.3-0.9,4.7-1.9c0.7-0.5,1.4-1,2-1.6c0.6-0.6,1.2-1.4,1.7-2.1c0.2-0.2,0.4-0.5,0.6-0.7c0.8,1.7,1.7,3.4,2.6,5.1
				c1.8,0,3.6,0,5.6,0c-0.1,0.3-0.2,0.4-0.3,0.6c-0.8,1.1-1.7,2-2.4,3.1c-0.1,0.1-0.2,0.2-0.3,0.3c-1.6,1.3-3,2.7-4.8,3.8
				c-1.5,0.8-2.9,1.6-4.5,2.1c-1.2,0.4-2.4,0.7-3.7,1c-1.2,0.2-2.3,0.1-3.4,0.2c-1.2,0-2.3,0.1-3.5,0c-1-0.1-2.1-0.3-3.1-0.6
				c-1.7-0.5-3.3-1.1-4.8-1.9c-1-0.5-1.9-1.2-2.9-1.8c-0.5-0.4-0.9-0.8-1.4-1.1c-0.3-0.3-0.6-0.7-1-0.8c-0.3-0.1-0.6-0.4-0.7-0.7
				c-0.1-0.4-0.5-0.6-0.7-0.9c-1-1.2-1.9-2.4-2.7-3.8c-0.8-1.4-1.4-2.8-1.9-4.2c-0.1-0.4-0.3-0.8-0.4-1.2c-0.1-0.4-0.2-0.8-0.2-1.2
				c-0.1-0.3-0.2-0.6-0.2-1c0-0.3,0-0.7,0-1c0,0-0.1-0.1-0.2-0.1C345.7,37.7,345.7,32.3,345.7,26.8z"/>
			<path d="M379.9,40.6c0.2,2.2-0.6,4.1-1.7,5.9c-0.7,1.3-1.8,2.4-3.2,3.2c-0.6,0.3-1.2,0.6-1.8,1c-0.6,0.4-1.2,0.5-1.8,0.6
				c-1.1,0.2-2.2,0.5-3.3,0.3c-0.8-0.2-1.7-0.1-2.5-0.5c-1-0.4-2.1-0.8-3-1.5c-0.7-0.5-1.3-1.1-1.9-1.6c-0.9-0.9-2.3-3.6-2.6-5
				c-0.3-1.5-0.1-3-0.2-4.4c0.5-1.6,1-3.2,2.1-4.6c0.4-0.5,0.7-0.9,1.2-1.4c1.2-1.2,2.6-2.1,4.2-2.5c0.6-0.2,1.1-0.3,1.7-0.4
				c0.7-0.2,1.3-0.2,2-0.2c2.2,0.1,4.3,0.7,6.1,2c2.1,1.5,3.4,3.4,4.2,5.8C379.9,38.3,380,39.4,379.9,40.6z"/>
			<path d="M404.6,49.9c-0.7,0-1.5,0-2.1,0c-2.3-6.1-4.6-12.2-6.9-18.3c0.5,0,0.9,0,1.3,0c0.4,0,0.8,0,1.3,0
				c0.6,1.6,1.2,3.1,1.7,4.7c0.2,0.6,0.4,1.3,0.7,1.9c0.7,1.4,1.1,3,1.7,4.4c0.4,0.9,0.7,2,1,2.9c0,0.1,0.2,0.2,0.3,0.3
				c0.1-0.1,0.2-0.1,0.2-0.2c0.5-1.4,1-2.8,1.4-4.2c0.4-1.4,1-2.7,1.4-4.1c0.6-1.9,1.4-3.8,2-5.7c0.5,0,1,0,1.5,0
				c1.6,4.8,3.2,9.6,4.8,14.5c0.4-0.9,0.7-1.7,1-2.6c0.6-1.6,1.1-3.2,1.8-4.7c0.3-0.8,0.6-1.7,0.9-2.5c0.5-1.2,0.9-2.5,1.4-3.7
				c0.1-0.1,0.1-0.3,0.1-0.4c0.1-0.4,0.3-0.5,0.6-0.5c0.7,0,1.4,0,2,0c0.1,0.1,0.1,0.1,0.1,0.1c0,0,0,0.1,0,0.1
				c-2.3,5.9-4.5,11.9-6.8,17.9c0,0.1-0.2,0.2-0.3,0.3c-0.5,0-1,0-1.5,0c-0.4,0-0.6-0.2-0.8-0.6c-0.7-2-1.3-4-2-6
				c-0.4-1-0.7-2.1-1-3.2c-0.2-1.1-0.8-2.1-1.1-3.1c-0.1-0.2,0-0.4-0.1-0.5C407.8,40.9,406.2,45.4,404.6,49.9z"/>
			<path d="M451.3,49.9c-0.8,0-1.5,0-2.4,0c-0.9-2-1.8-4-2.7-6c-2.2,0-4.3,0-6.5,0c0,1.7,0,3.4,0,5.1c0,0.8-0.1,0.9-0.9,0.9
				c-0.3,0-0.7,0-1,0c-0.4,0-0.5-0.2-0.6-0.6c0-0.2,0-0.3,0-0.5c0-5.7,0-11.3,0-17c0-0.1,0-0.2,0-0.4c0.6,0,1.2,0,1.9,0
				c2.2,0,4.5,0,6.7,0c2,0,3.5,1,4.6,2.6c0.6,0.8,0.8,1.6,0.9,2.6c0.1,0.4,0.4,0.8,0.2,1.2c-0.3,0.5-0.1,1-0.3,1.5
				c-0.3,0.6-0.5,1.3-0.8,1.9c-0.4,0.7-1.1,1.3-1.9,1.8c0.9,2,1.9,4.1,2.8,6.2C451.3,49.4,451.3,49.6,451.3,49.9z M439.6,41.5
				c2,0,3.9,0,5.8,0c1,0,2-0.6,2.6-1.3c1.1-1.2,1.1-2.6,0.7-4.1c-0.4-1.2-1.7-2.3-2.8-2.3c-2.1,0-4.2,0-6.3,0c0,0.2,0,0.4,0,0.5
				C439.6,36.7,439.6,39.1,439.6,41.5z"/>
			<path d="M510.6,31.3c0.7,0,1.5,0,2.2,0.1c0.7,0.1,1.3,0.4,2,0.6c0.4,0.2,0.7,0.5,1.1,0.7c1.2,0.7,2.1,1.8,2.8,3.1
				c0.5,1,0.8,2,1,3.1c0.1,0.7,0.2,1.4,0.2,2.1c-0.1,1.6-0.5,3-1.1,4.4c-0.8,1.6-1.9,2.9-3.7,3.7c-0.5,0.2-0.9,0.5-1.4,0.6
				c-0.5,0.1-1,0.1-1.4,0.3c-0.7,0.3-1.4,0.2-2.1,0.2c-1.9-0.1-3.7-0.5-5.1-1.7c-1.7-1.3-3-3-3.4-5.2c-0.2-0.9-0.5-1.7-0.4-2.6
				c0.2-2,0.5-4,1.8-5.8c1.3-1.8,2.8-2.8,5-3.4c0.4-0.1,0.8-0.2,1.3-0.2C509.7,31.3,510.1,31.3,510.6,31.3z M517.2,40.9
				c0-0.4,0-0.6,0-0.8c0.2-1.7-0.6-3.1-1.5-4.4c-1-1.4-2.6-2.1-4.3-2.1c-0.5,0-1,0-1.5,0c-1.7-0.1-3.2,0.7-4.3,1.8
				c-1.1,1-1.6,2.5-1.8,4c-0.1,1-0.1,2.1,0.2,3.2c0.3,1.5,1.1,2.6,2.1,3.6c0.5,0.5,1.1,0.8,1.8,1.1c0.7,0.3,1.6,0.4,2.3,0.5
				c1,0.1,1.9-0.2,2.8-0.5c1.5-0.5,2.6-1.4,3.4-2.8C516.9,43.3,517.4,42.1,517.2,40.9z"/>
			<path d="M455.9,41.7c0,1.9,0,3.8,0,5.6c3.6,0,7.2,0,10.9,0c0,0.9,0,1.7,0,2.6c-4.4,0-8.8,0-13.2,0c0-6.1,0-12.2,0-18.3
				c0.9-0.2,9.6-0.2,13-0.1c0,0.4,0,0.8,0,1.1c0,0.3,0,0.7,0,1.1c-3.6,0-7.1,0-10.7,0c0,1.9,0,3.7,0,5.6c3.4,0,6.8,0,10.2,0
				c0,0.8,0,1.5,0,2.3C462.8,41.7,459.4,41.7,455.9,41.7z"/>
			<path d="M488.3,43.8c0,2,0,4,0,6.1c-0.7,0-1.3,0-2,0c-0.4,0-0.5-0.2-0.6-0.5c0-0.2,0-0.3,0-0.5c0-5.7,0-11.4,0-17.1
				c0-0.1,0-0.1,0-0.3c0.4,0,0.7,0,1.1,0c2.4,0,4.9,0,7.3,0c1.4,0,2.5,0.5,3.7,1.3c1.2,0.8,1.6,2,2,3.1c0.2,0.6,0.4,1.3,0.3,2
				c-0.2,1.6-0.6,3-1.8,4.2c-1.2,1.2-2.7,1.8-4.4,1.8C492.1,43.8,490.3,43.8,488.3,43.8z M488.3,33.8c0,1.4,0,2.6,0,3.8
				c0,1.3,0,2.5,0,3.8c2.1,0,4,0,6,0c1.4,0,2.4-0.8,3.1-2c0.4-0.9,0.3-1.9,0.2-2.8c0-0.6-0.4-1.2-0.8-1.6c-0.6-0.8-1.4-1.2-2.4-1.2
				C492.4,33.8,490.4,33.8,488.3,33.8z"/>
			<path d="M426.4,31.5c0.7,0,1.4,0,2.2,0c0.5,1.4,1,2.7,1.5,4.1c0.4,1,0.8,2.1,1.2,3.1c0.6,1.5,1.1,3,1.6,4.6
				c0.4,1.1,0.7,2.2,1.2,3.2c0.4,1,0.6,2.1,1.1,3c0,0.1,0,0.2,0,0.4c-0.8,0-1.6,0-2.5,0c-0.5-1.4-1-2.9-1.5-4.4c-2.5,0-5,0-7.6,0
				c-0.7,1.4-1.1,2.9-1.7,4.4c-0.8,0-1.6,0-2.4,0c-0.2-0.5,0.1-1,0.3-1.3c0.9-2,1.4-4.1,2.4-6c0.2-1.2,0.8-2.2,1.2-3.3
				c0.4-1.1,0.8-2.1,1.3-3.2c0.3-0.7,0.6-1.5,0.8-2.3C425.6,32.9,426.1,32.3,426.4,31.5z M430.3,43.1c-0.6-1.7-1.1-3.3-1.7-4.9
				c-0.3-1-0.6-2-0.9-3c0-0.1-0.1-0.2-0.2-0.2c-0.1,0-0.2,0.1-0.3,0.1c-0.3,1.1-0.8,2.1-1.2,3.1c-0.4,1.2-0.9,2.4-1.3,3.5
				c-0.2,0.4-0.5,0.8-0.3,1.3C426.5,43.1,428.3,43.1,430.3,43.1z"/>
			<path d="M477.8,40.4c1.1,1.6,2.2,3.2,3.3,4.7c0.9,1.3,1.8,2.5,2.7,3.8c0.2,0.3,0.4,0.6,0.6,1c-0.5,0.2-1,0.1-1.4,0.1
				c-0.5,0-0.9,0-1.4,0c-1.8-2.5-3.5-4.9-5.3-7.5c-0.7,0.7-1.2,1.6-1.8,2.4c-0.7,1-1.4,1.9-2.1,2.9c-0.4,0.5-0.8,1.1-1.1,1.6
				c-0.2,0.4-0.6,0.6-1,0.6c-0.7,0-1.3,0-2,0c-0.2-0.3-0.1-0.5,0.1-0.8c1-1.2,1.9-2.4,2.8-3.7c0.9-1.4,1.9-2.7,2.9-4
				c0.2-0.3,0.4-0.6,0.6-0.9c-2-2.9-4-5.8-6.1-8.8c0.5-0.2,1-0.1,1.4-0.1c0.5,0,0.9,0,1.3,0c1.6,2.3,3.2,4.5,4.9,6.9
				c1.7-2.3,3.3-4.6,4.9-6.8c0.9,0,1.8,0,2.8,0C481.9,34.5,479.9,37.5,477.8,40.4z"/>
		</g>
	</g>
	<g>
		<path d="M695.1,22.5c-3.5-2.9-5.9-6.4-9.1-9.2c0,0.3-0.1,0.6-0.1,0.9c0,2.2,0,4.5,0,6.7c0,0.8-0.4,1.1-1.1,1
			c-0.4-0.1-0.6-0.3-0.6-0.7c0-0.1,0-0.3,0-0.4c0-3.5,0-7,0-10.5c0-0.2,0-0.3,0.1-0.7c1.9,1.3,3,3.1,4.5,4.6c1.5,1.5,3,3,4.6,4.6
			c0-0.6,0-1.1,0-1.5c0-2.1,0-4.2,0-6.3c0-0.7,0.3-1,1-0.9c0.4,0.1,0.7,0.3,0.7,0.7C695.1,14.7,695.1,18.4,695.1,22.5z"/>
		<path d="M621,18.9c0-3.1,0-5.9,0-8.7c0.5,0,0.9,0,1.4,0c0,4,0,8,0,11.8c-2.9-2.9-5.8-5.8-8.7-8.7c-0.3,0-0.3,0-0.3,0.1
			c0,0-0.1,0.1-0.1,0.1c0,2.8,0,5.5,0,8.4c-0.5,0-0.9,0-1.4,0c0-4,0-7.9,0-11.9c0,0,0-0.1,0.1-0.1c0,0,0.1,0,0.1,0.1
			C615,12.9,618,15.8,621,18.9z"/>
		<path d="M656,34.6c0,4.1,0,8,0,12.2c-3.1-3.1-6.1-6.1-9.1-9.1c0,3,0,5.8,0,8.7c-0.5,0-0.9,0-1.4,0c0-4,0-8,0-11.9
			c2.9,2.9,5.9,5.9,9,9c0-0.6,0.1-0.9,0.1-1.2c0-2.2,0-4.3,0-6.5C654.6,34.6,654.6,34.6,656,34.6z"/>
		<path d="M670.5,38c-0.4-0.4-0.8-0.8-1.2-1.2c-0.2-0.2-0.4-0.4-0.7-0.5c-0.4-0.1-0.8-0.2-1.2-0.3c-0.4,0-0.9,0.1-1.3,0
			c-1.2-0.2-2.1,0.3-2.9,1c-0.9,0.7-1.4,1.8-1.5,2.9c-0.1,0.9-0.2,1.9,0.5,2.8c0.4,0.6,0.8,1.2,1.4,1.5c1,0.5,2,1.2,3.2,0.9
			c1.5-0.3,2.7-0.8,3.4-2.2c0.2-0.4,0.1-0.7,0.2-1.2c-0.6,0-1.1,0-1.7,0c-0.6,0-1.1,0-1.7,0c0-0.5,0-0.9,0-1.4c1.7,0,3.4,0,5.1,0
			c0.2,2.4-0.7,4.3-2.8,5.5c-1.5,0.8-3.2,1.2-4.8,0.4c-0.9-0.4-1.8-0.8-2.5-1.6c-1-1.1-1.5-2.3-1.6-3.8c0-1.2,0.2-2.2,0.8-3.3
			c0.9-1.5,3-3,4.9-3c1.3,0,2.6,0.1,3.7,0.9c0.6,0.5,1.2,1,1.9,1.5C671.2,37.3,670.9,37.7,670.5,38z"/>
		<path d="M608.2,34.6c1.8-0.3,3.1,0.8,4.4,1.8c0.8,0.7,1.3,1.7,1.6,2.8c0.2,0.5,0.3,1.1,0.3,1.6c-0.1,0.7-0.3,1.5-0.6,2.2
			c-0.4,0.9-1.1,1.7-1.9,2.3c-1.3,1-2.9,1.7-4.6,1.4c-2-0.4-3.8-1.2-4.8-3.1c-0.6-1.1-0.9-2.4-0.7-3.7c0.1-0.9,0.4-1.9,1-2.6
			C604.2,35.5,605.8,34.3,608.2,34.6z M608.1,36c-1.9-0.2-3.3,0.7-4.3,2.4c-1.2,2.1-0.7,3.9,0.9,5.6c0.9,0.9,2.1,1.4,3.5,1.3
			c1.8-0.1,3-0.9,3.9-2.4c0.4-0.6,0.7-1.3,0.6-2.1c-0.1-0.6,0.1-1.3-0.2-1.9C611.7,36.9,610.3,35.8,608.1,36z"/>
		<path d="M596.9,71c-3.2-0.1-5.3-1.9-6.2-4.7c-0.2-0.7-0.2-1.5,0-2.3c0.5-2.1,1.2-3.1,3.2-4.4c0.5-0.4,1.3-0.2,1.8-0.7
			c2-0.1,3.9,0.1,5.3,1.6c0.2,0.2,0.3,0.4,0.5,0.5c0.7,0.6,1.1,1.3,1.3,2.2c0.1,0.7,0.5,1.3,0.4,2c-0.1,0.9-0.3,1.9-0.9,2.6
			C601,69.7,599.4,71.2,596.9,71z M601.5,65.1c0.3-1.1-0.2-2-0.8-3c-0.5-0.8-1.3-1-2-1.4c-1.1-0.6-2.3-0.5-3.4-0.2
			c-1.1,0.3-2.1,1.1-2.7,2.1c-1.3,2.5-0.6,5,1.7,6.4c0.4,0.2,0.9,0.5,1.3,0.6c0.7,0.1,1.5,0.2,2.1,0c1-0.3,2.1-0.7,2.8-1.6
			C601.2,67.1,601.9,66.2,601.5,65.1z"/>
		<path d="M596.1,46.3c0-1.8,0-3.5,0-5.3c-1.9-0.1-3.8,0-5.7-0.1c0,1.8,0,3.6,0,5.4c-0.5,0-0.9,0-1.4,0c0-3.9,0-7.7,0-11.7
			c0.2,0,0.4,0,0.6,0c0.5,0,0.8,0.3,0.8,0.8c0,1.1,0,2.2,0,3.3c0,0.2,0,0.5,0,0.7c1.9,0,3.7,0,5.7,0c0-1.2,0-2.4,0-3.6
			c0-1.2,0-1.2,1.4-1.2c0,3.9,0,7.8,0,11.7C597,46.3,596.5,46.3,596.1,46.3z"/>
		<path d="M662.4,10.2c1.2,0.1,2.4-0.1,3.6,0.3c0.5,0.2,1,0.3,1.4,0.7c0.3,0.3,0.5,0.5,0.8,0.8c0.3,3.1,0.5,3.2-2.5,5
			c1.2,1.6,2.3,3.2,3.6,4.9c-0.6,0.3-1.2,0.1-1.7,0.2c-1.2-1.8-2.5-3.5-3.9-5.5c0,2,0,3.7,0,5.5c-0.5,0-0.9,0-1.4,0
			C662.4,18,662.4,14.2,662.4,10.2z M663.8,15.7c0.6-0.1,1.1,0,1.6-0.3c1.5-0.6,1.6-0.6,1.5-2.1c0-0.4,0.1-0.7-0.3-1
			c-0.4-0.3-0.8-0.6-1.3-0.7c-0.5,0-1,0-1.6,0C663.8,13,663.8,14.3,663.8,15.7z"/>
		<path d="M590.8,16.9c1.2,1.7,2.4,3.2,3.4,4.9c-1,0.1-1.6,0.1-2.2-0.9c-0.8-1.3-1.8-2.5-2.8-3.7c-0.1-0.1-0.1-0.3-0.2-0.5
			c-0.1,0-0.1,0.1-0.1,0.1c0,0-0.1,0.1-0.1,0.1c0,1.6,0,3.2,0,4.9c-0.4,0-0.9,0-1.3,0c0,0-0.1-0.1-0.1-0.2c0-3.6,0-7.3,0-10.9
			c0-0.2,0-0.4,0-0.7c0.9,0,1.7-0.1,2.6,0c1,0.1,2,0.4,2.7,1.1c0.8,0.8,1,2,0.7,3.2c-0.3,0.9-0.8,1.5-1.6,1.9
			C591.4,16.5,591.1,16.7,590.8,16.9z M588.9,11.7c0,1.4,0,2.6,0,4c1.2-0.1,2.4-0.2,3.1-1.4C592.2,12.3,591.4,11.3,588.9,11.7z"/>
		<path d="M675.1,20.5c1.5,0,3,0,4.5,0c0,0.5,0,0.9,0,1.4c-1.9,0-3.8,0-5.7,0c-0.2,0-0.5-0.4-0.6-0.6c-0.1-0.1,0-0.4,0-0.6
			c0-3.1,0-6.2,0-9.3c0-0.1,0-0.3,0-0.4c0-0.6,0.3-0.8,0.9-0.8c1.8,0,3.5,0,5.4,0c0,0.5,0,0.9,0,1.4c-1.5,0-2.9,0-4.5,0
			c0,1.1,0,2.1,0,3.2c1.5,0,3,0,4.5,0c0,0.5,0,0.9,0,1.4c-1.5,0-3,0-4.5,0C675.1,17.6,675.1,19,675.1,20.5z"/>
		<path d="M608.3,21.9c-0.7,0-1.2,0-1.7,0c-0.3-0.6-0.5-1.2-0.7-1.7c-0.2-0.4-0.3-1.1-0.7-1.3c-0.4-0.2-1-0.1-1.5-0.1
			c-1.1,0-2.3,0-3.4,0c-0.4,0.8-0.9,1.6-1.2,2.4c-0.2,0.7-0.6,0.9-1.2,0.8c-0.2,0-0.4,0-0.7,0c0.3-0.6,0.5-1,0.7-1.4
			c1.1-2.4,2.2-4.8,3.3-7.2c0.2-0.6,0.4-1.2,0.7-1.7c0.3-0.6,0.6-1.1,1-1.8c0.4,1,0.9,1.7,1.1,2.6c0.2,0.8,0.9,1.5,1.1,2.4
			c0,0,0,0.1,0,0.1c1.2,1.8,1.7,4,2.7,5.9C607.8,21.1,608,21.4,608.3,21.9z M604.4,17.3c-0.2-1.3-1.3-3.5-1.9-4.1
			c-0.4,1.4-1.2,2.6-1.6,4.1C602.1,17.3,603.2,17.3,604.4,17.3z"/>
		<path d="M648,21.9c0-0.3-0.1-0.5,0-0.7c0.7-1.5,1.4-3,2.1-4.4c0.4-0.8,0.8-1.5,1-2.3c0.3-0.7,0.8-1.4,0.9-2.2
			c0.2-0.8,0.8-1.6,1.3-2.4c0.9,1.1,1.2,2.6,1.8,3.9c0.6,1.3,1.2,2.7,1.8,4c0.6,1.3,1.2,2.7,1.9,4.1c-0.5,0-0.9,0.1-1.3,0
			c-0.2,0-0.5-0.2-0.5-0.3c-0.1-0.9-0.8-1.5-1-2.3c0-0.1,0-0.3,0-0.4c-1.8,0-3.5,0-5.3,0c-0.2,0.5-0.4,0.9-0.5,1.4
			c-0.1,0.2-0.2,0.4-0.3,0.6C649.4,21.9,649.4,21.9,648,21.9z M653.3,13c-0.6,1.5-1.3,2.9-1.9,4.3c1.3,0,2.5,0,3.8,0
			C654.6,15.8,654,14.5,653.3,13z"/>
		<path d="M630.2,59.3c0,0.2,0,0.3,0,0.5c-0.1,0.7-0.2,0.9-0.9,0.9c-1.3,0-2.6,0-3.9,0c0,1,0,2.1,0,3.1c1.6,0,3.1,0,4.8,0
			c0,0.2,0,0.4,0,0.6c-0.1,0.7-0.2,0.9-0.8,0.9c-1.1,0-2.3,0-3.4,0c-0.2,0-0.4,0-0.6,0c0,1.3,0,2.6,0,4c1.2,0,2.4,0,3.6,0
			c1.1,0,1.2,0,1.1,1.4c-2,0-4.1,0-6.2,0c-0.1-1.8,0-3.7,0-5.6c0-1.9,0-3.8,0-5.8C626,59.3,628,59.3,630.2,59.3z"/>
		<path d="M678.5,60.7c0,1.1,0,2.1,0,3.1c1.5,0,3,0,4.5,0c0,0.3,0,0.5,0,0.7c0,0.5-0.2,0.8-0.8,0.8c-1.2,0-2.5,0-3.8,0
			c0,1.3,0,2.6,0,4c0.6,0.1,1.2,0,1.9,0.1c0.6,0,1.1,0,1.7,0c1.2,0,1.2,0,1.2,1.4c-2.1,0-4.2,0-6.3,0c0-3.8,0-7.5,0-11.4
			c2.1,0,4.1,0,6.3,0c0,0.2,0,0.4,0,0.6c-0.1,0.6-0.2,0.8-0.9,0.8C681.2,60.7,679.9,60.7,678.5,60.7z"/>
		<path d="M644,61.7c-0.5-0.2-0.8-0.3-1-0.5c-1-0.8-2.2-0.9-3.4-0.8c-1.2,0.1-2.2,0.6-2.9,1.5c-0.4,0.5-0.8,1.1-0.9,1.8
			c-0.1,1.1-0.3,2.3,0.3,3.3c0.4,0.7,0.7,1.3,1.5,1.8c1.2,0.7,2.4,0.8,3.7,0.8c0.3,0,0.7-0.2,1-0.4c0.5-0.3,1.1-0.6,1.7-0.8
			c0.2,1.5,0.2,1.5-1,2.1c-2.3,1.1-5.2,0.6-6.8-1.2c-0.5-0.6-1.2-1.1-1.5-1.8c-0.3-0.7-0.4-1.5-0.6-2.2c-0.1-0.6,0.1-1.3,0.3-2
			c0.7-2.3,2.4-3.7,4.6-4.3c1.6-0.4,3.3,0,4.7,0.9c0.2,0.1,0.3,0.4,0.3,0.6C644,60.8,644,61.2,644,61.7z"/>
		<path d="M576.8,43.5c0.4-0.2,0.8-0.3,1.3-0.5c0.4,1,0.8,1.9,1.9,2.1c1,0.2,1.6-0.1,2.8-1.3c0-0.6,0-1.1,0-1.7
			c-0.4-0.7-1.3-0.9-2-1.3c-1-0.5-2-0.8-2.7-1.7c-0.4-0.5-0.7-0.9-0.7-1.6c0-0.5,0.4-1.5,0.7-1.9c1.1-1.4,3-1.5,4.6-0.8
			c0.5,0.2,0.9,0.9,1.4,1.5c-0.2,0.1-0.4,0.1-0.5,0.2c-0.2,0.1-0.3,0.3-0.5,0.5c-0.4-0.4-0.7-0.8-1.1-1.2c-0.4,0-0.7,0-1,0
			c-1.4,0-1.8,0.3-2.1,1.8c0.6,1.1,1.8,1.5,2.8,1.9c1,0.4,1.7,1,2.5,1.7c0.2,0.2,0.3,1.5,0.3,1.9c0,1-0.5,1.8-1.2,2.4
			c-1.7,1.3-3,1.3-4.6,0.3C577.5,45.4,577.3,44.5,576.8,43.5z"/>
		<path d="M586.6,60.2c0,0.5,0,1,0,1.6c-0.8-0.4-1.4-1-2.2-1.2c-1.3-0.3-3-0.2-4.1,0.5c-0.6,0.5-1.2,1-1.5,1.8
			c-0.4,0.7-0.4,1.4-0.5,2.1c-0.2,2.1,1.6,4.1,3.3,4.5c1.6,0.4,3.3,0.2,4.6-1.1c0.1-0.1,0.2-0.1,0.3-0.3c0,0.6,0,1.1,0,1.7
			c-2.5,2-6.3,1.7-8.5-1.1c-1.8-2.2-1.7-5.2,0-7.3C580.2,58.6,584,58.2,586.6,60.2z"/>
		<path d="M626.8,19.1c0.4-0.1,0.8-0.3,1.2-0.4c0.4,0.7,0.6,1.5,1.3,1.8c0.5,0.2,1.1,0.4,1.6,0.3c0.5-0.2,1.1-0.2,1.4-0.7
			c0.5-0.7,0.5-1.4,0.5-2.2c-0.7-0.8-1.5-1.3-2.6-1.6c-1-0.3-1.8-0.9-2.4-1.7c-0.5-0.7-0.6-1.5-0.3-2.3c0.4-1.1,1.2-1.6,2.2-2
			c1.2-0.4,2.6-0.1,3.6,0.9c0.2,0.2,0.5,0.5,0.7,0.7c-0.1,0.1-0.3,0.2-0.4,0.4c-0.5,0.4-0.7,0.4-1.2,0c-0.1-0.1-0.1-0.2-0.2-0.2
			c-0.4-0.2-0.8-0.6-1.2-0.6c-0.5-0.1-1,0.1-1.4,0.3c-0.4,0.1-0.7,0.8-0.8,1.8c0.6,0.9,1.5,1.3,2.6,1.7c1,0.3,1.8,0.9,2.4,1.7
			c0.7,0.9,0.6,1.9,0.3,2.9c-0.5,1.7-1.9,2.1-3.3,2.5c-0.2,0.1-0.5,0-0.8-0.1C628.5,21.7,627.2,21,626.8,19.1z"/>
		<path d="M638.6,10.2c1,0,2-0.1,2.9,0c2.1,0.2,3.3,1.2,3.4,3.4c0,0.8-0.2,1.5-0.8,2.1c-0.6,0.7-1.4,1.1-2.3,1c-0.6,0-1.1,0-1.7,0
			c0,1.7,0,3.4,0,5.1c-0.5,0-0.9,0-1.4,0C638.6,18,638.6,14.2,638.6,10.2z M640,15.3c0.9,0,1.6,0,2.4,0c0.3-0.3,0.7-0.7,1-1
			c0-0.5,0-1.1,0-1.7c-0.9-1.3-2.2-1.1-3.4-1C640,12.9,640,14.1,640,15.3z"/>
		<path d="M630.2,41.5c0,1.7,0,3.3,0,4.8c-0.5,0-0.9,0-1.4,0c0-0.6,0-1.1,0-1.7c0-3,0-6,0-9c0-0.8,0.2-1,1-1c0.5,0,1.1,0,1.6,0
			c0.5,0,1,0.2,1.5,0.3c1.6,0.4,2.7,2.5,2.2,4c-0.5,1.4-1.3,2.2-2.9,2.3C631.5,41.3,630.9,41.4,630.2,41.5z M630.2,40
			c1.4,0.1,2.6-0.1,3.4-1.3c0-0.3,0-0.6,0-0.8c0-0.9-0.4-1.2-1.3-1.6c-0.7-0.3-1.4-0.3-2.1-0.2C630.2,37.4,630.2,38.7,630.2,40z"/>
		<path d="M619.9,41.5c0,1.6,0,3.2,0,4.8c-0.5,0-0.9,0-1.4,0c0-1.2,0-2.4,0-3.6c0-2.4,0-4.8,0-7.2c0-0.8,0.2-1,1-1
			c0.5,0,1.1,0,1.6,0c0.5,0,1,0.2,1.5,0.3c1.6,0.4,2.6,2.4,2.2,4c-0.3,1.1-1.1,1.8-2.1,2.2C621.8,41.4,620.9,41.4,619.9,41.5z
			 M623.3,38.7c0-0.3,0-0.5,0-0.8c0-0.9-0.4-1.4-1.2-1.6c-0.7-0.2-1.5-0.5-2.2-0.2c0,1.4,0,2.6,0,3.9
			C621.3,40.1,622.5,39.9,623.3,38.7z"/>
		<path d="M663.5,59.3c0.6,0,1.1,0,1.6,0c1.1,2.8,2.2,5.6,3.3,8.5c1.1-2.9,2.2-5.7,3.2-8.5c0.5,0,1,0,1.6,0c-1.6,4-3.2,8-4.8,12.2
			C666.6,67.4,665.3,63.3,663.5,59.3z"/>
		<path d="M579.1,11.6c-0.7,0-1.4,0-2.1,0c-0.5,0-0.8-0.3-0.8-0.7c0-0.4,0.3-0.7,0.8-0.7c2,0,3.9,0,5.9,0c0.4,0,0.7,0.2,0.7,0.5
			c0.1,0.2-0.1,0.5-0.2,0.7c-0.1,0.1-0.4,0.2-0.6,0.2c-0.6,0-1.2,0-2,0c0,0.4,0,0.8,0,1.2c0,2.5,0,5,0,7.4c0,0.3,0,0.6,0,0.9
			c0,0.6-0.3,0.8-0.9,0.8c-0.6,0-0.8-0.2-0.8-0.9c0-2.7,0-5.3,0-8C579.1,12.6,579.1,12.1,579.1,11.6z"/>
		<path d="M701.7,11.6c-1,0-1.9,0-2.9,0c0-0.5,0-0.9,0-1.4c2.3,0,4.7,0,7.1,0c0,0.4,0,0.8,0,1.3c-0.9,0-1.8,0-2.8,0
			c0,3.5,0,6.9,0,10.3c-0.5,0-0.9,0-1.4,0C701.7,18.5,701.7,15.1,701.7,11.6z"/>
		<path d="M654.6,60.7c-0.9,0-1.8,0-2.8,0c0,3.4,0,6.7,0,10c-0.5,0-0.9,0-1.4,0c0-3.3,0-6.6,0-10c-0.6,0-1.1,0-1.6,0
			c-1.2,0-1.2,0-1.2-1.4c2.4,0,4.7,0,7.1,0C654.6,59.7,654.6,60.1,654.6,60.7z"/>
		<path d="M608.6,69.3c1.1,0,2.1,0,3.2,0c0,0.5,0,0.9,0,1.4c-1.5,0-3,0-4.5,0c0-3.7,0-7.5,0-11.4c0.4,0,0.8,0,1.3-0.1
			C608.6,62.6,608.6,65.9,608.6,69.3z"/>
		<path d="M617,69.3c1.1,0,2.1,0,3.2,0c0,0.5,0,0.9,0,1.4c-1.5,0-3,0-4.5,0c0-3.8,0-7.5,0-11.3c0.4,0,0.9,0,1.3,0
			C617,62.6,617,65.9,617,69.3z"/>
		<path d="M640.5,34.6c0,3.9,0,7.7,0,11.6c-0.4,0-0.9,0-1.4,0c0-1.9,0-3.8,0-5.7c0-1.6,0-3.1,0-4.7
			C639.1,34.6,639.1,34.6,640.5,34.6z"/>
		<path d="M659.7,70.7c-0.5,0-0.9,0-1.3,0c0-3.8,0-7.5,0-11.4c0.4,0,0.8,0,1.3-0.1C659.7,63.1,659.7,66.8,659.7,70.7z"/>
		<path d="M690.2,70c-0.1,0.1-0.2,0.1-0.2,0.2c-0.6,1-1.1,1-1.7,0.2c-0.3-0.4,0-1,0.5-1.1C689.5,69.2,689.8,69.6,690.2,70z"/>
	</g>
	<g>
		<polygon points="217.7,27.6 212.3,27.6 217.7,18.8 217.7,17 208.8,17 208.8,19.5 214.2,19.5 208.6,28.4 208.6,30.1 217.7,30.1 
			217.7,27.6 		"/>
		<polygon points="249.7,22.6 249.8,22.6 252.7,28.2 254.1,28.2 257.1,22.6 257.2,22.6 257.2,30.1 260,30.1 260,17 257.1,17 
			253.5,24.4 253.4,24.4 249.8,17 246.8,17 246.8,30.1 249.7,30.1 249.7,22.6 		"/>
		<polygon points="181.1,22.6 181.1,22.6 184.1,28.2 185.5,28.2 188.5,22.6 188.5,22.6 188.5,30.1 191.4,30.1 191.4,17 188.4,17 
			184.8,24.4 184.8,24.4 181.2,17 178.2,17 178.2,30.1 181.1,30.1 181.1,22.6 		"/>
		<path d="M200.3,30.3c3.2,0,5.1-1.8,5.1-4.6V17h-3.1v8.8c0,1.3-0.7,1.9-1.9,1.9c-1.2,0-2-0.6-2-1.9V17h-3.2v8.8
			C195.2,28.6,197.1,30.3,200.3,30.3L200.3,30.3z"/>
		<path d="M243.1,25.7V17h-3.1v8.8c0,1.3-0.7,1.9-1.9,1.9c-1.2,0-2-0.6-2-1.9V17h-3.2v8.8c0,2.8,1.9,4.5,5.1,4.5
			C241.2,30.3,243.1,28.6,243.1,25.7L243.1,25.7z"/>
		<polygon points="229.7,27.7 224.3,27.7 224.3,24.5 228.2,24.5 228.2,22.3 224.3,22.3 224.3,19.5 229.5,19.5 229.5,17 221.2,17 
			221.2,30.1 229.7,30.1 229.7,27.7 		"/>
		<polygon points="285.8,39.4 283.4,45.7 283.4,45.7 281.1,39.4 277.6,39.4 281.9,48.5 281.9,52.5 285,52.5 285,48.6 289.2,39.4 
			285.8,39.4 		"/>
		<polygon points="189.9,49.1 189.9,49.1 187.7,39.4 184.8,39.4 182.5,49 182.5,49 180.4,39.4 177.3,39.4 180.7,52.5 184.1,52.5 
			186.2,43.9 186.3,43.9 188.3,52.5 191.7,52.5 195.1,39.4 192,39.4 189.9,49.1 		"/>
		<path d="M200.2,47.6l1.5-5.6h0l1.5,5.6H200.2L200.2,47.6z M199.9,39.4l-4.2,13.1h3.2l0.7-2.7h4.1l0.7,2.7h3.2l-4.2-13.1H199.9
			L199.9,39.4z"/>
		<path d="M215.1,45.2h-1.5v-3.5h1.5c1.2,0,1.6,0.5,1.6,1.7C216.6,44.6,216.3,45.2,215.1,45.2L215.1,45.2z M219.7,43.2
			c0-2.3-1.3-3.9-4.6-3.9h-4.8v13.1h3.1v-5.1h1.2l2.3,5.1h3.4l-2.9-5.7C219,46.2,219.7,44.9,219.7,43.2L219.7,43.2z"/>
		<path d="M226.1,42.7c0-0.8,0.4-1.2,1.5-1.2c1,0,1.8,0.4,2.3,1.4l2.1-1c-0.8-1.7-2.2-2.7-4.7-2.7c-2.7,0-4.3,1.6-4.3,3.6
			c0,4.1,6.1,3.9,6.1,6.3c0,0.8-0.5,1.2-1.6,1.2c-0.9,0-2-0.5-2.4-1.7l-2.3,0.8c0.6,1.9,2.5,3.2,4.7,3.2c2.8,0,4.6-1.4,4.6-3.8
			C232,44.5,226.1,44.8,226.1,42.7L226.1,42.7z"/>
		<polygon points="234.7,41.9 240,41.9 234.4,50.8 234.4,52.5 243.5,52.5 243.5,50 238.1,50 243.6,41.1 243.6,39.4 234.7,39.4 
			234.7,41.9 		"/>
		<path d="M250.5,47.6l1.5-5.6h0l1.5,5.6H250.5L250.5,47.6z M250.2,39.4L246,52.5h3.2l0.7-2.7h4.1l0.7,2.7h3.2l-4.2-13.1H250.2
			L250.2,39.4z"/>
		<polygon points="271.2,49.1 271.1,49.1 268.9,39.4 266,39.4 263.8,49 263.7,49 261.7,39.4 258.6,39.4 262,52.5 265.3,52.5 
			267.4,43.9 267.5,43.9 269.5,52.5 272.9,52.5 276.3,39.4 273.2,39.4 271.2,49.1 		"/>
		<path d="M136.6,47.2c-4.2,0-7.6-3.4-7.6-7.6c0-4.2,3.4-7.6,7.6-7.6c4.2,0,7.6,3.4,7.6,7.6C144.2,43.8,140.8,47.2,136.6,47.2
			L136.6,47.2z M150.1,39.4v11.8c0,1.7-1.4,3.1-3.1,3.1c-1.7,0-3.1-1.4-3.1-3.1v-3.3c2.3-2,3.7-5,3.7-8.2c0-4-2.1-7.5-5.4-9.5h14.2
			l-10.6-10.6h-11.4c-0.1,0-0.2,0-0.3,0v-3.7h25.6l4.2-3.8h-34.7v12.2c0,0,0,0.4,0,0.6c0,2.1,1.2,3.8,2.9,4.7
			c-3.8,1.7-6.5,5.6-6.5,10.1c0,3.2,1.4,6.2,3.6,8.2v3.4c0,9.9,8.1,18,18,18c9.9,0,18-8.1,18-18V39.4l-7.4,7.4L150.1,39.4
			L150.1,39.4z"/>
	</g>
	<g id="Screens_8_">
		<g id="Desktop-Copy-4_8_" transform="translate(-444.000000, -3002.000000)">
			<g id="warszawa_2_" transform="translate(444.000000, 3002.000000)">
				<g id="Layer_1_9_">
					<g id="Group_8_">
						<path id="Shape_103_" fill="#140F10" d="M31.1,73.7c0-0.4-0.5-0.3-0.6-0.7c0-0.5-0.5-0.6-0.7-1c-0.4-0.3-0.7-0.5-1.1-0.9
							c-0.3-0.4-0.7-0.7-1-1.1c-0.2-0.2-0.1-0.5-0.3-0.6c-0.3-0.1-0.5-0.4-0.8-0.6c-0.3,0-0.7-0.1-0.9-0.5c0.1-0.4-0.1-0.7-0.3-1
							c-0.1-0.8-0.6-1.4-0.8-2.1c-0.3-0.4-0.5-0.9-0.6-1.4l-0.5-0.5c-0.3-0.4-0.5-0.8-0.6-1.2c-0.1-0.7-0.8-1.1-1-1.8
							c-0.2-0.8-0.6-1.5-0.8-2.3c-0.1-0.7-0.5-1.3-0.7-2c-0.1-0.5-0.1-1-0.1-1.5c-0.1-0.3-0.3-0.5-0.3-0.9c-0.3-0.5-0.4-1.1-0.6-1.7
							c0-0.5-0.5-0.7-0.5-1.1c0-0.5-0.4-0.8-0.3-1.3c-0.2-0.4-0.4-0.8-0.5-1.2c-0.3-0.3-0.3-0.7-0.4-1.2c-0.1-0.4-0.1-0.9-0.3-1.2
							c-0.1-0.3-0.1-0.7-0.1-1.1c0-0.4-0.2-0.6-0.2-1c-0.1-0.3-0.1-0.6-0.1-1c0-0.1-0.4-1.1-0.3-1.2c0.1-0.1,0-0.2,0-0.3
							c-0.1-0.2-0.1-0.5-0.2-0.7c-0.1-0.1-0.1-0.3-0.2-0.4c0-0.2-0.1-0.3-0.1-0.5c-0.1-0.1-0.1-0.3-0.1-0.4c-0.1-0.1,0-0.2-0.1-0.3
							c0-0.2-0.2-0.4-0.2-0.6c-0.1-0.1-0.1-0.3-0.2-0.4c-0.3-0.1-0.4-0.3-0.7-0.5c0-0.2-0.3-0.2-0.3-0.4c-0.2-0.2-0.6-0.3-0.8-0.7
							c0-0.1,0-0.2-0.1-0.2c0-0.1,0.1-0.2,0.1-0.3c-0.1-0.1,0-0.3,0-0.4c0.1-0.1,0.2-0.3,0.2-0.4c0.1-0.1,0.1-0.3,0.2-0.5
							c0-0.1,0-0.2,0-0.4c0-0.2,0.1-0.5,0.2-0.6c0.1-0.1,0-0.1,0-0.2c-0.1-0.1-0.2-0.1-0.3-0.1c-0.1,0-0.1,0.1-0.1,0.2
							c0,0.2-0.3,0.2-0.3,0.4c-0.2,0.1-0.1,0.4-0.2,0.5c-0.2,0.1-0.2,0.4-0.4,0.6c-0.1,0.2-0.2,0.3-0.2,0.5c0,0.1,0,0.2,0,0.2
							c0,0.2-0.1,0.3-0.2,0.5c0,0,0,0.1,0,0.1c-0.1,0.1,0,0.3,0.1,0.4c0,0.2,0.1,0.3,0.2,0.4c0.2,0.1,0.5,0.4,0.7,0.6
							c0.2,0.2,0.4,0.3,0.5,0.5c0.2,0.1,0.2,0.4,0.4,0.5c0.4,0.1,0.4,0.5,0.6,0.8c0,0.2,0.2,0.4,0.2,0.6c0.2,0.1,0,0.4,0.2,0.5
							c0,0.1,0.1,0.2,0.1,0.3l0,0.1c0,0-0.1,0-0.1,0c-0.2-0.2-0.5-0.1-0.8,0c-0.3,0.1-0.5-0.2-0.7-0.2c-0.4,0.1-0.7,0-1.1,0
							c-0.1,0-0.2-0.1-0.3-0.1c-0.3,0.2-0.5,0.6-0.8,0.6c-0.3,0.2-0.7,0.2-1,0.3C10.5,42,10.2,42,10,42.1c-0.4,0.2-1,0-1.4,0.2
							c-0.4,0.5-0.9,0.5-1.4,0.5c-0.3,0.1-0.7,0.1-1,0.1c-0.3,0.1-0.6,0.4-1,0.5c-0.2,0.1-0.1,0.5-0.3,0.6c-0.5,0.2-0.4,0.7-0.6,1
							c-0.1,0.5,0.1,0.9,0.1,1.4c0.1,0.4,0.2,0.7,0.3,1c0,0.2,0.2,0.4,0.1,0.6c-0.1,0.3,0.1,0.5,0.1,0.8c-0.1,0.1,0,0.2-0.1,0.3
							c0,0.1-0.1,0.2-0.1,0.4c0,0.2-0.1,0.3-0.1,0.5c0.1,0.4,0.2,0.7,0.3,1.1c0.1,0.2,0.2,0.3,0.3,0.5c0,0.4,0.1,0.6,0.2,1
							c0.2,0.3-0.1,0.5-0.2,0.7c0,0.6,0.6,1.1,0.7,1.7c0.5,0.6,0.7,1.2,1,1.9c0.2,0.9,0.7,1.7,1.1,2.5c0.4,0.8,0.9,1.5,1.3,2.3
							c0.2,0.4,0.5,0.8,0.6,1.3c-0.2,0.4,0.3,0.5,0.4,0.9l0,0.4c0,0.4,0.3,0.6,0.5,0.9c0.2,0.5,0.4,1,0.8,1.3c0.2,0.6,0.9,1,1.2,1.6
							c0.5,0.7,0.9,1.4,1.3,2.1c0.2,0.3,0.5,0.5,0.6,0.8c0.8,1.1,1.9,1.9,2.6,3c1,1.3,2.3,2.2,3.3,3.4c0.8,0.7,1.6,1.4,2.2,2.3
							c0.2,0.3,0.5,0.5,0.7,0.8c0.1,0.3,0.2,0.6,0.5,0.7c0.3,0.3,0.8,0.1,1.2,0.2c0.2-0.1,0.3-0.3,0.4-0.5c0-0.4,0.5-0.6,0.8-0.8
							c0.4-0.3,0.9,0.1,1.2-0.2c0-0.1,0-0.3,0-0.4c0-0.1,0.2-0.2,0.1-0.4c-0.1-0.2-0.3-0.3-0.3-0.5c0.1-0.2,0-0.4,0-0.6
							c0.1-0.2,0.4-0.3,0.6-0.4c0.4,0.3,0.9,0,1.4,0.2c0.3,0,0.4,0.3,0.7,0.2c0.2-0.2,0.5-0.2,0.7-0.4c0.2-0.2,0-0.5,0-0.7
							c0-0.3-0.2-0.6-0.2-0.9c0-0.6,0.7-0.6,0.8-1.1C31.4,74.4,31,74.1,31.1,73.7L31.1,73.7z M15.7,66.7c-0.5,0-1-0.4-1.5-0.5
							c-0.5-0.3-0.8-0.8-1.2-1.2c-0.1-0.2-0.1-0.5-0.2-0.7c0.1-0.5-0.2-0.9-0.1-1.3c0-0.1,0.1-0.3,0.2-0.3c0.2-0.1,0.3,0.1,0.5,0.2
							c0.2,0.3,0.1,0.7,0.2,1c0.1,0.6,0.4,1.2,0.9,1.6c0.5,0.1,0.8,0.6,1.4,0.4c0.5-0.1,0.6-0.6,0.8-1c0-0.9-0.3-1.7-0.4-2.5
							c-0.1-0.2-0.2-0.5-0.1-0.7c0-0.1,0.2-0.2,0.3-0.2c0.1,0,0.3,0,0.4,0.1c0.2,0.3,0.2,0.7,0.3,1c0.2,0.7,0.8,1.4,1.5,1.8
							c0.5,0.2,1.2,0.2,1.7,0c0.3-0.3,0.3-0.8,0.3-1.2c-0.1-1-0.3-2-0.6-2.8c-0.1-0.3-0.3-0.6-0.5-0.9c0-0.1,0-0.3,0.1-0.3
							c0.2,0,0.3,0,0.4,0.2c0,0.1,0,0.1,0,0.2c0.1,0.3,0.2,0.6,0.4,0.9c0.3,1.4,1,2.7,0.6,4.2c-0.1,0.3-0.4,0.5-0.6,0.5
							c-0.7,0-1.5,0.2-2.1-0.2c-0.3-0.3-0.6-0.6-0.9-0.7l0,0c0.2,0.5,0.1,1.1-0.2,1.6C16.9,66.3,16.3,66.6,15.7,66.7L15.7,66.7z
							 M25.5,71.4c-0.2,0.4-0.2,1-0.7,1.2c-0.6,0-1.1-0.2-1.6-0.3c-0.3-0.1-0.5-0.5-0.9-0.5l-0.1,0.1c0.1,0.7,0.4,1.5,0.1,2.2
							c-0.2,0.3-0.6,0.3-0.8,0.6c-0.3,0.1-0.6-0.1-0.9,0c-0.4-0.2-0.8-0.4-1.3-0.5c-0.7-0.5-1-1.4-1.4-2.1l-0.3-0.7
							c-0.2-0.5-0.6-0.8-0.5-1.4c-0.1-0.2-0.4-0.4-0.2-0.7c0.1-0.2,0.4-0.4,0.6-0.3c0.4,0.4,0.4,0.9,0.7,1.4c0.4,0.7,0.5,1.5,1,2.2
							c0.2,0.4,0.6,0.7,1,1c0.2,0.1,0.5,0.1,0.7,0c0.2,0,0.3-0.1,0.4-0.3c0-0.8,0-1.5-0.1-2.3c0-0.3-0.5-0.6-0.2-0.9
							c0-0.3-0.3-0.6,0-0.8c0.1-0.1,0.3-0.2,0.4-0.2c0.4,0.2,0.5,0.7,0.8,1c0.4,0.6,1,0.7,1.4,1.2c0.2,0.1,0.5,0.1,0.7,0.2
							c0.2,0,0.2-0.2,0.2-0.3c0-0.2-0.1-0.3-0.2-0.5c-0.2-0.6-0.1-1.4-0.4-2c-0.2-0.6-0.4-1.3-0.7-1.9c-0.1-0.2-0.2-0.5,0-0.7
							c0.3-0.5,0.6,0,0.9,0.1c0.3,0.3,0.3,0.8,0.5,1.2c0.1,0.2,0.2,0.4,0.2,0.5l0,0c-0.1,0.3,0.1,0.4,0.2,0.7
							C25.2,69.4,25.6,70.4,25.5,71.4L25.5,71.4z"/>
						<path id="Shape_102_" fill="#140F10" d="M29.7,4.6c-0.1-0.1-0.3-0.3-0.3-0.4C29.3,4,29,3.9,28.8,3.9c-0.2-0.2-0.5-0.3-0.7-0.5
							c-0.3,0-0.5-0.3-0.8-0.4c-0.3-0.2-0.6-0.3-1-0.2c-0.1-0.1-0.3-0.2-0.4-0.3c-0.1,0.1-0.3,0-0.4,0c-0.3-0.3-0.7-0.1-1-0.3
							c-0.5,0-0.8-0.3-1.3-0.4c-0.5-0.2-1.1-0.1-1.7-0.3c-1-0.4-2-0.4-3.1-0.5c-0.6-0.1-1.2-0.1-1.8-0.1c-0.3-0.1-0.7,0-1-0.2
							c-0.9,0-1.7-0.2-2.6-0.2c-0.1,0-0.3,0-0.5,0c-0.2,0-0.3-0.2-0.4-0.4c-0.3-0.1-0.4,0.2-0.7,0.2c-0.1,0-0.3,0-0.4,0
							c-0.4-0.1-0.7,0-1.1,0c-0.2-0.1-0.4,0-0.6,0c-0.3,0.1-0.7-0.1-1,0C8,0.5,7.7,0.4,7.5,0.3c-0.2,0.1-0.3,0-0.5,0
							c-0.1,0-0.1,0.1-0.2,0.2c-0.1,0-0.2,0.2-0.4,0.1c-0.3,0.1-0.7-0.1-1,0c-0.2,0-0.5-0.3-0.7,0c-0.1,0.1-0.2,0-0.3-0.1
							C4.4,0.6,4.2,0.7,4.2,0.8C3.9,0.9,3.7,1.3,3.3,1.2C3.1,1.3,3.2,1.4,3.1,1.6C3,1.6,2.9,1.6,2.8,1.6c0,0.1-0.1,0.1-0.1,0.2
							c0.2,0.2-0.1,0.3-0.2,0.5C2.4,2.6,2.6,2.7,2.7,2.9c0,0.1,0.2,0.2,0.2,0.4C3,3.4,3.1,3.7,3.2,3.9c0,0.1,0.1,0.2,0.2,0.1
							C3.6,3.9,3.7,4,3.9,3.8c0.1,0,0.3,0,0.4,0.1c0.5-0.1,1-0.1,1.5-0.1c0.2-0.2,0.5-0.1,0.7-0.1c0.1,0,0.1,0.1,0.2,0.1
							c0.2,0,0.5-0.1,0.7-0.1C8,3.4,8.6,3.5,9.3,3.5c0.2,0.1,0.4,0,0.5,0.1c0.2-0.1,0.4,0,0.6,0c0.2-0.2,0.5-0.1,0.7-0.1
							c0.3,0,0.7,0,1,0.1c0-0.1,0.1-0.2,0.2-0.2c0.2-0.1,0.3,0.1,0.4,0.2c0.1,0,0.2,0,0.3,0c0.3,0.2,0.7,0,1.1,0.2
							c0.6,0.1,1.3,0.1,2,0.1c0.8,0,1.4,0.3,2.2,0.4c0.7,0.2,1.4,0.2,2,0.4c0.6,0,1.2,0.2,1.8,0.3C22.3,5,22.5,4.9,22.7,5
							c0.2-0.1,0.3,0.1,0.4,0.1c0.1,0,0.3,0.2,0.4,0.2c0.3-0.1,0.4,0.3,0.7,0.2c0.3,0.2,0.6,0.3,0.9,0.5c0.2-0.1,0.4,0,0.6,0
							c0.1,0,0.2,0.2,0.4,0.1c0.3,0.2,0.7,0,0.9,0.4c0.2,0.1,0.3-0.1,0.5-0.1c0.2,0,0.3-0.3,0.5-0.4c0.3,0.1,0.5-0.1,0.8,0
							c0.3,0,0.4-0.3,0.6-0.4c0-0.2,0.3-0.3,0.4-0.5C29.7,5,29.7,4.8,29.7,4.6"/>
						<path id="Shape_101_" fill="#140F10" d="M3.8,17.4c0-0.3-0.4-0.3-0.5-0.6c-0.2-0.1-0.2-0.4-0.5-0.5c-0.1-0.1-0.2-0.2-0.4-0.3
							c-0.2-0.1-0.4-0.3-0.7-0.3c-0.3,0-0.3-0.4-0.4-0.6c0-0.3-0.2-0.4-0.4-0.6c-0.1-0.2-0.1-0.3-0.2-0.5c0-0.2-0.1-0.3,0-0.5
							c0.1-0.2-0.1-0.4,0.1-0.5c0-0.2,0.1-0.4,0.2-0.6c0.2-0.2,0.1-0.5,0.2-0.7c0-0.1,0-0.2,0-0.3c0.1-0.2,0-0.4,0.1-0.5
							c0.1-0.1,0-0.3,0.1-0.4c0-0.2,0.2-0.3,0.1-0.5C1.8,10,1.7,9.7,1.8,9.5c0.2-0.1,0.3-0.6,0.4-0.8c0-0.3,0.2-0.1,0.3-1l0,0v0.2
							c0.1-0.1,0.1-0.2,0.2-0.3c0-0.3,0.2-0.5,0.3-0.7c0.1-0.2-0.2-0.2,0-0.4c0-0.1-0.1-0.1-0.2-0.2c-0.1-0.1,0-0.2,0-0.3
							c0-0.2,0.1-0.4,0.1-0.5c0-0.1-0.2-0.1-0.3-0.1C2.3,5.5,2.2,5.7,2.1,6C2.1,6.1,2,6.1,2,6.3C1.9,6.4,1.9,6.7,1.7,6.8
							c0,0.1,0,0.1,0,0.2c0,0.2-0.2,0.4-0.2,0.6c0,0.2-0.1,0.3-0.1,0.5C1.2,8.4,1.1,8.6,1.1,8.8C0.9,9,1,9.3,0.8,9.5
							c0,0.2-0.2,0.2-0.2,0.4c-0.1,0.2-0.1,0.4-0.2,0.6c-0.1,0.1-0.1,0.2-0.1,0.4c0,0.1-0.1,0.2-0.1,0.4c0,0.1-0.2,0.2-0.1,0.4
							C0,11.8,0.1,12,0,12.1l0,1.5l0,0.1c0,0.2,0,0.3,0.1,0.5c0,0.1,0,0.3,0.1,0.4c0,0.2,0.1,0.3,0.2,0.4c0,0.1,0,0.1,0,0.2
							c0.1,0.2,0.2,0.3,0.3,0.6C1,16,1.3,16.2,1.5,16.5c0.1,0.1,0.3,0.3,0.4,0.4c0.3,0.2,0.6,0.5,0.8,0.7c0,0.1,0.2,0.2,0.2,0.3
							c0.2,0.1,0.3,0.3,0.5,0.4c0.1,0,0.2,0.2,0.3,0.1c0.2,0,0.4,0,0.5,0c0.1,0,0.2-0.1,0.3-0.3C4.6,17.7,4.1,17.7,3.8,17.4"/>
						<path id="Shape_100_" fill="#140F10" d="M50.1,8.7c-0.1-0.2,0.2-0.3,0.1-0.5l-0.4-0.5c0-0.1,0-0.2-0.1-0.2
							c-0.1,0-0.3,0-0.4,0.1c-0.3,0.1-0.4-0.3-0.6-0.4c-0.2,0-0.5,0-0.7-0.1c-0.2-0.1-0.3,0.2-0.6,0L47.4,7c-0.2,0-0.3,0.2-0.4,0.3
							c-0.2,0.1-0.3-0.1-0.4-0.1c-0.1,0-0.3,0-0.4-0.1C46,7,45.9,7.2,45.7,7.2c-0.2,0.1-0.3-0.1-0.5,0c-0.3,0.1-0.7,0.1-1.1,0.1
							c-0.2,0.1-0.3,0.3-0.5,0.2c-0.5,0-1,0.2-1.6,0.2c-0.4,0.1-0.8,0-1.1,0.2c-0.7,0.1-1.4,0-2.1,0.2c-0.2,0-0.5,0.4-0.7,0.1
							l-0.2,0.1c-0.2,0.1-0.3-0.1-0.5-0.2c-0.1,0-0.3,0-0.4,0c-0.3-0.3-0.7-0.2-1-0.2c-0.2,0-0.3,0.1-0.5,0.1
							c-0.1,0.1-0.1,0.3-0.3,0.4c-0.3-0.1-0.5,0.1-0.9,0.1c-0.1,0-0.2,0.2-0.3,0.1c-0.2,0-0.3,0.2-0.5,0.2C33.3,9,33,8.8,32.8,8.9
							C32.5,9,32.1,8.6,31.9,9c-0.2,0.3-0.5,0.1-0.8,0.1c-0.2,0.1-0.6,0.2-0.8,0.1c-0.1,0.1-0.4,0.1-0.3,0.4c0,0.1-0.1,0.2-0.2,0.2
							c-0.4,0-0.8,0.1-1.2,0.2c-0.3-0.1-0.6,0.2-0.9,0.3c-0.6,0.1-1.1,0.4-1.7,0.4l-0.4,0.2c-0.5,0.2-1.1,0.2-1.6,0.5
							c-0.7,0.1-1.3,0.3-2,0.6c-0.1,0.1-0.3,0.2-0.4,0.3c-0.3,0-0.4,0.2-0.7,0.3c-0.2,0.2-0.5,0.2-0.7,0.3c-0.1,0-0.2,0.1-0.1,0.2
							c-0.1,0.1-0.2,0.2-0.3,0.1c-0.2,0.2-0.6,0.1-0.8,0.5c0,0.1-0.2,0.2-0.2,0.4c0,0.1-0.2,0.1-0.3,0.1c-0.2,0.1-0.4-0.1-0.6,0.1
							c-0.1,0.3-0.4,0.4-0.6,0.4c-0.1,0-0.1,0-0.1,0c0,0-0.1,0-0.1,0c-0.2,0-0.2,0.2-0.3,0.2c-0.2,0-0.4,0.1-0.5,0.2
							c-0.5,0.4-1.1,0.6-1.5,1.1c0,0.2-0.3,0.1-0.3,0.3c-0.2,0.1-0.3,0.3-0.4,0.4c-0.2,0.1-0.3,0.2-0.4,0.3c0,0.1-0.1,0.2-0.1,0.3
							c0,0.1-0.2,0.2-0.3,0.3c-0.1,0.2-0.3,0.3-0.4,0.5c-0.1,0.3-0.3,0.6-0.5,0.9l0,0.4c0,0,0.1,0.1,0.1,0.2c-0.1,0.1,0,0.2,0,0.3
							c0,0,0,0.1,0,0.2c0,0.1,0,0.3,0.1,0.5c0.1,0.3,0.2,0.5,0.3,0.8c0.1,0.1,0.1,0.3,0.1,0.4c0.1,0.1,0,0.3,0,0.4
							c-0.2,0.2-0.3,0.5-0.5,0.7c-0.1,0.1-0.1,0.2-0.2,0.3c-0.3,0.1-0.5,0.4-0.7,0.6c0,0.1,0.1,0.2,0.2,0.3c0.1,0,0.2,0,0.3-0.1
							c0.1-0.1,0.3-0.3,0.5-0.4c0.1-0.2,0.4-0.1,0.5-0.3c0.1-0.1,0.2,0,0.3-0.2c0.3-0.1,0.4-0.3,0.6-0.5c0-0.2,0.1-0.3,0.2-0.4
							c0-0.1,0-0.2,0-0.3c0-0.1-0.1-0.1-0.1-0.2c0.1-0.2-0.1-0.2-0.1-0.4c-0.1-0.1,0-0.2-0.1-0.3c0-0.2-0.2-0.3-0.1-0.5
							c-0.1-0.1-0.1-0.2-0.1-0.3c0-0.1,0-0.2,0-0.3c-0.1-0.2,0-0.3,0.1-0.5c0-0.4,0.3-0.7,0.3-1.1l0.3-0.4c0.2-0.3,0.6-0.2,0.8-0.6
							c0.2,0,0.2-0.3,0.4-0.4c0,0,0.1-0.1,0.1-0.1c0.1,0.1,0.1,0.2,0.2,0.2c0.2,0.3,0.7,0.2,0.9,0.6c0.2,0,0.5,0.2,0.6,0.5
							c0.1,0.3,0.4,0.3,0.7,0.5c0.1,0.1,0.1,0.2,0.2,0.2c0.3,0.1,0.2,0.4,0.4,0.6c-0.1,0.2,0.2,0.3,0.2,0.4c0.3,0.2,0.5,0.4,0.9,0.4
							c0.1,0,0.2,0,0.3,0c0.1,0.3,0.5,0.2,0.6,0.6c0.1,0.1,0.3,0.3,0.5,0.3c0.5-0.1,0.8,0.3,1.2,0.1c0.2,0,0.5,0.2,0.7,0.1
							c0.2,0.1,0.4,0.1,0.6,0.1c0.3,0.3,0.6-0.1,0.9-0.1c0.3,0.1,0.5-0.1,0.7-0.1c0.3-0.1,0.5,0.3,0.8,0.1c0.1,0,0.2,0,0.2,0
							c0-0.1-0.1-0.1-0.1-0.2c0-0.1,0-0.1,0-0.2c0.5-0.2,1-0.2,1.5-0.5c0.5-0.4,1.1-0.2,1.6-0.6c0.5,0,0.8-0.2,1.3-0.4
							c0.3-0.2,0.7-0.2,1.1-0.4c0.5-0.1,0.9-0.4,1.5-0.4c0.4-0.3,0.9-0.4,1.4-0.5c0.3-0.1,0.7,0,0.9-0.1c0.6-0.3,1.5,0,2-0.4
							c0.3-0.2,0.8-0.1,1.2-0.2c0.4,0,0.6-0.2,1-0.2c0.4,0.1,0.7-0.1,1.1-0.2c0.3,0,0.6-0.3,0.9-0.3l0.3-0.4c0-0.3,0.2-0.5,0.4-0.7
							c0-0.2,0.2-0.5,0.4-0.5c0.1,0,0.2,0,0.3,0c0.2-0.2,0.4-0.3,0.7-0.4c0.3-0.1,0.4-0.4,0.7-0.5c0.3,0,0.5-0.4,0.8-0.4
							c0.3,0,0.5-0.2,0.9-0.1c0.1,0.1,0.2-0.1,0.3-0.1c0.1-0.1,0.2-0.1,0.4-0.1c0.1-0.1,0.2-0.2,0.2-0.3c0-0.2,0.3-0.3,0.1-0.5
							c0-0.1,0-0.2,0-0.3c0-0.2,0.2-0.4,0.1-0.6c0-0.1,0.2-0.2,0.3-0.2c0.2-0.1,0.4,0.2,0.6,0c0.1-0.2-0.1-0.3-0.2-0.4
							c-0.2-0.1,0.1-0.3-0.1-0.5c0.1-0.3,0.4-0.3,0.6-0.5c0.3-0.2,0.8-0.1,1.2-0.1c0.1,0,0.1-0.1,0.1-0.2c0.1-0.2,0.2-0.4,0.2-0.7
							c-0.1-0.3,0.2-0.4,0.4-0.5l0-0.2L50.1,8.7"/>
						<path id="Shape_99_" fill="#140F10" d="M5.6,25.6c0.1,0.1,0,0.2,0,0.3c0,0,0,0.1,0,0.1c-0.1,0-0.2,0-0.3,0.1
							c-0.1,0.1-0.2,0.4-0.4,0.4c-0.1,0.1-0.1,0.2-0.2,0.3c-0.1,0.2-0.2,0.4-0.2,0.7c-0.2,0.3,0,0.6-0.1,0.9c0,0.2,0.1,0.3,0,0.5
							c0.1,0.1,0.2,0.2,0.2,0.4c0.1,0.1,0.2,0.1,0.3,0.2l0.3,0c0.2,0.2,0.5,0.2,0.7,0.2c0.2-0.1,0.4-0.2,0.6-0.3
							c0.1,0,0.1-0.3,0.3-0.2c0.2,0,0.3-0.2,0.5-0.2c0.2-0.1,0.4-0.2,0.5-0.3c0.1-0.1,0.2-0.2,0.3-0.3c0.1-0.1,0.2-0.4,0.4-0.4
							c0,0,0.1-0.1,0.2,0C8.8,28.2,9,28,9,28.2c0.1,0.1,0.1,0.1,0.1,0.2C9,28.5,9,28.7,8.9,28.8c-0.1,0.4,0.1,0.7,0.2,1
							c0.2,0.2,0.2,0.5,0.4,0.5c0.2,0,0.4,0.1,0.5,0.2c0.2,0,0.3,0.3,0.5,0.3c0.1,0,0.2,0.1,0.3,0.1c0.2,0.1,0.5,0,0.7-0.1
							c0.6-0.2,1.1-0.6,1.3-1.2c0.1-0.1,0.2-0.1,0.3-0.2c0.1,0,0.3,0.1,0.4,0.2c0.1,0.2,0,0.3,0,0.5c-0.1,0.1-0.1,0.2-0.2,0.3
							c0,0.2-0.3,0.2-0.4,0.4c0,0-0.1,0-0.1,0.1c0,0.2-0.2,0.2-0.3,0.3c-0.2,0-0.3,0.2-0.5,0.2c-0.1,0.1-0.3,0.1-0.5,0.2
							c-0.4,0-0.8,0.2-1.2,0c-0.2,0.1-0.4-0.1-0.6-0.1c-0.2-0.1-0.5-0.1-0.6-0.3c-0.2-0.1-0.4-0.4-0.6-0.5c0,0-0.1-0.1-0.1-0.2
							c-0.2-0.2-0.2-0.5-0.4-0.6c-0.2,0-0.3,0.1-0.5,0.1c-0.2,0.1-0.3,0.3-0.6,0.3c-0.2,0.2-0.5,0.1-0.7,0.3c-0.3,0.1-0.6,0.1-1,0.1
							c-0.2,0.1-0.5,0-0.7-0.1c0-0.1-0.2-0.1-0.2-0.2c-0.3-0.2-0.5-0.5-0.7-0.9c0-0.1-0.1-0.2-0.1-0.4c-0.1-0.3-0.2-0.6-0.2-0.9
							c-0.1-0.2-0.1-0.5,0.1-0.6c0-0.1,0.1-0.1,0.1-0.2c0-0.2,0.1-0.4,0.1-0.6c0.1-0.1,0.3-0.3,0.3-0.5c0.2-0.2,0.4-0.5,0.7-0.5
							c0.1-0.1,0.2-0.3,0.3-0.2C5.3,25.5,5.5,25.5,5.6,25.6"/>
						<path id="Shape_98_" fill="#140F10" d="M37.9,32.1c0-0.1,0.1-0.3,0-0.4c0-0.3,0-0.6-0.1-0.8c0.3-0.4-0.3-0.6-0.2-1
							c-0.1-0.2-0.1-0.5-0.4-0.6c-0.1-0.4-0.6-0.4-0.7-0.8c-0.3-0.2-0.6-0.3-0.9-0.4c-0.3,0-0.5-0.2-0.8-0.1c0,0.1-0.2,0.2-0.2,0.3
							c0.2,0.2,0.6,0.1,0.8,0.3c0.3,0,0.5,0.1,0.7,0.3c0.2,0.1,0.3,0.4,0.6,0.4c0.4,0.1,0.4,0.5,0.5,0.8c0,0.2-0.2,0.1-0.3,0.2
							c-0.1,0.2,0.2,0.3,0.3,0.4c0.2,0.2,0.4,0.5,0.3,0.8c0.1,0.2,0,0.4-0.1,0.6c-0.2,0-0.1,0.2-0.2,0.3c-0.3-0.1-0.4-0.4-0.6-0.6
							c-0.1-0.2,0-0.3,0-0.5c-0.1-0.1-0.1-0.2-0.2-0.3c-0.4-0.1-0.4-0.5-0.7-0.7c-0.1-0.2-0.4-0.3-0.4-0.5c0-0.1-0.2-0.1-0.2-0.2
							c-0.2,0.1-0.5,0-0.7-0.2c-0.2-0.5-0.8-0.3-1.1-0.6c-0.3,0-0.5-0.2-0.8-0.1c-0.1-0.1-0.2-0.1-0.4-0.2c-0.3,0.1-0.6-0.1-0.9-0.1
							c-0.1,0-0.2-0.1-0.3-0.1c-0.2-0.1-0.5,0-0.7,0c-0.1,0.1-0.3,0.1-0.4,0.1c-0.1-0.1-0.3-0.1-0.5-0.2c-0.2,0-0.5-0.1-0.7-0.1
							c-0.3,0.2-0.5,0-0.8,0.1l-0.2-0.2c-0.2,0-0.4-0.1-0.5-0.1c-0.1-0.1-0.2-0.2-0.4-0.2c-0.2,0.1-0.5,0.1-0.6-0.1
							c-0.2,0-0.2-0.2-0.4-0.2c-0.2,0-0.5,0-0.7,0l-0.1,0.1c-0.1,0.2,0,0.5,0,0.8c0.1,0.2,0.3,0.3,0.5,0.4c0.1,0,0.2,0.1,0.2,0.2
							c0,0.2-0.2,0.3-0.4,0.4c-0.2,0.1-0.4-0.2-0.6-0.2c-0.2-0.2-0.5,0-0.7-0.1c-0.1,0.1-0.3,0-0.5,0c-0.3,0.1-0.6,0.2-0.8,0.4
							c-0.2,0-0.3,0.2-0.5,0.1c-0.4,0-0.3,0.6-0.7,0.5c-0.4,0.2-0.6,0.7-0.7,1.1c-0.1,0.2-0.4,0.4-0.4,0.7c0.1,0.4-0.3,0.5-0.5,0.8
							c0,0.1-0.1,0.3,0,0.4c0,0.2,0.1,0.4-0.1,0.5c-0.1,0-0.2,0-0.2,0c0-0.1-0.1-0.1-0.1-0.2c0.2-0.2-0.1-0.5,0-0.7
							c-0.1-0.2,0.1-0.3,0.1-0.5c0-0.1,0-0.3-0.2-0.2c-0.2,0.2-0.2,0.5-0.2,0.7c-0.2,0.3,0,0.6-0.2,0.9c0.1,0.2,0,0.5,0.2,0.7
							c0.1,0.2-0.1,0.3,0,0.5c-0.2,0.3,0.2,0.4,0.1,0.7c0.1,0.3,0.1,0.5,0.1,0.8c0.2,0.2,0,0.5,0.2,0.7c0.1,0.1,0,0.2,0,0.3l0.3,0.3
							c0,0.5,0.5,0.8,0.5,1.3c0,0.1,0,0.2,0,0.2c0.2,0.2,0.3,0.4,0.4,0.6c-0.1,0.2,0.1,0.3,0,0.4c0.3,0.3,0.3,0.8,0.5,1.2
							c0.2,0.3,0.3,0.5,0.4,0.8c0.3,0.7,0.9,1.3,1.5,1.9c0.3,0.2,0.7,0.5,1,0.7c0.6,0.4,1.2,0.7,2,0.8c0.5,0,1,0.2,1.5,0.3
							c0.2,0.2,0.5,0.4,0.8,0.6c0.1,0,0.3,0,0.5-0.1c0-0.1,0-0.1,0-0.2c0.1-0.2,0.4-0.1,0.6-0.2c0.1,0.1,0.3,0,0.4,0
							c0.3,0.2,0.6,0,0.8,0c0.1-0.1,0.3-0.2,0.4-0.1l0.5-0.2c0.1-0.1,0.3,0,0.4-0.2c0.3,0,0.6-0.2,0.9-0.4c0.5-0.5,1.2-0.6,1.7-1
							c0.5-0.5,1-0.9,1.5-1.3c0.2-0.2,0.4-0.4,0.5-0.6c0.1-0.2,0-0.5,0.2-0.6c0.3-0.2,0.3-0.6,0.5-0.9c0.1-0.2-0.1-0.4-0.2-0.5
							c0.1-0.1,0-0.4,0.1-0.5c0-0.1-0.2-0.1-0.1-0.3c0-0.1,0.2-0.1,0.3-0.2c0-0.6,0.5-1,0.6-1.5c0-0.1-0.1-0.3,0-0.4
							c0-0.2,0.2-0.4,0.1-0.7c0-0.1,0.2-0.2,0.2-0.3c-0.1-0.2,0.1-0.4-0.1-0.5c-0.1-0.2,0-0.3,0.1-0.4c-0.1-0.1,0-0.2,0-0.3
							c-0.1-0.2,0.2-0.4,0-0.6c0.1-0.3-0.3-0.3-0.4-0.5c0-0.3-0.1-0.5-0.1-0.8c0-0.1,0.2-0.1,0.3-0.2c0.2-0.1,0.1,0.3,0.4,0.2
							c0.1-0.1-0.1-0.1,0-0.2C37.8,32.2,37.8,32.2,37.9,32.1"/>
						<path id="Shape_97_" fill="#140F10" d="M19.4,27c0.2,0,0.4,0,0.5,0c0.2,0,0.3,0,0.5,0c0.2,0,0.3,0.1,0.5,0.1
							c0.2,0.1,0.4,0,0.6,0.1c0.1,0,0.2,0.1,0.3,0.1c0.1,0.1,0.2,0.1,0.3,0c0.1,0,0.2,0,0.3,0.1c0.2,0,0.3-0.2,0.6-0.1
							c0.2,0,0.3,0.1,0.5,0.1c0.2,0,0.1-0.2,0.1-0.3c0-0.1-0.1-0.2-0.2-0.3c-0.1,0-0.2-0.1-0.3-0.1c-0.3-0.1-0.5-0.3-0.8-0.4
							c-0.4,0-0.9,0-1.3-0.2c-0.1,0-0.2,0-0.2,0c-0.3-0.1-0.7-0.1-1-0.1c-0.1,0.1-0.3,0-0.4,0c-0.2-0.1-0.4,0-0.6,0
							c-0.1,0-0.3,0-0.4,0c-0.1,0-0.2,0.1-0.3,0c-0.2,0-0.5,0-0.7,0.3c0,0.2-0.1,0.3-0.1,0.5c0.1,0.1,0.1,0.2,0.2,0.3
							c0.2,0.1,0.5,0,0.7-0.1C18.6,27,19,26.9,19.4,27"/>
						<polyline id="Shape_96_" fill="#140F10" points="7.8,38.1 7.5,39.1 7.8,39.5 8.4,39.1 8.5,38.1 8.1,38 						"/>
						<path id="Shape_94_" fill="#140F10" d="M56.6,39.1c0.1,0.2,0.1,0.5,0.4,0.5c0.1,0.1,0.2,0,0.4,0c0.1-0.1,0.2,0,0.3-0.1
							c0,0,0-0.1,0-0.2c0-0.3-0.1-0.5-0.1-0.9c-0.2-0.3,0.2-0.5,0.1-0.9c-0.1-0.2-0.4-0.3-0.7-0.3c-0.2,0-0.3,0.2-0.4,0.4
							C56.6,38.2,56.5,38.7,56.6,39.1"/>
						<path id="Shape_93_" fill="#140F10" d="M66.3,40c0.3-0.5,0.8-0.7,1.3-0.6l0.1,0.1c0.1,0.1,0.2,0.2,0.1,0.4
							c0,0.4-0.4,0.5-0.7,0.6c-0.3,0.1-0.7,0.2-1,0.1C66,40.5,66.2,40.3,66.3,40L66.3,40L66.3,40z M69,45.6c-0.1-0.2,0-0.4,0-0.5
							c-0.2-0.2-0.1-0.6-0.4-0.7c-0.1-0.2-0.2-0.4-0.5-0.4c-0.3-0.3-0.8-0.2-1.1-0.6c-0.2-0.4-0.6-0.7-0.7-1.2
							c0-0.2-0.2-0.4-0.1-0.5c0.2-0.1,0.5-0.1,0.8-0.2c0.3-0.2,0.7-0.2,1-0.5c0.2-0.1,0.5-0.3,0.6-0.6c0-0.3,0.2-0.6,0-0.9
							c-0.3-0.5-0.8-0.7-1.3-0.7c-0.5,0-0.9,0.2-1.3,0.5c-0.3,0.2-0.6,0.5-0.8,0.9c0,0.1-0.1,0.3-0.1,0.4c-0.1,0.2,0,0.4-0.1,0.6
							c0,0.6,0.1,1.2,0.4,1.7c0.3,0.5,0.7,1.2,1.3,1.5c0.1,0.1,0.1,0.2,0.2,0.3c0.1,0.3,0.5,0.3,0.7,0.5c0.2,0.3,0.4,0.6,0.4,1
							c-0.1,0.3-0.3,0.6-0.6,0.6c0,0.1-0.1,0.1-0.1,0.2c0,0.1,0.2,0.1,0.3,0.2c0.5,0,1-0.5,1.2-1C68.9,46,69,45.8,69,45.6L69,45.6z"
							/>
						<path id="Shape_92_" fill="#140F10" d="M63.3,39.8c0.1,0.6,0,1.2-0.1,1.8c0,0.4,0,0.7-0.1,1.1c0,0.3,0,0.6,0.1,0.9
							c0.1,0.1,0.3,0,0.5,0c0.2-0.1,0.4-0.2,0.5-0.4C64.1,43,64,42.7,64,42.5c0.1-0.8,0.2-1.7,0.2-2.4c0-0.1,0.1-0.2,0.1-0.3
							c-0.2-0.2-0.4-0.3-0.7-0.3C63.5,39.5,63.3,39.6,63.3,39.8"/>
						<path id="Shape_91_" fill="#140F10" d="M61.1,41.2c-0.1-0.3-0.4-0.6-0.5-0.9c0.3-0.4,0.9,0,1.3-0.4c0,0,0.2,0,0.2-0.1
							c-0.3-0.5-1-0.4-1.4-0.2c-0.4,0.2-0.8,0.3-1,0.7c0,0.3,0.1,0.6,0.3,0.9c0.3,0.7,0.8,1.4,1.1,2.1c0.2,0.6,0.5,1.2,0.3,1.9
							c-0.1,0.1-0.2,0.3-0.4,0.4c-0.1,0-0.2,0-0.2,0c0,0-0.1,0-0.2,0c0,0.2-0.4,0.3-0.2,0.5c0.1,0.3,0.4,0.2,0.7,0.2
							c0.4-0.2,0.8-0.5,1.1-0.9c0.3-0.4,0.3-1.1,0.2-1.6C62.1,42.8,61.5,42.1,61.1,41.2"/>
						<path id="Shape_90_" fill="#140F10" d="M50.8,46.3c-0.1-1.1-0.2-2.3-0.8-3.2c0-0.1-0.2-0.2-0.3-0.2c-0.2,0-0.5-0.1-0.6,0.1
							c-0.2,0.5-0.6,0.9-0.7,1.4c-0.2,0.2-0.2,0.5-0.3,0.8c0,0-0.1,0-0.1,0c0-0.9-0.1-1.9-0.2-2.8c0-0.2-0.1-0.5,0.1-0.6
							c-0.1,0-0.1-0.1-0.1-0.2c-0.3-0.2-0.7-0.1-0.9,0.1c0,1.6,0.2,3.3,0.4,4.9c0,0.9,0.3,1.8,0.3,2.7c0,0.1,0.1,0.2,0.2,0.2
							c0.2,0.1,0.4-0.1,0.6-0.2c0.1-0.2,0.3-0.2,0.2-0.4c-0.3-0.5-0.1-1-0.2-1.6c0.1-1,0.4-2,0.7-2.9c0-0.1,0-0.2,0.1-0.2
							c0.2,0.1,0.2,0.4,0.3,0.7c0.1,0.6,0.2,1.1,0.2,1.7c0.1,0.6,0.1,1.3,0.2,1.9c0.1,0.2,0,0.5,0.2,0.7c0.3,0.1,0.5-0.2,0.7-0.3
							c0-0.1,0.2-0.1,0.2-0.3C50.8,47.8,50.9,47,50.8,46.3"/>
						<path id="Shape_89_" fill="#140F10" d="M57.9,49c-0.2-1.1-0.1-2.3-0.2-3.5c0-0.3,0-0.6-0.1-0.9c0-0.8-0.1-1.6-0.1-2.4
							l-0.1-0.1c-0.2-0.1-0.5-0.3-0.7,0c-0.1,0.1-0.2,0.3-0.2,0.5c0.2,0.3,0.1,0.7,0.2,1.1c0.1,1.2,0.1,2.5,0.2,3.8
							c0,0.8,0.2,1.5,0.1,2.3c0,0.1,0,0.3,0.2,0.3c0.2,0,0.5-0.1,0.6-0.3C58.1,49.7,57.8,49.2,57.9,49"/>
						<path id="Shape_88_" fill="#140F10" d="M54.5,46.8c-0.4,0.4-0.9,0.6-1.3,0.8c-0.2,0-0.5,0.1-0.7-0.1c-0.1-0.1-0.3-0.3-0.2-0.5
							c0.4-0.6,1-0.9,1.7-1.1c0.3-0.1,0.5,0.2,0.6,0.4C54.4,46.5,54.6,46.7,54.5,46.8L54.5,46.8L54.5,46.8z M55.7,45.9
							c-0.1-0.2-0.3-0.2-0.4-0.3c-0.1-0.8-0.4-1.5-0.8-2.2c-0.4-0.8-1.2-1.3-2.1-1.2c-0.2,0-0.3,0-0.5,0c-0.2,0.1-0.5,0.3-0.4,0.6
							c0,0.1,0.2,0.2,0.2,0.3c0.1,0,0.2,0,0.3,0c0.3,0,0.7,0.1,0.9,0.3c0.6,0.5,0.9,1.2,1.1,1.8c0,0.1,0.1,0.2,0,0.3
							c-0.3,0-0.7,0-1,0.1c-0.8,0.3-1.6,0.8-2,1.6c-0.2,0.4,0.1,0.6,0.3,0.9c0.5,0.3,1.1,0.3,1.7,0.2c1-0.4,1.9-1.1,2.5-2
							C55.8,46.1,55.7,46,55.7,45.9L55.7,45.9z"/>
						<path id="Shape_87_" fill="#140F10" d="M46.2,49.8c-0.2,0.1-0.4,0.1-0.6,0c-0.7-0.2-1.1-0.9-1.3-1.5c-0.3-1,0-2.1,0.7-2.8
							c0.2-0.2,0.5,0.1,0.8-0.1c0-0.2,0.2-0.1,0.3-0.3c-0.1-0.2-0.3-0.3-0.5-0.4c-0.8-0.2-1.3,0.6-1.7,1.1c-0.7,0.9-0.7,2.5-0.1,3.4
							c0.4,0.7,1.1,1.4,2,1.3c0.2,0,0.5-0.1,0.7-0.2c0.1-0.3,0.5-0.3,0.6-0.6l-0.3-0.3C46.4,49.3,46.4,49.7,46.2,49.8"/>
						<path id="Shape_86_" fill="#140F10" d="M39.6,53.5c-1.4-1-2.7-1.9-4-3.1l0-0.1c0.4-0.3,0.7-0.7,1.1-1c0.5-0.3,0.9-0.8,1.4-0.9
							c0.2-0.2,0.5-0.3,0.5-0.6c-0.1-0.2-0.4-0.3-0.6-0.2c-0.1,0.1-0.3,0.2-0.4,0.3c-0.6,0.4-1.1,0.8-1.6,1.2
							c-0.2,0.1-0.3,0.4-0.5,0.4c-0.1-0.1-0.1-0.3-0.1-0.4c0-0.4-0.1-0.7-0.2-1.1c-0.1-0.3-0.1-0.6-0.2-0.9c0-0.3,0-0.6,0-0.9
							l-0.1-0.1c-0.2,0-0.4-0.2-0.5,0c-0.2,0-0.3,0.2-0.3,0.4c0.1,0.3,0,0.6,0.1,0.9c0.1,0.9,0.3,1.8,0.5,2.6c0,0.2-0.2,0.4-0.2,0.6
							c0,0.3,0.5,0.3,0.5,0.6c0.2,1,0.5,1.9,0.7,2.9c0.1,0.3-0.1,0.8,0.4,0.9c0.1-0.1,0.4,0,0.4-0.2c0.2-0.2,0.3-0.4,0.3-0.6
							c-0.2-0.1-0.2-0.3-0.2-0.5c-0.3-0.5-0.3-1.1-0.5-1.6l0,0c0,0,0.1,0,0.1,0c1,0.8,2,1.4,2.9,2.4c0.3,0.1,0.5-0.2,0.7-0.4
							c0.1-0.1,0.1-0.2,0.1-0.4C39.7,53.6,39.6,53.6,39.6,53.5"/>
						<path id="Shape_85_" fill="#140F10" d="M41.2,49.9c-0.4,0.4-0.8,0.9-1.3,0.7c-0.4-0.2-0.7-0.6-0.7-1c0-0.6,0.5-1,0.9-1.4
							c0.1,0,0.3,0.1,0.4,0c0.2-0.2,0.4-0.2,0.6-0.3c0.4,0,0.7,0.4,0.9,0.7C41.9,49.1,41.5,49.5,41.2,49.9L41.2,49.9L41.2,49.9z
							 M40.8,47c-0.2,0-0.3,0.1-0.5,0.1c-0.3,0.2-0.6,0.3-0.8,0.6c-0.4,0.5-1,0.9-1.2,1.5c-0.1,0.4-0.1,0.9,0.1,1.2
							c0.2,0.5,0.8,0.9,1.4,0.9c0.4,0,0.7-0.2,1.1-0.4c0.8-0.6,1.5-1.4,2-2.3c0-0.3-0.1-0.6-0.3-0.9C42.1,47.3,41.5,47.1,40.8,47
							L40.8,47z"/>
						<path id="Shape_84_" fill="#140F10" d="M33.3,55c-0.1,0.4-0.6,0.2-0.9,0.3c-0.3,0.1-0.7,0-1,0c-0.7-0.1-1.5-0.6-1.8-1.4
							c0-0.5,0.5-0.7,0.9-0.9c0.4-0.1,0.9-0.4,1.2,0l0.2,0.1c0.1,0.1,0.3,0.2,0.4,0.1c0.2,0,0.4-0.3,0.6-0.2
							c0.2,0.4,0.2,0.9,0.4,1.3C33.3,54.5,33.4,54.8,33.3,55L33.3,55L33.3,55z M33.8,52.5c0-0.1,0-0.1,0.1-0.1c0,0-0.1-0.1-0.1-0.1
							c-0.2-0.5-0.4-1-0.8-1.4c-0.6-0.7-1.4-1.3-2.3-1.5c-0.7-0.1-1.3,0-1.8,0.5c-0.2,0.4-0.6,0.8-0.3,1.2c0.4,0.3,0.5-0.4,0.8-0.5
							c0-0.1,0-0.2,0.1-0.2c0.3-0.1,0.6-0.2,0.9-0.2c0.9,0.2,1.8,1,2.2,1.9c0,0,0,0.1-0.1,0.1c-0.5-0.1-1-0.1-1.5,0
							c-0.7,0.1-1.3,0.5-1.9,1c-0.2,0.4-0.5,0.7-0.4,1.2c0.2,0.6,0.8,1.1,1.4,1.4c1.1,0.4,2.5,0.2,3.7,0.2l0.2-0.1
							c0.1-0.3,0.7-0.5,0.4-0.8C34.2,54.1,34,53.3,33.8,52.5L33.8,52.5z"/>
						<path id="Shape_83_" fill="#140F10" d="M28.1,56.6c-0.5,0.1-1,0.1-1.5,0.1C26,56.8,25.3,57,24.7,57c-0.1,0-0.2-0.1-0.2-0.2
							c0.3-0.6,0.6-1.2,1.1-1.8c0.5-0.8,1.1-1.6,1.5-2.4c0.2-0.3,0.4-0.5,0.4-0.9l0-0.1c-0.2-0.1-0.5-0.3-0.8-0.1
							c-0.3,0-0.6,0.1-1,0.2c-0.7,0.2-1.4,0.6-2.1,0.7c-0.2,0.1-0.1,0.4-0.2,0.6c0.1,0.1,0,0.2,0.1,0.3c0.1,0.1,0.2,0.1,0.3,0.1
							c0.6-0.5,1.3-0.7,2-0.9c0.2,0,0.5-0.2,0.7,0c0,0.1,0,0.1,0,0.2c-0.8,1.3-1.7,2.5-2.5,3.8c-0.2,0.2-0.3,0.4-0.4,0.6
							c-0.1,0.2,0.1,0.4,0.1,0.5c0.3,0.3,0.7,0.3,1.1,0.3c0.7-0.1,1.5-0.2,2.2-0.4c0.4,0,0.8-0.1,1.2,0.1c0.2,0.1,0.3,0,0.4-0.1
							c0.1-0.2,0.4-0.2,0.4-0.5c0.1-0.2-0.1-0.3-0.2-0.5C28.5,56.2,28.3,56.5,28.1,56.6"/>
						<path id="Shape_82_" fill="#140F10" d="M59.6,49.6c0-0.1,0.1-0.1,0.1-0.3c0-0.1-0.1-0.1-0.1-0.1c-0.3,0.1-0.5-0.3-0.7,0
							c-0.4,0.2-0.2,0.6-0.2,0.9c0,0.2,0,0.5,0.2,0.6c0.2,0.2,0.4,0.1,0.6,0.2c0.2,0,0.3-0.2,0.3-0.4C59.6,50.3,59.4,49.9,59.6,49.6
							"/>
						<path id="Shape_81_" fill="#140F10" d="M62,52.6c0.3-0.3,0.6-0.7,1-0.8c0.3-0.1,0.5-0.2,0.9-0.2c0.2,0.1,0.4,0.2,0.5,0.4
							c0,0.1,0.1,0.2,0,0.3c-0.6,0.5-1.5,0.8-2.3,0.5C62,52.8,61.9,52.7,62,52.6L62,52.6L62,52.6z M65.1,56.9
							c-0.2,0-0.2,0.1-0.3,0.2c-0.1,0-0.1,0-0.2,0c-0.3,0.3-0.9,0.3-1.3,0.3c-0.6-0.2-1.2-0.6-1.5-1.3c-0.1-0.3-0.2-0.5-0.2-0.9
							c0-0.4-0.1-0.8,0-1.2c0.1-0.1,0-0.3,0.1-0.4c0.3,0,0.7,0,1,0c0.7-0.1,1.4-0.2,2-0.6c0.4-0.3,0.9-0.6,0.8-1.2
							c-0.1-0.3-0.3-0.5-0.5-0.6c-0.8-0.5-2-0.3-2.8,0.2c-0.6,0.3-1.1,0.9-1.3,1.5c-0.3,0.6-0.4,1.4-0.4,2.2l0,0.1
							c0,0.7,0.2,1.3,0.7,1.8c0.7,0.9,1.9,1.1,3,0.9c0.1,0,0.1-0.1,0.2-0.1c0.2-0.1,0.5-0.2,0.7-0.4c0-0.1,0-0.2,0.1-0.3
							C65.2,57.1,65.1,57,65.1,56.9L65.1,56.9z"/>
						<path id="Shape_80_" fill="#140F10" d="M56.9,53.9c0-0.1,0-0.2-0.1-0.3c0-0.3-0.3-0.6-0.4-0.9c-0.2-0.2-0.5-0.3-0.7-0.2
							c-0.1,0.2-0.3,0.3-0.3,0.5c0,0.2,0.2,0.4,0.4,0.6c0.5,1,0.7,2.2,0.7,3.4c0,0.4,0,0.8-0.2,1.2c0,0-0.1,0-0.2,0
							c-0.6-0.4-1.3-0.8-1.7-1.5c-0.2-0.3-0.2-0.7-0.3-1.1c-0.1-0.3,0-0.6-0.2-0.8c-0.2,0-0.6-0.1-0.8,0.1C53.1,54.9,53,55,53,55.2
							c0.1,0.4,0.1,0.9,0.2,1.3c0,0.1,0.1,0.2,0.1,0.3c0,0.7-0.1,1.4-0.4,2.1c-0.2,0.1-0.2,0.4-0.4,0.4c-0.4-0.1-0.7-0.5-1-0.9
							c-0.5-1-1-2.1-1.1-3.3c-0.1-0.2-0.5-0.2-0.7-0.2c-0.2,0.1-0.2,0.3-0.3,0.4c0.1,0.5,0.1,1,0.3,1.5c0.3,0.8,0.6,1.7,1.1,2.4
							c0.4,0.6,1,0.9,1.7,0.9c0.2,0,0.3-0.2,0.4-0.3c0.3-0.5,0.8-0.9,0.9-1.4c0.1-0.1,0-0.3,0.1-0.3c0,0,0.1,0,0.1,0
							c0.2,0.2,0.5,0.4,0.8,0.6c0.3,0.1,0.6,0.3,1,0.4c0.5,0.1,0.8-0.4,1.1-0.7c0.3-0.7,0.3-1.4,0.3-2.2
							C57.3,55.3,57.2,54.5,56.9,53.9"/>
						<path id="Shape_79_" fill="#140F10" d="M59,53.6c0-0.3,0-0.6,0-0.8c0-0.1-0.2-0.2-0.3-0.2c-0.2-0.1-0.5,0-0.6,0.1
							c-0.1,0.1-0.2,0.4-0.2,0.5c0.1,0.4,0.1,0.9,0.2,1.4c0,0.3,0.1,0.6,0.1,0.9c0,0.6,0.2,1.1,0.2,1.7c0,0.1,0.1,0.2,0.2,0.3
							c0.1,0,0.3,0,0.4,0c0.2-0.2,0.4-0.3,0.6-0.5c0-0.1-0.1-0.3-0.1-0.4C59.2,55.6,59.1,54.6,59,53.6"/>
						<path id="Shape_78_" fill="#140F10" d="M48.4,60.7c-0.3,0.2-0.6,0.3-0.9,0.4c-0.5,0.1-0.9,0.3-1.5,0.3c-0.4,0-0.8-0.3-1-0.7
							c-0.1-0.2,0.1-0.3,0.2-0.5c0.6-0.6,1.4-0.8,2.3-0.8c0.2,0.1,0.4,0.1,0.6,0.2c0.1,0.1,0.1,0.3,0.2,0.4c0.1,0,0.2,0,0.3,0.1
							C48.6,60.4,48.5,60.6,48.4,60.7L48.4,60.7L48.4,60.7z M49,60c0-0.1,0.1-0.1,0.2-0.2c0-0.2,0.2-0.2,0.1-0.4
							c-0.2-0.2-0.2-0.5-0.4-0.6c-0.4-1.2-1.2-2.5-2.4-3.1c-0.5-0.2-1.2-0.4-1.7-0.2c-0.4,0.2-0.7,0.7-0.8,1.2
							c0.2,0.1,0.3,0.2,0.6,0.2l0.2-0.1c0.1-0.1,0.2-0.3,0.2-0.5c0.1-0.2,0.2-0.2,0.4-0.1c1.2,0.2,2,1.6,2.5,2.6l0,0.1
							c0,0-0.1,0.1-0.1,0.1c-0.6,0-1.3,0-1.8,0.2c-0.4,0.1-0.7,0.3-1,0.5c-0.3,0.3-0.8,0.6-0.9,1.1c0,0.5,0.3,0.9,0.8,1.1
							c1,0.5,2.2,0.2,3.2-0.1c0.2-0.1,0.5-0.2,0.7-0.3c0.3,0,0.6-0.3,0.7-0.5c0-0.2,0-0.3,0-0.4C49.4,60.2,49.1,60.2,49,60L49,60z"
							/>
						<path id="Shape_77_" fill="#140F10" d="M37.9,60.4c-0.2-0.5-0.4-1.1,0-1.5c0.2,0,0.3-0.1,0.5-0.2c0-0.2,0.3-0.2,0.3-0.3
							c-0.2-0.1-0.3-0.3-0.5-0.3c-0.2,0-0.4,0.2-0.7,0.3c-0.5,0.3-0.6,0.8-0.8,1.3c0,0.4-0.1,0.9,0.2,1.3c0.2,0.8,0.9,1.3,1.2,2.1
							c0.3,0.5,0.7,1,0.9,1.5c0.4,0.7,0.2,1.6-0.2,2.3c-0.1,0.4-0.5,0.7-0.6,1.1c0,0.1,0.1,0.1,0.2,0.1c0.9,0,1.1-1.1,1.5-1.7
							c0.4-0.9,0.4-2.2-0.2-3C39.2,62.3,38.4,61.5,37.9,60.4"/>
						<path id="Shape_76_" fill="#140F10" d="M44.7,63.6c-0.4,0.3-1,0.2-1.4,0.2c-0.4,0.1-0.7-0.1-1-0.2c-0.6-0.5-0.1-1.4,0-2
							c0.3-0.5,0.5-1.1,0.7-1.6c0-0.3,0.2-0.5,0.2-0.7c0.1-0.2,0.1-0.4,0.1-0.6c-0.1-0.2-0.2-0.5-0.5-0.5l-0.2,0
							c-0.4-0.1-0.8-0.1-1.2,0c-0.6,0.2-1.1,0.4-1.7,0.6c-0.2,0.1-0.3,0.3-0.3,0.5c0,0.2,0.2,0.2,0.3,0.3c0.2,0.1,0.3-0.1,0.5-0.2
							c0.2-0.1,0.4-0.3,0.6-0.3c0.4-0.1,0.9-0.4,1.4-0.1c0.1,0.1,0.1,0.2,0.1,0.4c-0.2,0.7-0.4,1.3-0.7,2c-0.3,0.6-0.6,1.3-0.6,2
							c0,0.1,0,0.2,0.1,0.3c0,0.3,0.3,0.4,0.5,0.6c0.2,0.1,0.4,0.2,0.6,0.2c0.7,0.1,1.5,0.1,2.3,0l0.6-0.4c0,0,0-0.1,0-0.1
							C45,63.8,44.9,63.6,44.7,63.6"/>
						<path id="Shape_75_" fill="#140F10" d="M35.7,61.1c-0.2,0-0.5,0.1-0.6,0.3c-0.2,0.5-0.5,0.9-0.7,1.4c-0.1,0.2-0.1,0.5-0.2,0.7
							c0,0.1-0.1,0-0.2-0.1c-0.1-0.3-0.3-0.7-0.3-1.1c-0.1-0.1-0.1-0.2-0.1-0.3c0-0.2-0.2-0.2-0.4-0.2c-0.3-0.1-0.5,0.2-0.6,0.4
							c-0.1,0.2,0,0.4,0.1,0.6c0.4,1.2,0.9,2.3,1.4,3.4c0.1,0.3,0.3,0.5,0.4,0.8c0.1,0.2,0.3,0.3,0.5,0.3c0.3-0.1,0.4-0.4,0.6-0.7
							c0.1-0.2-0.2-0.3-0.3-0.5c-0.7-1.2-0.7-3.1,0.2-4.2c0.2-0.2,0.5-0.3,0.5-0.7C36.1,61.2,35.9,61.1,35.7,61.1"/>
						<path id="Shape_74_" fill="#140F10" d="M32.1,67.4c0,0.5-0.3,0.8-0.7,1c-0.5,0.4-1.1,0.6-1.8,0.6c-0.4,0-0.6-0.3-0.8-0.6
							c-0.1-0.3,0.1-0.5,0.1-0.7c0.5-0.9,1.5-0.9,2.2-1.4l0.4-0.3c0.2,0,0.1,0.1,0.2,0.2C31.9,66.7,32.3,67,32.1,67.4L32.1,67.4
							L32.1,67.4z M33.1,66.9c-0.1-0.4-0.4-0.6-0.5-1c-0.4-0.8-1.1-1.7-1.9-2.2c-0.4-0.2-0.8-0.3-1.3-0.3c-0.8,0-1.4,0.4-2,0.9
							c-0.4,0.4-0.5,0.8-0.9,1.2c-0.1,0.1,0,0.3-0.1,0.5c0.1,0.2,0.2,0.4,0.4,0.4c0.6-0.2,0.5-0.9,0.8-1.3c0.5-0.5,1.1-0.9,1.9-0.8
							c0.5,0.1,0.9,0.4,1.2,0.7l0.5,0.6c0,0,0,0.1,0,0.2c-1.1,0.5-2.5,0.7-3.2,2c0,0.1,0,0.3-0.1,0.4c-0.1,0.4-0.1,0.9,0.2,1.2
							c0.3,0.2,0.6,0.4,0.9,0.5c0.6,0.1,1-0.2,1.6-0.2c0.2-0.1,0.4,0,0.5-0.2c0.7-0.3,1.3-0.9,1.9-1.5c0.3-0.1,0.1-0.5,0.2-0.6
							C33.4,67.1,33.3,67,33.1,66.9L33.1,66.9z"/>
					</g>
				</g>
			</g>
		</g>
	</g>
</g>
</svg>
