<?xml version="1.0" encoding="utf-8"?>
<!-- Generator: Adobe Illustrator 19.2.1, SVG Export Plug-In . SVG Version: 6.00 Build 0)  -->
<svg version="1.1" id="Layer_1" xmlns="http://www.w3.org/2000/svg" xmlns:xlink="http://www.w3.org/1999/xlink" x="0px" y="0px"
	 viewBox="0 0 960 113.9" enable-background="new 0 0 960 113.9" xml:space="preserve">
<g>
	<g>
		<path d="M43.3,86.6L0,43.3L43.3,0l43.3,43.3L43.3,86.6z M1.3,43.3l42,42l42-42l-42-42L1.3,43.3z"/>
	</g>
	<g>
		<path d="M43.3,113.9L0,70.6l43.3-43.3l43.3,43.3L43.3,113.9z M1.3,70.6l42,42l42-42l-42-42L1.3,70.6z"/>
	</g>
	<g>
		<g>
			<path d="M10.2,39.3h0.1l3.9,4.2l3.9-4.2h0.1v7.9h-2v-2.4c0-0.6,0.1-1.5,0.1-1.5s-0.5,0.8-1,1.3l-1.1,1.2h-0.1L13,44.7
				c-0.5-0.6-1-1.3-1-1.3s0.1,0.9,0.1,1.5v2.4h-2V39.3z"/>
		</g>
	</g>
	<g>
		<g>
			<path d="M10.6,72.8l1.6-0.9c0.3,0.6,0.8,1,1.6,1c0.6,0,1-0.2,1-0.6c0-0.4-0.3-0.5-1.1-0.9l-0.3-0.1c-1.3-0.5-2.1-1.1-2.1-2.5
				c0-1.4,1-2.3,2.6-2.3c1.1,0,1.9,0.3,2.5,1.3l-1.5,0.9c-0.3-0.4-0.6-0.6-0.9-0.6c-0.4,0-0.7,0.2-0.7,0.6c0,0.4,0.3,0.6,0.8,0.8
				l0.3,0.1c1.4,0.6,2.5,1.2,2.5,2.6c0,1.4-1.1,2.3-2.9,2.3C12.3,74.6,11.1,73.9,10.6,72.8z"/>
		</g>
	</g>
	<g>
		<g>
			<path d="M42.3,56.2h-2.2v-1.8h6.5v1.8h-2.2v6h-2V56.2z"/>
		</g>
	</g>
	<g>
		<g>
			<path d="M40.1,101.2l3.2-3.3c0.7-0.8,1.1-1.3,1.1-1.8c0-0.5-0.3-0.8-0.9-0.8c-0.6,0-1,0.4-1.3,1.1l-1.8-0.5
				c0.4-1.5,1.6-2.4,3.2-2.4c1.8,0,2.9,1.1,2.9,2.6c0,0.9-0.5,1.7-1.4,2.6l-0.5,0.5c-0.2,0.3-0.7,0.6-0.7,0.6s0.5-0.1,0.8-0.1h1.7
				v1.7h-6.3V101.2z"/>
		</g>
	</g>
	<g>
		<g>
			<path d="M67.9,70.6c0-2.4,1.9-4,4.2-4c2.3,0,4.2,1.6,4.2,4c0,2.4-1.9,4-4.2,4C69.8,74.6,67.9,73,67.9,70.6z M74.2,70.6
				c0-1.3-0.9-2.2-2.1-2.2c-1.3,0-2.1,0.9-2.1,2.2c0,1.3,0.9,2.2,2.1,2.2C73.3,72.9,74.2,72,74.2,70.6z"/>
		</g>
	</g>
	<g>
		<g>
			<path d="M42.3,13.4h2v7.8h-2V13.4z"/>
		</g>
	</g>
	<g>
		<g>
			<path d="M71.9,39.4h0.2l3.7,7.9h-2.1l-0.3-0.6h-2.9l-0.3,0.6h-2L71.9,39.4z M72.8,45.2l-0.3-0.8c-0.3-0.8-0.6-1.6-0.6-1.6
				s-0.2,0.8-0.6,1.6L71,45.2H72.8z"/>
		</g>
	</g>
</g>
</svg>
