<?xml version="1.0" encoding="utf-8"?>
<!-- Generator: Adobe Illustrator 19.2.1, SVG Export Plug-In . SVG Version: 6.00 Build 0)  -->
<svg version="1.1" id="Layer_1" xmlns="http://www.w3.org/2000/svg" xmlns:xlink="http://www.w3.org/1999/xlink" x="0px" y="0px"
	 viewBox="0 0 959.6 81.2" enable-background="new 0 0 959.6 81.2" xml:space="preserve">
<g id="Screens_1_">
	<g id="Desktop-Copy-4_1_" transform="translate(-444.000000, -3002.000000)">
		<g id="warszawa_1_" transform="translate(444.000000, 3002.000000)">
			<g id="Layer_1_1_">
				<g id="Group_1_">
					<path id="Shape_30_" fill="#140F10" d="M31.1,73.7c0-0.4-0.5-0.3-0.6-0.7c0-0.5-0.5-0.6-0.7-1c-0.4-0.3-0.7-0.5-1.1-0.9
						c-0.3-0.4-0.7-0.7-1-1.1c-0.2-0.2-0.1-0.5-0.3-0.6c-0.3-0.1-0.5-0.4-0.8-0.6c-0.3,0-0.7-0.1-0.9-0.5c0.1-0.4-0.1-0.7-0.3-1
						c-0.1-0.8-0.6-1.4-0.8-2.1c-0.3-0.4-0.5-0.9-0.6-1.4l-0.5-0.5c-0.3-0.4-0.5-0.8-0.6-1.2c-0.1-0.7-0.8-1.1-1-1.8
						c-0.2-0.8-0.6-1.5-0.8-2.3c-0.1-0.7-0.5-1.3-0.7-2c-0.1-0.5-0.1-1-0.1-1.5c-0.1-0.3-0.3-0.5-0.3-0.9c-0.3-0.5-0.4-1.1-0.6-1.7
						c0-0.5-0.5-0.7-0.5-1.1c0-0.5-0.4-0.8-0.3-1.3c-0.2-0.4-0.4-0.8-0.5-1.2c-0.3-0.3-0.3-0.7-0.4-1.2c-0.1-0.4-0.1-0.9-0.3-1.2
						c-0.1-0.3-0.1-0.7-0.1-1.1c0-0.4-0.2-0.6-0.2-1c-0.1-0.3-0.1-0.6-0.1-1c0-0.1-0.4-1.1-0.3-1.2c0.1-0.1,0-0.2,0-0.3
						c-0.1-0.2-0.1-0.5-0.2-0.7c-0.1-0.1-0.1-0.3-0.2-0.4c0-0.2-0.1-0.3-0.1-0.5c-0.1-0.1-0.1-0.3-0.1-0.4c-0.1-0.1,0-0.2-0.1-0.3
						c0-0.2-0.2-0.4-0.2-0.6c-0.1-0.1-0.1-0.3-0.2-0.4c-0.3-0.1-0.4-0.3-0.7-0.5c0-0.2-0.3-0.2-0.3-0.4c-0.2-0.2-0.6-0.3-0.8-0.7
						c0-0.1,0-0.2-0.1-0.2c0-0.1,0.1-0.2,0.1-0.3c-0.1-0.1,0-0.3,0-0.4c0.1-0.1,0.2-0.3,0.2-0.4c0.1-0.1,0.1-0.3,0.2-0.5
						c0-0.1,0-0.2,0-0.4c0-0.2,0.1-0.5,0.2-0.6c0.1-0.1,0-0.1,0-0.2c-0.1-0.1-0.2-0.1-0.3-0.1c-0.1,0-0.1,0.1-0.1,0.2
						c0,0.2-0.3,0.2-0.3,0.4c-0.2,0.1-0.1,0.4-0.2,0.5c-0.2,0.1-0.2,0.4-0.4,0.6c-0.1,0.2-0.2,0.3-0.2,0.5c0,0.1,0,0.2,0,0.2
						c0,0.2-0.1,0.3-0.2,0.5c0,0,0,0.1,0,0.1c-0.1,0.1,0,0.3,0.1,0.4c0,0.2,0.1,0.3,0.2,0.4c0.2,0.1,0.5,0.4,0.7,0.6
						c0.2,0.2,0.4,0.3,0.5,0.5c0.2,0.1,0.2,0.4,0.4,0.5c0.4,0.1,0.4,0.5,0.6,0.8c0,0.2,0.2,0.4,0.2,0.6c0.2,0.1,0,0.4,0.2,0.5
						c0,0.1,0.1,0.2,0.1,0.3l0,0.1c0,0-0.1,0-0.1,0c-0.2-0.2-0.5-0.1-0.8,0c-0.3,0.1-0.5-0.2-0.7-0.2c-0.4,0.1-0.7,0-1.1,0
						c-0.1,0-0.2-0.1-0.3-0.1c-0.3,0.2-0.5,0.6-0.8,0.6c-0.3,0.2-0.7,0.2-1,0.3C10.5,42,10.2,42,10,42.1c-0.4,0.2-1,0-1.4,0.2
						c-0.4,0.5-0.9,0.5-1.4,0.5c-0.3,0.1-0.7,0.1-1,0.1c-0.3,0.1-0.6,0.4-1,0.5c-0.2,0.1-0.1,0.5-0.3,0.6c-0.5,0.2-0.4,0.7-0.6,1
						c-0.1,0.5,0.1,0.9,0.1,1.4c0.1,0.4,0.2,0.7,0.3,1c0,0.2,0.2,0.4,0.1,0.6c-0.1,0.3,0.1,0.5,0.1,0.8c-0.1,0.1,0,0.2-0.1,0.3
						c0,0.1-0.1,0.2-0.1,0.4c0,0.2-0.1,0.3-0.1,0.5c0.1,0.4,0.2,0.7,0.3,1.1c0.1,0.2,0.2,0.3,0.3,0.5c0,0.4,0.1,0.6,0.2,1
						c0.2,0.3-0.1,0.5-0.2,0.7c0,0.6,0.6,1.1,0.7,1.7c0.5,0.6,0.7,1.2,1,1.9c0.2,0.9,0.7,1.7,1.1,2.5c0.4,0.8,0.9,1.5,1.3,2.3
						c0.2,0.4,0.5,0.8,0.6,1.3c-0.2,0.4,0.3,0.5,0.4,0.9l0,0.4c0,0.4,0.3,0.6,0.5,0.9c0.2,0.5,0.4,1,0.8,1.3c0.2,0.6,0.9,1,1.2,1.6
						c0.5,0.7,0.9,1.4,1.3,2.1c0.2,0.3,0.5,0.5,0.6,0.8c0.8,1.1,1.9,1.9,2.6,3c1,1.3,2.3,2.2,3.3,3.4c0.8,0.7,1.6,1.4,2.2,2.3
						c0.2,0.3,0.5,0.5,0.7,0.8c0.1,0.3,0.2,0.6,0.5,0.7c0.3,0.3,0.8,0.1,1.2,0.2c0.2-0.1,0.3-0.3,0.4-0.5c0-0.4,0.5-0.6,0.8-0.8
						c0.4-0.3,0.9,0.1,1.2-0.2c0-0.1,0-0.3,0-0.4c0-0.1,0.2-0.2,0.1-0.4c-0.1-0.2-0.3-0.3-0.3-0.5c0.1-0.2,0-0.4,0-0.6
						c0.1-0.2,0.4-0.3,0.6-0.4c0.4,0.3,0.9,0,1.4,0.2c0.3,0,0.4,0.3,0.7,0.2c0.2-0.2,0.5-0.2,0.7-0.4c0.2-0.2,0-0.5,0-0.7
						c0-0.3-0.2-0.6-0.2-0.9c0-0.6,0.7-0.6,0.8-1.1C31.4,74.4,31,74.1,31.1,73.7L31.1,73.7z M15.7,66.7c-0.5,0-1-0.4-1.5-0.5
						c-0.5-0.3-0.8-0.8-1.2-1.2c-0.1-0.2-0.1-0.5-0.2-0.7c0.1-0.5-0.2-0.9-0.1-1.3c0-0.1,0.1-0.3,0.2-0.3c0.2-0.1,0.3,0.1,0.5,0.2
						c0.2,0.3,0.1,0.7,0.2,1c0.1,0.6,0.4,1.2,0.9,1.6c0.5,0.1,0.8,0.6,1.4,0.4c0.5-0.1,0.6-0.6,0.8-1c0-0.9-0.3-1.7-0.4-2.5
						c-0.1-0.2-0.2-0.5-0.1-0.7c0-0.1,0.2-0.2,0.3-0.2c0.1,0,0.3,0,0.4,0.1c0.2,0.3,0.2,0.7,0.3,1c0.2,0.7,0.8,1.4,1.5,1.8
						c0.5,0.2,1.2,0.2,1.7,0c0.3-0.3,0.3-0.8,0.3-1.2c-0.1-1-0.3-2-0.6-2.8c-0.1-0.3-0.3-0.6-0.5-0.9c0-0.1,0-0.3,0.1-0.3
						c0.2,0,0.3,0,0.4,0.2c0,0.1,0,0.1,0,0.2c0.1,0.3,0.2,0.6,0.4,0.9c0.3,1.4,1,2.7,0.6,4.2c-0.1,0.3-0.4,0.5-0.6,0.5
						c-0.7,0-1.5,0.2-2.1-0.2c-0.3-0.3-0.6-0.6-0.9-0.7l0,0c0.2,0.5,0.1,1.1-0.2,1.6C16.9,66.3,16.3,66.6,15.7,66.7L15.7,66.7z
						 M25.5,71.4c-0.2,0.4-0.2,1-0.7,1.2c-0.6,0-1.1-0.2-1.6-0.3c-0.3-0.1-0.5-0.5-0.9-0.5l-0.1,0.1c0.1,0.7,0.4,1.5,0.1,2.2
						c-0.2,0.3-0.6,0.3-0.8,0.6c-0.3,0.1-0.6-0.1-0.9,0c-0.4-0.2-0.8-0.4-1.3-0.5c-0.7-0.5-1-1.4-1.4-2.1l-0.3-0.7
						c-0.2-0.5-0.6-0.8-0.5-1.4c-0.1-0.2-0.4-0.4-0.2-0.7c0.1-0.2,0.4-0.4,0.6-0.3c0.4,0.4,0.4,0.9,0.7,1.4c0.4,0.7,0.5,1.5,1,2.2
						c0.2,0.4,0.6,0.7,1,1c0.2,0.1,0.5,0.1,0.7,0c0.2,0,0.3-0.1,0.4-0.3c0-0.8,0-1.5-0.1-2.3c0-0.3-0.5-0.6-0.2-0.9
						c0-0.3-0.3-0.6,0-0.8c0.1-0.1,0.3-0.2,0.4-0.2c0.4,0.2,0.5,0.7,0.8,1c0.4,0.6,1,0.7,1.4,1.2c0.2,0.1,0.5,0.1,0.7,0.2
						c0.2,0,0.2-0.2,0.2-0.3c0-0.2-0.1-0.3-0.2-0.5c-0.2-0.6-0.1-1.4-0.4-2c-0.2-0.6-0.4-1.3-0.7-1.9c-0.1-0.2-0.2-0.5,0-0.7
						c0.3-0.5,0.6,0,0.9,0.1c0.3,0.3,0.3,0.8,0.5,1.2c0.1,0.2,0.2,0.4,0.2,0.5l0,0c-0.1,0.3,0.1,0.4,0.2,0.7
						C25.2,69.4,25.6,70.4,25.5,71.4L25.5,71.4z"/>
					<path id="Shape_29_" fill="#140F10" d="M29.7,4.6c-0.1-0.1-0.3-0.3-0.3-0.4C29.3,4,29,3.9,28.8,3.9c-0.2-0.2-0.5-0.3-0.7-0.5
						c-0.3,0-0.5-0.3-0.8-0.4c-0.3-0.2-0.6-0.3-1-0.2c-0.1-0.1-0.3-0.2-0.4-0.3c-0.1,0.1-0.3,0-0.4,0c-0.3-0.3-0.7-0.1-1-0.3
						c-0.5,0-0.8-0.3-1.3-0.4c-0.5-0.2-1.1-0.1-1.7-0.3c-1-0.4-2-0.4-3.1-0.5c-0.6-0.1-1.2-0.1-1.8-0.1c-0.3-0.1-0.7,0-1-0.2
						c-0.9,0-1.7-0.2-2.6-0.2c-0.1,0-0.3,0-0.5,0c-0.2,0-0.3-0.2-0.4-0.4c-0.3-0.1-0.4,0.2-0.7,0.2c-0.1,0-0.3,0-0.4,0
						c-0.4-0.1-0.7,0-1.1,0c-0.2-0.1-0.4,0-0.6,0c-0.3,0.1-0.7-0.1-1,0C8,0.5,7.7,0.4,7.5,0.3c-0.2,0.1-0.3,0-0.5,0
						c-0.1,0-0.1,0.1-0.2,0.2c-0.1,0-0.2,0.2-0.4,0.1c-0.3,0.1-0.7-0.1-1,0c-0.2,0-0.5-0.3-0.7,0c-0.1,0.1-0.2,0-0.3-0.1
						C4.4,0.6,4.2,0.7,4.2,0.8C3.9,0.9,3.7,1.3,3.3,1.2C3.1,1.3,3.2,1.4,3.1,1.6C3,1.6,2.9,1.6,2.8,1.6c0,0.1-0.1,0.1-0.1,0.2
						c0.2,0.2-0.1,0.3-0.2,0.5C2.4,2.6,2.6,2.7,2.7,2.9c0,0.1,0.2,0.2,0.2,0.4C3,3.4,3.1,3.7,3.2,3.9c0,0.1,0.1,0.2,0.2,0.1
						C3.6,3.9,3.7,4,3.9,3.8c0.1,0,0.3,0,0.4,0.1c0.5-0.1,1-0.1,1.5-0.1c0.2-0.2,0.5-0.1,0.7-0.1c0.1,0,0.1,0.1,0.2,0.1
						c0.2,0,0.5-0.1,0.7-0.1C8,3.4,8.6,3.5,9.3,3.5c0.2,0.1,0.4,0,0.5,0.1c0.2-0.1,0.4,0,0.6,0c0.2-0.2,0.5-0.1,0.7-0.1
						c0.3,0,0.7,0,1,0.1c0-0.1,0.1-0.2,0.2-0.2c0.2-0.1,0.3,0.1,0.4,0.2c0.1,0,0.2,0,0.3,0c0.3,0.2,0.7,0,1.1,0.2
						c0.6,0.1,1.3,0.1,2,0.1c0.8,0,1.4,0.3,2.2,0.4c0.7,0.2,1.4,0.2,2,0.4c0.6,0,1.2,0.2,1.8,0.3C22.3,5,22.5,4.9,22.7,5
						c0.2-0.1,0.3,0.1,0.4,0.1c0.1,0,0.3,0.2,0.4,0.2c0.3-0.1,0.4,0.3,0.7,0.2c0.3,0.2,0.6,0.3,0.9,0.5c0.2-0.1,0.4,0,0.6,0
						c0.1,0,0.2,0.2,0.4,0.1c0.3,0.2,0.7,0,0.9,0.4c0.2,0.1,0.3-0.1,0.5-0.1c0.2,0,0.3-0.3,0.5-0.4c0.3,0.1,0.5-0.1,0.8,0
						c0.3,0,0.4-0.3,0.6-0.4c0-0.2,0.3-0.3,0.4-0.5C29.7,5,29.7,4.8,29.7,4.6"/>
					<path id="Shape_28_" fill="#140F10" d="M3.8,17.4c0-0.3-0.4-0.3-0.5-0.6c-0.2-0.1-0.2-0.4-0.5-0.5c-0.1-0.1-0.2-0.2-0.4-0.3
						c-0.2-0.1-0.4-0.3-0.7-0.3c-0.3,0-0.3-0.4-0.4-0.6c0-0.3-0.2-0.4-0.4-0.6c-0.1-0.2-0.1-0.3-0.2-0.5c0-0.2-0.1-0.3,0-0.5
						c0.1-0.2-0.1-0.4,0.1-0.5c0-0.2,0.1-0.4,0.2-0.6c0.2-0.2,0.1-0.5,0.2-0.7c0-0.1,0-0.2,0-0.3c0.1-0.2,0-0.4,0.1-0.5
						c0.1-0.1,0-0.3,0.1-0.4c0-0.2,0.2-0.3,0.1-0.5C1.8,10,1.7,9.7,1.8,9.5c0.2-0.1,0.3-0.6,0.4-0.8c0-0.3,0.2-0.1,0.3-1l0,0v0.2
						c0.1-0.1,0.1-0.2,0.2-0.3c0-0.3,0.2-0.5,0.3-0.7c0.1-0.2-0.2-0.2,0-0.4c0-0.1-0.1-0.1-0.2-0.2c-0.1-0.1,0-0.2,0-0.3
						c0-0.2,0.1-0.4,0.1-0.5c0-0.1-0.2-0.1-0.3-0.1C2.3,5.5,2.2,5.7,2.1,6C2.1,6.1,2,6.1,2,6.3C1.9,6.4,1.9,6.7,1.7,6.8
						c0,0.1,0,0.1,0,0.2c0,0.2-0.2,0.4-0.2,0.6c0,0.2-0.1,0.3-0.1,0.5C1.2,8.4,1.1,8.6,1.1,8.8C0.9,9,1,9.3,0.8,9.5
						c0,0.2-0.2,0.2-0.2,0.4c-0.1,0.2-0.1,0.4-0.2,0.6c-0.1,0.1-0.1,0.2-0.1,0.4c0,0.1-0.1,0.2-0.1,0.4c0,0.1-0.2,0.2-0.1,0.4
						C0,11.8,0.1,12,0,12.1l0,1.5l0,0.1c0,0.2,0,0.3,0.1,0.5c0,0.1,0,0.3,0.1,0.4c0,0.2,0.1,0.3,0.2,0.4c0,0.1,0,0.1,0,0.2
						c0.1,0.2,0.2,0.3,0.3,0.6C1,16,1.3,16.2,1.5,16.5c0.1,0.1,0.3,0.3,0.4,0.4c0.3,0.2,0.6,0.5,0.8,0.7c0,0.1,0.2,0.2,0.2,0.3
						c0.2,0.1,0.3,0.3,0.5,0.4c0.1,0,0.2,0.2,0.3,0.1c0.2,0,0.4,0,0.5,0c0.1,0,0.2-0.1,0.3-0.3C4.6,17.7,4.1,17.7,3.8,17.4"/>
					<path id="Shape_27_" fill="#140F10" d="M50.1,8.7c-0.1-0.2,0.2-0.3,0.1-0.5l-0.4-0.5c0-0.1,0-0.2-0.1-0.2c-0.1,0-0.3,0-0.4,0.1
						c-0.3,0.1-0.4-0.3-0.6-0.4c-0.2,0-0.5,0-0.7-0.1c-0.2-0.1-0.3,0.2-0.6,0L47.4,7c-0.2,0-0.3,0.2-0.4,0.3
						c-0.2,0.1-0.3-0.1-0.4-0.1c-0.1,0-0.3,0-0.4-0.1C46,7,45.9,7.2,45.7,7.2c-0.2,0.1-0.3-0.1-0.5,0c-0.3,0.1-0.7,0.1-1.1,0.1
						c-0.2,0.1-0.3,0.3-0.5,0.2c-0.5,0-1,0.2-1.6,0.2c-0.4,0.1-0.8,0-1.1,0.2c-0.7,0.1-1.4,0-2.1,0.2c-0.2,0-0.5,0.4-0.7,0.1
						l-0.2,0.1c-0.2,0.1-0.3-0.1-0.5-0.2c-0.1,0-0.3,0-0.4,0c-0.3-0.3-0.7-0.2-1-0.2c-0.2,0-0.3,0.1-0.5,0.1
						c-0.1,0.1-0.1,0.3-0.3,0.4c-0.3-0.1-0.5,0.1-0.9,0.1c-0.1,0-0.2,0.2-0.3,0.1c-0.2,0-0.3,0.2-0.5,0.2C33.3,9,33,8.8,32.8,8.9
						C32.5,9,32.1,8.6,31.9,9c-0.2,0.3-0.5,0.1-0.8,0.1c-0.2,0.1-0.6,0.2-0.8,0.1c-0.1,0.1-0.4,0.1-0.3,0.4c0,0.1-0.1,0.2-0.2,0.2
						c-0.4,0-0.8,0.1-1.2,0.2c-0.3-0.1-0.6,0.2-0.9,0.3c-0.6,0.1-1.1,0.4-1.7,0.4l-0.4,0.2c-0.5,0.2-1.1,0.2-1.6,0.5
						c-0.7,0.1-1.3,0.3-2,0.6c-0.1,0.1-0.3,0.2-0.4,0.3c-0.3,0-0.4,0.2-0.7,0.3c-0.2,0.2-0.5,0.2-0.7,0.3c-0.1,0-0.2,0.1-0.1,0.2
						c-0.1,0.1-0.2,0.2-0.3,0.1c-0.2,0.2-0.6,0.1-0.8,0.5c0,0.1-0.2,0.2-0.2,0.4c0,0.1-0.2,0.1-0.3,0.1c-0.2,0.1-0.4-0.1-0.6,0.1
						c-0.1,0.3-0.4,0.4-0.6,0.4c-0.1,0-0.1,0-0.1,0c0,0-0.1,0-0.1,0c-0.2,0-0.2,0.2-0.3,0.2c-0.2,0-0.4,0.1-0.5,0.2
						c-0.5,0.4-1.1,0.6-1.5,1.1c0,0.2-0.3,0.1-0.3,0.3c-0.2,0.1-0.3,0.3-0.4,0.4c-0.2,0.1-0.3,0.2-0.4,0.3c0,0.1-0.1,0.2-0.1,0.3
						c0,0.1-0.2,0.2-0.3,0.3c-0.1,0.2-0.3,0.3-0.4,0.5c-0.1,0.3-0.3,0.6-0.5,0.9l0,0.4c0,0,0.1,0.1,0.1,0.2c-0.1,0.1,0,0.2,0,0.3
						c0,0,0,0.1,0,0.2c0,0.1,0,0.3,0.1,0.5c0.1,0.3,0.2,0.5,0.3,0.8c0.1,0.1,0.1,0.3,0.1,0.4c0.1,0.1,0,0.3,0,0.4
						c-0.2,0.2-0.3,0.5-0.5,0.7c-0.1,0.1-0.1,0.2-0.2,0.3c-0.3,0.1-0.5,0.4-0.7,0.6c0,0.1,0.1,0.2,0.2,0.3c0.1,0,0.2,0,0.3-0.1
						c0.1-0.1,0.3-0.3,0.5-0.4c0.1-0.2,0.4-0.1,0.5-0.3c0.1-0.1,0.2,0,0.3-0.2c0.3-0.1,0.4-0.3,0.6-0.5c0-0.2,0.1-0.3,0.2-0.4
						c0-0.1,0-0.2,0-0.3c0-0.1-0.1-0.1-0.1-0.2c0.1-0.2-0.1-0.2-0.1-0.4c-0.1-0.1,0-0.2-0.1-0.3c0-0.2-0.2-0.3-0.1-0.5
						c-0.1-0.1-0.1-0.2-0.1-0.3c0-0.1,0-0.2,0-0.3c-0.1-0.2,0-0.3,0.1-0.5c0-0.4,0.3-0.7,0.3-1.1l0.3-0.4c0.2-0.3,0.6-0.2,0.8-0.6
						c0.2,0,0.2-0.3,0.4-0.4c0,0,0.1-0.1,0.1-0.1c0.1,0.1,0.1,0.2,0.2,0.2c0.2,0.3,0.7,0.2,0.9,0.6c0.2,0,0.5,0.2,0.6,0.5
						c0.1,0.3,0.4,0.3,0.7,0.5c0.1,0.1,0.1,0.2,0.2,0.2c0.3,0.1,0.2,0.4,0.4,0.6c-0.1,0.2,0.2,0.3,0.2,0.4c0.3,0.2,0.5,0.4,0.9,0.4
						c0.1,0,0.2,0,0.3,0c0.1,0.3,0.5,0.2,0.6,0.6c0.1,0.1,0.3,0.3,0.5,0.3c0.5-0.1,0.8,0.3,1.2,0.1c0.2,0,0.5,0.2,0.7,0.1
						c0.2,0.1,0.4,0.1,0.6,0.1c0.3,0.3,0.6-0.1,0.9-0.1c0.3,0.1,0.5-0.1,0.7-0.1c0.3-0.1,0.5,0.3,0.8,0.1c0.1,0,0.2,0,0.2,0
						c0-0.1-0.1-0.1-0.1-0.2c0-0.1,0-0.1,0-0.2c0.5-0.2,1-0.2,1.5-0.5c0.5-0.4,1.1-0.2,1.6-0.6c0.5,0,0.8-0.2,1.3-0.4
						c0.3-0.2,0.7-0.2,1.1-0.4c0.5-0.1,0.9-0.4,1.5-0.4c0.4-0.3,0.9-0.4,1.4-0.5c0.3-0.1,0.7,0,0.9-0.1c0.6-0.3,1.5,0,2-0.4
						c0.3-0.2,0.8-0.1,1.2-0.2c0.4,0,0.6-0.2,1-0.2c0.4,0.1,0.7-0.1,1.1-0.2c0.3,0,0.6-0.3,0.9-0.3l0.3-0.4c0-0.3,0.2-0.5,0.4-0.7
						c0-0.2,0.2-0.5,0.4-0.5c0.1,0,0.2,0,0.3,0c0.2-0.2,0.4-0.3,0.7-0.4c0.3-0.1,0.4-0.4,0.7-0.5c0.3,0,0.5-0.4,0.8-0.4
						c0.3,0,0.5-0.2,0.9-0.1c0.1,0.1,0.2-0.1,0.3-0.1c0.1-0.1,0.2-0.1,0.4-0.1c0.1-0.1,0.2-0.2,0.2-0.3c0-0.2,0.3-0.3,0.1-0.5
						c0-0.1,0-0.2,0-0.3c0-0.2,0.2-0.4,0.1-0.6c0-0.1,0.2-0.2,0.3-0.2c0.2-0.1,0.4,0.2,0.6,0c0.1-0.2-0.1-0.3-0.2-0.4
						c-0.2-0.1,0.1-0.3-0.1-0.5c0.1-0.3,0.4-0.3,0.6-0.5c0.3-0.2,0.8-0.1,1.2-0.1c0.1,0,0.1-0.1,0.1-0.2c0.1-0.2,0.2-0.4,0.2-0.7
						c-0.1-0.3,0.2-0.4,0.4-0.5l0-0.2L50.1,8.7"/>
					<path id="Shape_26_" fill="#140F10" d="M5.6,25.6c0.1,0.1,0,0.2,0,0.3c0,0,0,0.1,0,0.1c-0.1,0-0.2,0-0.3,0.1
						c-0.1,0.1-0.2,0.4-0.4,0.4c-0.1,0.1-0.1,0.2-0.2,0.3c-0.1,0.2-0.2,0.4-0.2,0.7c-0.2,0.3,0,0.6-0.1,0.9c0,0.2,0.1,0.3,0,0.5
						c0.1,0.1,0.2,0.2,0.2,0.4c0.1,0.1,0.2,0.1,0.3,0.2l0.3,0c0.2,0.2,0.5,0.2,0.7,0.2c0.2-0.1,0.4-0.2,0.6-0.3
						c0.1,0,0.1-0.3,0.3-0.2c0.2,0,0.3-0.2,0.5-0.2c0.2-0.1,0.4-0.2,0.5-0.3c0.1-0.1,0.2-0.2,0.3-0.3c0.1-0.1,0.2-0.4,0.4-0.4
						c0,0,0.1-0.1,0.2,0C8.8,28.2,9,28,9,28.2c0.1,0.1,0.1,0.1,0.1,0.2C9,28.5,9,28.7,8.9,28.8c-0.1,0.4,0.1,0.7,0.2,1
						c0.2,0.2,0.2,0.5,0.4,0.5c0.2,0,0.4,0.1,0.5,0.2c0.2,0,0.3,0.3,0.5,0.3c0.1,0,0.2,0.1,0.3,0.1c0.2,0.1,0.5,0,0.7-0.1
						c0.6-0.2,1.1-0.6,1.3-1.2c0.1-0.1,0.2-0.1,0.3-0.2c0.1,0,0.3,0.1,0.4,0.2c0.1,0.2,0,0.3,0,0.5c-0.1,0.1-0.1,0.2-0.2,0.3
						c0,0.2-0.3,0.2-0.4,0.4c0,0-0.1,0-0.1,0.1c0,0.2-0.2,0.2-0.3,0.3c-0.2,0-0.3,0.2-0.5,0.2c-0.1,0.1-0.3,0.1-0.5,0.2
						c-0.4,0-0.8,0.2-1.2,0c-0.2,0.1-0.4-0.1-0.6-0.1c-0.2-0.1-0.5-0.1-0.6-0.3c-0.2-0.1-0.4-0.4-0.6-0.5c0,0-0.1-0.1-0.1-0.2
						c-0.2-0.2-0.2-0.5-0.4-0.6c-0.2,0-0.3,0.1-0.5,0.1c-0.2,0.1-0.3,0.3-0.6,0.3c-0.2,0.2-0.5,0.1-0.7,0.3c-0.3,0.1-0.6,0.1-1,0.1
						c-0.2,0.1-0.5,0-0.7-0.1c0-0.1-0.2-0.1-0.2-0.2c-0.3-0.2-0.5-0.5-0.7-0.9c0-0.1-0.1-0.2-0.1-0.4c-0.1-0.3-0.2-0.6-0.2-0.9
						c-0.1-0.2-0.1-0.5,0.1-0.6c0-0.1,0.1-0.1,0.1-0.2c0-0.2,0.1-0.4,0.1-0.6c0.1-0.1,0.3-0.3,0.3-0.5c0.2-0.2,0.4-0.5,0.7-0.5
						c0.1-0.1,0.2-0.3,0.3-0.2C5.3,25.5,5.5,25.5,5.6,25.6"/>
					<path id="Shape_25_" fill="#140F10" d="M37.9,32.1c0-0.1,0.1-0.3,0-0.4c0-0.3,0-0.6-0.1-0.8c0.3-0.4-0.3-0.6-0.2-1
						c-0.1-0.2-0.1-0.5-0.4-0.6c-0.1-0.4-0.6-0.4-0.7-0.8c-0.3-0.2-0.6-0.3-0.9-0.4c-0.3,0-0.5-0.2-0.8-0.1c0,0.1-0.2,0.2-0.2,0.3
						c0.2,0.2,0.6,0.1,0.8,0.3c0.3,0,0.5,0.1,0.7,0.3c0.2,0.1,0.3,0.4,0.6,0.4c0.4,0.1,0.4,0.5,0.5,0.8c0,0.2-0.2,0.1-0.3,0.2
						c-0.1,0.2,0.2,0.3,0.3,0.4c0.2,0.2,0.4,0.5,0.3,0.8c0.1,0.2,0,0.4-0.1,0.6c-0.2,0-0.1,0.2-0.2,0.3c-0.3-0.1-0.4-0.4-0.6-0.6
						c-0.1-0.2,0-0.3,0-0.5c-0.1-0.1-0.1-0.2-0.2-0.3c-0.4-0.1-0.4-0.5-0.7-0.7c-0.1-0.2-0.4-0.3-0.4-0.5c0-0.1-0.2-0.1-0.2-0.2
						c-0.2,0.1-0.5,0-0.7-0.2c-0.2-0.5-0.8-0.3-1.1-0.6c-0.3,0-0.5-0.2-0.8-0.1c-0.1-0.1-0.2-0.1-0.4-0.2c-0.3,0.1-0.6-0.1-0.9-0.1
						c-0.1,0-0.2-0.1-0.3-0.1c-0.2-0.1-0.5,0-0.7,0c-0.1,0.1-0.3,0.1-0.4,0.1c-0.1-0.1-0.3-0.1-0.5-0.2c-0.2,0-0.5-0.1-0.7-0.1
						c-0.3,0.2-0.5,0-0.8,0.1l-0.2-0.2c-0.2,0-0.4-0.1-0.5-0.1c-0.1-0.1-0.2-0.2-0.4-0.2c-0.2,0.1-0.5,0.1-0.6-0.1
						c-0.2,0-0.2-0.2-0.4-0.2c-0.2,0-0.5,0-0.7,0l-0.1,0.1c-0.1,0.2,0,0.5,0,0.8c0.1,0.2,0.3,0.3,0.5,0.4c0.1,0,0.2,0.1,0.2,0.2
						c0,0.2-0.2,0.3-0.4,0.4c-0.2,0.1-0.4-0.2-0.6-0.2c-0.2-0.2-0.5,0-0.7-0.1c-0.1,0.1-0.3,0-0.5,0c-0.3,0.1-0.6,0.2-0.8,0.4
						c-0.2,0-0.3,0.2-0.5,0.1c-0.4,0-0.3,0.6-0.7,0.5c-0.4,0.2-0.6,0.7-0.7,1.1c-0.1,0.2-0.4,0.4-0.4,0.7c0.1,0.4-0.3,0.5-0.5,0.8
						c0,0.1-0.1,0.3,0,0.4c0,0.2,0.1,0.4-0.1,0.5c-0.1,0-0.2,0-0.2,0c0-0.1-0.1-0.1-0.1-0.2c0.2-0.2-0.1-0.5,0-0.7
						c-0.1-0.2,0.1-0.3,0.1-0.5c0-0.1,0-0.3-0.2-0.2c-0.2,0.2-0.2,0.5-0.2,0.7c-0.2,0.3,0,0.6-0.2,0.9c0.1,0.2,0,0.5,0.2,0.7
						c0.1,0.2-0.1,0.3,0,0.5c-0.2,0.3,0.2,0.4,0.1,0.7c0.1,0.3,0.1,0.5,0.1,0.8c0.2,0.2,0,0.5,0.2,0.7c0.1,0.1,0,0.2,0,0.3l0.3,0.3
						c0,0.5,0.5,0.8,0.5,1.3c0,0.1,0,0.2,0,0.2c0.2,0.2,0.3,0.4,0.4,0.6c-0.1,0.2,0.1,0.3,0,0.4c0.3,0.3,0.3,0.8,0.5,1.2
						c0.2,0.3,0.3,0.5,0.4,0.8c0.3,0.7,0.9,1.3,1.5,1.9c0.3,0.2,0.7,0.5,1,0.7c0.6,0.4,1.2,0.7,2,0.8c0.5,0,1,0.2,1.5,0.3
						c0.2,0.2,0.5,0.4,0.8,0.6c0.1,0,0.3,0,0.5-0.1c0-0.1,0-0.1,0-0.2c0.1-0.2,0.4-0.1,0.6-0.2c0.1,0.1,0.3,0,0.4,0
						c0.3,0.2,0.6,0,0.8,0c0.1-0.1,0.3-0.2,0.4-0.1l0.5-0.2c0.1-0.1,0.3,0,0.4-0.2c0.3,0,0.6-0.2,0.9-0.4c0.5-0.5,1.2-0.6,1.7-1
						c0.5-0.5,1-0.9,1.5-1.3c0.2-0.2,0.4-0.4,0.5-0.6c0.1-0.2,0-0.5,0.2-0.6c0.3-0.2,0.3-0.6,0.5-0.9c0.1-0.2-0.1-0.4-0.2-0.5
						c0.1-0.1,0-0.4,0.1-0.5c0-0.1-0.2-0.1-0.1-0.3c0-0.1,0.2-0.1,0.3-0.2c0-0.6,0.5-1,0.6-1.5c0-0.1-0.1-0.3,0-0.4
						c0-0.2,0.2-0.4,0.1-0.7c0-0.1,0.2-0.2,0.2-0.3c-0.1-0.2,0.1-0.4-0.1-0.5c-0.1-0.2,0-0.3,0.1-0.4c-0.1-0.1,0-0.2,0-0.3
						c-0.1-0.2,0.2-0.4,0-0.6c0.1-0.3-0.3-0.3-0.4-0.5c0-0.3-0.1-0.5-0.1-0.8c0-0.1,0.2-0.1,0.3-0.2c0.2-0.1,0.1,0.3,0.4,0.2
						c0.1-0.1-0.1-0.1,0-0.2C37.8,32.2,37.8,32.2,37.9,32.1"/>
					<path id="Shape_24_" fill="#140F10" d="M19.4,27c0.2,0,0.4,0,0.5,0c0.2,0,0.3,0,0.5,0c0.2,0,0.3,0.1,0.5,0.1
						c0.2,0.1,0.4,0,0.6,0.1c0.1,0,0.2,0.1,0.3,0.1c0.1,0.1,0.2,0.1,0.3,0c0.1,0,0.2,0,0.3,0.1c0.2,0,0.3-0.2,0.6-0.1
						c0.2,0,0.3,0.1,0.5,0.1c0.2,0,0.1-0.2,0.1-0.3c0-0.1-0.1-0.2-0.2-0.3c-0.1,0-0.2-0.1-0.3-0.1c-0.3-0.1-0.5-0.3-0.8-0.4
						c-0.4,0-0.9,0-1.3-0.2c-0.1,0-0.2,0-0.2,0c-0.3-0.1-0.7-0.1-1-0.1c-0.1,0.1-0.3,0-0.4,0c-0.2-0.1-0.4,0-0.6,0
						c-0.1,0-0.3,0-0.4,0c-0.1,0-0.2,0.1-0.3,0c-0.2,0-0.5,0-0.7,0.3c0,0.2-0.1,0.3-0.1,0.5c0.1,0.1,0.1,0.2,0.2,0.3
						c0.2,0.1,0.5,0,0.7-0.1C18.6,27,19,26.9,19.4,27"/>
					<polyline id="Shape_23_" fill="#140F10" points="7.8,38.1 7.5,39.1 7.8,39.5 8.4,39.1 8.5,38.1 8.1,38 					"/>
					<path id="Shape_21_" fill="#140F10" d="M56.6,39.1c0.1,0.2,0.1,0.5,0.4,0.5c0.1,0.1,0.2,0,0.4,0c0.1-0.1,0.2,0,0.3-0.1
						c0,0,0-0.1,0-0.2c0-0.3-0.1-0.5-0.1-0.9c-0.2-0.3,0.2-0.5,0.1-0.9c-0.1-0.2-0.4-0.3-0.7-0.3c-0.2,0-0.3,0.2-0.4,0.4
						C56.6,38.2,56.5,38.7,56.6,39.1"/>
					<path id="Shape_20_" fill="#140F10" d="M66.3,40c0.3-0.5,0.8-0.7,1.3-0.6l0.1,0.1c0.1,0.1,0.2,0.2,0.1,0.4
						c0,0.4-0.4,0.5-0.7,0.6c-0.3,0.1-0.7,0.2-1,0.1C66,40.5,66.2,40.3,66.3,40L66.3,40L66.3,40z M69,45.6c-0.1-0.2,0-0.4,0-0.5
						c-0.2-0.2-0.1-0.6-0.4-0.7c-0.1-0.2-0.2-0.4-0.5-0.4c-0.3-0.3-0.8-0.2-1.1-0.6c-0.2-0.4-0.6-0.7-0.7-1.2c0-0.2-0.2-0.4-0.1-0.5
						c0.2-0.1,0.5-0.1,0.8-0.2c0.3-0.2,0.7-0.2,1-0.5c0.2-0.1,0.5-0.3,0.6-0.6c0-0.3,0.2-0.6,0-0.9c-0.3-0.5-0.8-0.7-1.3-0.7
						c-0.5,0-0.9,0.2-1.3,0.5c-0.3,0.2-0.6,0.5-0.8,0.9c0,0.1-0.1,0.3-0.1,0.4c-0.1,0.2,0,0.4-0.1,0.6c0,0.6,0.1,1.2,0.4,1.7
						c0.3,0.5,0.7,1.2,1.3,1.5c0.1,0.1,0.1,0.2,0.2,0.3c0.1,0.3,0.5,0.3,0.7,0.5c0.2,0.3,0.4,0.6,0.4,1c-0.1,0.3-0.3,0.6-0.6,0.6
						c0,0.1-0.1,0.1-0.1,0.2c0,0.1,0.2,0.1,0.3,0.2c0.5,0,1-0.5,1.2-1C68.9,46,69,45.8,69,45.6L69,45.6z"/>
					<path id="Shape_19_" fill="#140F10" d="M63.3,39.8c0.1,0.6,0,1.2-0.1,1.8c0,0.4,0,0.7-0.1,1.1c0,0.3,0,0.6,0.1,0.9
						c0.1,0.1,0.3,0,0.5,0c0.2-0.1,0.4-0.2,0.5-0.4C64.1,43,64,42.7,64,42.5c0.1-0.8,0.2-1.7,0.2-2.4c0-0.1,0.1-0.2,0.1-0.3
						c-0.2-0.2-0.4-0.3-0.7-0.3C63.5,39.5,63.3,39.6,63.3,39.8"/>
					<path id="Shape_18_" fill="#140F10" d="M61.1,41.2c-0.1-0.3-0.4-0.6-0.5-0.9c0.3-0.4,0.9,0,1.3-0.4c0,0,0.2,0,0.2-0.1
						c-0.3-0.5-1-0.4-1.4-0.2c-0.4,0.2-0.8,0.3-1,0.7c0,0.3,0.1,0.6,0.3,0.9c0.3,0.7,0.8,1.4,1.1,2.1c0.2,0.6,0.5,1.2,0.3,1.9
						c-0.1,0.1-0.2,0.3-0.4,0.4c-0.1,0-0.2,0-0.2,0c0,0-0.1,0-0.2,0c0,0.2-0.4,0.3-0.2,0.5c0.1,0.3,0.4,0.2,0.7,0.2
						c0.4-0.2,0.8-0.5,1.1-0.9c0.3-0.4,0.3-1.1,0.2-1.6C62.1,42.8,61.5,42.1,61.1,41.2"/>
					<path id="Shape_17_" fill="#140F10" d="M50.8,46.3c-0.1-1.1-0.2-2.3-0.8-3.2c0-0.1-0.2-0.2-0.3-0.2c-0.2,0-0.5-0.1-0.6,0.1
						c-0.2,0.5-0.6,0.9-0.7,1.4c-0.2,0.2-0.2,0.5-0.3,0.8c0,0-0.1,0-0.1,0c0-0.9-0.1-1.9-0.2-2.8c0-0.2-0.1-0.5,0.1-0.6
						c-0.1,0-0.1-0.1-0.1-0.2c-0.3-0.2-0.7-0.1-0.9,0.1c0,1.6,0.2,3.3,0.4,4.9c0,0.9,0.3,1.8,0.3,2.7c0,0.1,0.1,0.2,0.2,0.2
						c0.2,0.1,0.4-0.1,0.6-0.2c0.1-0.2,0.3-0.2,0.2-0.4c-0.3-0.5-0.1-1-0.2-1.6c0.1-1,0.4-2,0.7-2.9c0-0.1,0-0.2,0.1-0.2
						c0.2,0.1,0.2,0.4,0.3,0.7c0.1,0.6,0.2,1.1,0.2,1.7c0.1,0.6,0.1,1.3,0.2,1.9c0.1,0.2,0,0.5,0.2,0.7c0.3,0.1,0.5-0.2,0.7-0.3
						c0-0.1,0.2-0.1,0.2-0.3C50.8,47.8,50.9,47,50.8,46.3"/>
					<path id="Shape_16_" fill="#140F10" d="M57.9,49c-0.2-1.1-0.1-2.3-0.2-3.5c0-0.3,0-0.6-0.1-0.9c0-0.8-0.1-1.6-0.1-2.4l-0.1-0.1
						c-0.2-0.1-0.5-0.3-0.7,0c-0.1,0.1-0.2,0.3-0.2,0.5c0.2,0.3,0.1,0.7,0.2,1.1c0.1,1.2,0.1,2.5,0.2,3.8c0,0.8,0.2,1.5,0.1,2.3
						c0,0.1,0,0.3,0.2,0.3c0.2,0,0.5-0.1,0.6-0.3C58.1,49.7,57.8,49.2,57.9,49"/>
					<path id="Shape_15_" fill="#140F10" d="M54.5,46.8c-0.4,0.4-0.9,0.6-1.3,0.8c-0.2,0-0.5,0.1-0.7-0.1c-0.1-0.1-0.3-0.3-0.2-0.5
						c0.4-0.6,1-0.9,1.7-1.1c0.3-0.1,0.5,0.2,0.6,0.4C54.4,46.5,54.6,46.7,54.5,46.8L54.5,46.8L54.5,46.8z M55.7,45.9
						c-0.1-0.2-0.3-0.2-0.4-0.3c-0.1-0.8-0.4-1.5-0.8-2.2c-0.4-0.8-1.2-1.3-2.1-1.2c-0.2,0-0.3,0-0.5,0c-0.2,0.1-0.5,0.3-0.4,0.6
						c0,0.1,0.2,0.2,0.2,0.3c0.1,0,0.2,0,0.3,0c0.3,0,0.7,0.1,0.9,0.3c0.6,0.5,0.9,1.2,1.1,1.8c0,0.1,0.1,0.2,0,0.3
						c-0.3,0-0.7,0-1,0.1c-0.8,0.3-1.6,0.8-2,1.6c-0.2,0.4,0.1,0.6,0.3,0.9c0.5,0.3,1.1,0.3,1.7,0.2c1-0.4,1.9-1.1,2.5-2
						C55.8,46.1,55.7,46,55.7,45.9L55.7,45.9z"/>
					<path id="Shape_14_" fill="#140F10" d="M46.2,49.8c-0.2,0.1-0.4,0.1-0.6,0c-0.7-0.2-1.1-0.9-1.3-1.5c-0.3-1,0-2.1,0.7-2.8
						c0.2-0.2,0.5,0.1,0.8-0.1c0-0.2,0.2-0.1,0.3-0.3c-0.1-0.2-0.3-0.3-0.5-0.4c-0.8-0.2-1.3,0.6-1.7,1.1c-0.7,0.9-0.7,2.5-0.1,3.4
						c0.4,0.7,1.1,1.4,2,1.3c0.2,0,0.5-0.1,0.7-0.2c0.1-0.3,0.5-0.3,0.6-0.6l-0.3-0.3C46.4,49.3,46.4,49.7,46.2,49.8"/>
					<path id="Shape_13_" fill="#140F10" d="M39.6,53.5c-1.4-1-2.7-1.9-4-3.1l0-0.1c0.4-0.3,0.7-0.7,1.1-1c0.5-0.3,0.9-0.8,1.4-0.9
						c0.2-0.2,0.5-0.3,0.5-0.6c-0.1-0.2-0.4-0.3-0.6-0.2c-0.1,0.1-0.3,0.2-0.4,0.3c-0.6,0.4-1.1,0.8-1.6,1.2
						c-0.2,0.1-0.3,0.4-0.5,0.4c-0.1-0.1-0.1-0.3-0.1-0.4c0-0.4-0.1-0.7-0.2-1.1c-0.1-0.3-0.1-0.6-0.2-0.9c0-0.3,0-0.6,0-0.9
						l-0.1-0.1c-0.2,0-0.4-0.2-0.5,0c-0.2,0-0.3,0.2-0.3,0.4c0.1,0.3,0,0.6,0.1,0.9c0.1,0.9,0.3,1.8,0.5,2.6c0,0.2-0.2,0.4-0.2,0.6
						c0,0.3,0.5,0.3,0.5,0.6c0.2,1,0.5,1.9,0.7,2.9c0.1,0.3-0.1,0.8,0.4,0.9c0.1-0.1,0.4,0,0.4-0.2c0.2-0.2,0.3-0.4,0.3-0.6
						c-0.2-0.1-0.2-0.3-0.2-0.5c-0.3-0.5-0.3-1.1-0.5-1.6l0,0c0,0,0.1,0,0.1,0c1,0.8,2,1.4,2.9,2.4c0.3,0.1,0.5-0.2,0.7-0.4
						c0.1-0.1,0.1-0.2,0.1-0.4C39.7,53.6,39.6,53.6,39.6,53.5"/>
					<path id="Shape_12_" fill="#140F10" d="M41.2,49.9c-0.4,0.4-0.8,0.9-1.3,0.7c-0.4-0.2-0.7-0.6-0.7-1c0-0.6,0.5-1,0.9-1.4
						c0.1,0,0.3,0.1,0.4,0c0.2-0.2,0.4-0.2,0.6-0.3c0.4,0,0.7,0.4,0.9,0.7C41.9,49.1,41.5,49.5,41.2,49.9L41.2,49.9L41.2,49.9z
						 M40.8,47c-0.2,0-0.3,0.1-0.5,0.1c-0.3,0.2-0.6,0.3-0.8,0.6c-0.4,0.5-1,0.9-1.2,1.5c-0.1,0.4-0.1,0.9,0.1,1.2
						c0.2,0.5,0.8,0.9,1.4,0.9c0.4,0,0.7-0.2,1.1-0.4c0.8-0.6,1.5-1.4,2-2.3c0-0.3-0.1-0.6-0.3-0.9C42.1,47.3,41.5,47.1,40.8,47
						L40.8,47z"/>
					<path id="Shape_11_" fill="#140F10" d="M33.3,55c-0.1,0.4-0.6,0.2-0.9,0.3c-0.3,0.1-0.7,0-1,0c-0.7-0.1-1.5-0.6-1.8-1.4
						c0-0.5,0.5-0.7,0.9-0.9c0.4-0.1,0.9-0.4,1.2,0l0.2,0.1c0.1,0.1,0.3,0.2,0.4,0.1c0.2,0,0.4-0.3,0.6-0.2c0.2,0.4,0.2,0.9,0.4,1.3
						C33.3,54.5,33.4,54.8,33.3,55L33.3,55L33.3,55z M33.8,52.5c0-0.1,0-0.1,0.1-0.1c0,0-0.1-0.1-0.1-0.1c-0.2-0.5-0.4-1-0.8-1.4
						c-0.6-0.7-1.4-1.3-2.3-1.5c-0.7-0.1-1.3,0-1.8,0.5c-0.2,0.4-0.6,0.8-0.3,1.2c0.4,0.3,0.5-0.4,0.8-0.5c0-0.1,0-0.2,0.1-0.2
						c0.3-0.1,0.6-0.2,0.9-0.2c0.9,0.2,1.8,1,2.2,1.9c0,0,0,0.1-0.1,0.1c-0.5-0.1-1-0.1-1.5,0c-0.7,0.1-1.3,0.5-1.9,1
						c-0.2,0.4-0.5,0.7-0.4,1.2c0.2,0.6,0.8,1.1,1.4,1.4c1.1,0.4,2.5,0.2,3.7,0.2l0.2-0.1c0.1-0.3,0.7-0.5,0.4-0.8
						C34.2,54.1,34,53.3,33.8,52.5L33.8,52.5z"/>
					<path id="Shape_10_" fill="#140F10" d="M28.1,56.6c-0.5,0.1-1,0.1-1.5,0.1C26,56.8,25.3,57,24.7,57c-0.1,0-0.2-0.1-0.2-0.2
						c0.3-0.6,0.6-1.2,1.1-1.8c0.5-0.8,1.1-1.6,1.5-2.4c0.2-0.3,0.4-0.5,0.4-0.9l0-0.1c-0.2-0.1-0.5-0.3-0.8-0.1
						c-0.3,0-0.6,0.1-1,0.2c-0.7,0.2-1.4,0.6-2.1,0.7c-0.2,0.1-0.1,0.4-0.2,0.6c0.1,0.1,0,0.2,0.1,0.3c0.1,0.1,0.2,0.1,0.3,0.1
						c0.6-0.5,1.3-0.7,2-0.9c0.2,0,0.5-0.2,0.7,0c0,0.1,0,0.1,0,0.2c-0.8,1.3-1.7,2.5-2.5,3.8c-0.2,0.2-0.3,0.4-0.4,0.6
						c-0.1,0.2,0.1,0.4,0.1,0.5c0.3,0.3,0.7,0.3,1.1,0.3c0.7-0.1,1.5-0.2,2.2-0.4c0.4,0,0.8-0.1,1.2,0.1c0.2,0.1,0.3,0,0.4-0.1
						c0.1-0.2,0.4-0.2,0.4-0.5c0.1-0.2-0.1-0.3-0.2-0.5C28.5,56.2,28.3,56.5,28.1,56.6"/>
					<path id="Shape_9_" fill="#140F10" d="M59.6,49.6c0-0.1,0.1-0.1,0.1-0.3c0-0.1-0.1-0.1-0.1-0.1c-0.3,0.1-0.5-0.3-0.7,0
						c-0.4,0.2-0.2,0.6-0.2,0.9c0,0.2,0,0.5,0.2,0.6c0.2,0.2,0.4,0.1,0.6,0.2c0.2,0,0.3-0.2,0.3-0.4C59.6,50.3,59.4,49.9,59.6,49.6"
						/>
					<path id="Shape_8_" fill="#140F10" d="M62,52.6c0.3-0.3,0.6-0.7,1-0.8c0.3-0.1,0.5-0.2,0.9-0.2c0.2,0.1,0.4,0.2,0.5,0.4
						c0,0.1,0.1,0.2,0,0.3c-0.6,0.5-1.5,0.8-2.3,0.5C62,52.8,61.9,52.7,62,52.6L62,52.6L62,52.6z M65.1,56.9c-0.2,0-0.2,0.1-0.3,0.2
						c-0.1,0-0.1,0-0.2,0c-0.3,0.3-0.9,0.3-1.3,0.3c-0.6-0.2-1.2-0.6-1.5-1.3c-0.1-0.3-0.2-0.5-0.2-0.9c0-0.4-0.1-0.8,0-1.2
						c0.1-0.1,0-0.3,0.1-0.4c0.3,0,0.7,0,1,0c0.7-0.1,1.4-0.2,2-0.6c0.4-0.3,0.9-0.6,0.8-1.2c-0.1-0.3-0.3-0.5-0.5-0.6
						c-0.8-0.5-2-0.3-2.8,0.2c-0.6,0.3-1.1,0.9-1.3,1.5c-0.3,0.6-0.4,1.4-0.4,2.2l0,0.1c0,0.7,0.2,1.3,0.7,1.8
						c0.7,0.9,1.9,1.1,3,0.9c0.1,0,0.1-0.1,0.2-0.1c0.2-0.1,0.5-0.2,0.7-0.4c0-0.1,0-0.2,0.1-0.3C65.2,57.1,65.1,57,65.1,56.9
						L65.1,56.9z"/>
					<path id="Shape_7_" fill="#140F10" d="M56.9,53.9c0-0.1,0-0.2-0.1-0.3c0-0.3-0.3-0.6-0.4-0.9c-0.2-0.2-0.5-0.3-0.7-0.2
						c-0.1,0.2-0.3,0.3-0.3,0.5c0,0.2,0.2,0.4,0.4,0.6c0.5,1,0.7,2.2,0.7,3.4c0,0.4,0,0.8-0.2,1.2c0,0-0.1,0-0.2,0
						c-0.6-0.4-1.3-0.8-1.7-1.5c-0.2-0.3-0.2-0.7-0.3-1.1c-0.1-0.3,0-0.6-0.2-0.8c-0.2,0-0.6-0.1-0.8,0.1C53.1,54.9,53,55,53,55.2
						c0.1,0.4,0.1,0.9,0.2,1.3c0,0.1,0.1,0.2,0.1,0.3c0,0.7-0.1,1.4-0.4,2.1c-0.2,0.1-0.2,0.4-0.4,0.4c-0.4-0.1-0.7-0.5-1-0.9
						c-0.5-1-1-2.1-1.1-3.3c-0.1-0.2-0.5-0.2-0.7-0.2c-0.2,0.1-0.2,0.3-0.3,0.4c0.1,0.5,0.1,1,0.3,1.5c0.3,0.8,0.6,1.7,1.1,2.4
						c0.4,0.6,1,0.9,1.7,0.9c0.2,0,0.3-0.2,0.4-0.3c0.3-0.5,0.8-0.9,0.9-1.4c0.1-0.1,0-0.3,0.1-0.3c0,0,0.1,0,0.1,0
						c0.2,0.2,0.5,0.4,0.8,0.6c0.3,0.1,0.6,0.3,1,0.4c0.5,0.1,0.8-0.4,1.1-0.7c0.3-0.7,0.3-1.4,0.3-2.2
						C57.3,55.3,57.2,54.5,56.9,53.9"/>
					<path id="Shape_6_" fill="#140F10" d="M59,53.6c0-0.3,0-0.6,0-0.8c0-0.1-0.2-0.2-0.3-0.2c-0.2-0.1-0.5,0-0.6,0.1
						c-0.1,0.1-0.2,0.4-0.2,0.5c0.1,0.4,0.1,0.9,0.2,1.4c0,0.3,0.1,0.6,0.1,0.9c0,0.6,0.2,1.1,0.2,1.7c0,0.1,0.1,0.2,0.2,0.3
						c0.1,0,0.3,0,0.4,0c0.2-0.2,0.4-0.3,0.6-0.5c0-0.1-0.1-0.3-0.1-0.4C59.2,55.6,59.1,54.6,59,53.6"/>
					<path id="Shape_5_" fill="#140F10" d="M48.4,60.7c-0.3,0.2-0.6,0.3-0.9,0.4c-0.5,0.1-0.9,0.3-1.5,0.3c-0.4,0-0.8-0.3-1-0.7
						c-0.1-0.2,0.1-0.3,0.2-0.5c0.6-0.6,1.4-0.8,2.3-0.8c0.2,0.1,0.4,0.1,0.6,0.2c0.1,0.1,0.1,0.3,0.2,0.4c0.1,0,0.2,0,0.3,0.1
						C48.6,60.4,48.5,60.6,48.4,60.7L48.4,60.7L48.4,60.7z M49,60c0-0.1,0.1-0.1,0.2-0.2c0-0.2,0.2-0.2,0.1-0.4
						c-0.2-0.2-0.2-0.5-0.4-0.6c-0.4-1.2-1.2-2.5-2.4-3.1c-0.5-0.2-1.2-0.4-1.7-0.2c-0.4,0.2-0.7,0.7-0.8,1.2
						c0.2,0.1,0.3,0.2,0.6,0.2l0.2-0.1c0.1-0.1,0.2-0.3,0.2-0.5c0.1-0.2,0.2-0.2,0.4-0.1c1.2,0.2,2,1.6,2.5,2.6l0,0.1
						c0,0-0.1,0.1-0.1,0.1c-0.6,0-1.3,0-1.8,0.2c-0.4,0.1-0.7,0.3-1,0.5c-0.3,0.3-0.8,0.6-0.9,1.1c0,0.5,0.3,0.9,0.8,1.1
						c1,0.5,2.2,0.2,3.2-0.1c0.2-0.1,0.5-0.2,0.7-0.3c0.3,0,0.6-0.3,0.7-0.5c0-0.2,0-0.3,0-0.4C49.4,60.2,49.1,60.2,49,60L49,60z"/>
					<path id="Shape_4_" fill="#140F10" d="M37.9,60.4c-0.2-0.5-0.4-1.1,0-1.5c0.2,0,0.3-0.1,0.5-0.2c0-0.2,0.3-0.2,0.3-0.3
						c-0.2-0.1-0.3-0.3-0.5-0.3c-0.2,0-0.4,0.2-0.7,0.3c-0.5,0.3-0.6,0.8-0.8,1.3c0,0.4-0.1,0.9,0.2,1.3c0.2,0.8,0.9,1.3,1.2,2.1
						c0.3,0.5,0.7,1,0.9,1.5c0.4,0.7,0.2,1.6-0.2,2.3c-0.1,0.4-0.5,0.7-0.6,1.1c0,0.1,0.1,0.1,0.2,0.1c0.9,0,1.1-1.1,1.5-1.7
						c0.4-0.9,0.4-2.2-0.2-3C39.2,62.3,38.4,61.5,37.9,60.4"/>
					<path id="Shape_3_" fill="#140F10" d="M44.7,63.6c-0.4,0.3-1,0.2-1.4,0.2c-0.4,0.1-0.7-0.1-1-0.2c-0.6-0.5-0.1-1.4,0-2
						c0.3-0.5,0.5-1.1,0.7-1.6c0-0.3,0.2-0.5,0.2-0.7c0.1-0.2,0.1-0.4,0.1-0.6c-0.1-0.2-0.2-0.5-0.5-0.5l-0.2,0
						c-0.4-0.1-0.8-0.1-1.2,0c-0.6,0.2-1.1,0.4-1.7,0.6c-0.2,0.1-0.3,0.3-0.3,0.5c0,0.2,0.2,0.2,0.3,0.3c0.2,0.1,0.3-0.1,0.5-0.2
						c0.2-0.1,0.4-0.3,0.6-0.3c0.4-0.1,0.9-0.4,1.4-0.1c0.1,0.1,0.1,0.2,0.1,0.4c-0.2,0.7-0.4,1.3-0.7,2c-0.3,0.6-0.6,1.3-0.6,2
						c0,0.1,0,0.2,0.1,0.3c0,0.3,0.3,0.4,0.5,0.6c0.2,0.1,0.4,0.2,0.6,0.2c0.7,0.1,1.5,0.1,2.3,0l0.6-0.4c0,0,0-0.1,0-0.1
						C45,63.8,44.9,63.6,44.7,63.6"/>
					<path id="Shape_2_" fill="#140F10" d="M35.7,61.1c-0.2,0-0.5,0.1-0.6,0.3c-0.2,0.5-0.5,0.9-0.7,1.4c-0.1,0.2-0.1,0.5-0.2,0.7
						c0,0.1-0.1,0-0.2-0.1c-0.1-0.3-0.3-0.7-0.3-1.1c-0.1-0.1-0.1-0.2-0.1-0.3c0-0.2-0.2-0.2-0.4-0.2c-0.3-0.1-0.5,0.2-0.6,0.4
						c-0.1,0.2,0,0.4,0.1,0.6c0.4,1.2,0.9,2.3,1.4,3.4c0.1,0.3,0.3,0.5,0.4,0.8c0.1,0.2,0.3,0.3,0.5,0.3c0.3-0.1,0.4-0.4,0.6-0.7
						c0.1-0.2-0.2-0.3-0.3-0.5c-0.7-1.2-0.7-3.1,0.2-4.2c0.2-0.2,0.5-0.3,0.5-0.7C36.1,61.2,35.9,61.1,35.7,61.1"/>
					<path id="Shape_1_" fill="#140F10" d="M32.1,67.4c0,0.5-0.3,0.8-0.7,1c-0.5,0.4-1.1,0.6-1.8,0.6c-0.4,0-0.6-0.3-0.8-0.6
						c-0.1-0.3,0.1-0.5,0.1-0.7c0.5-0.9,1.5-0.9,2.2-1.4l0.4-0.3c0.2,0,0.1,0.1,0.2,0.2C31.9,66.7,32.3,67,32.1,67.4L32.1,67.4
						L32.1,67.4z M33.1,66.9c-0.1-0.4-0.4-0.6-0.5-1c-0.4-0.8-1.1-1.7-1.9-2.2c-0.4-0.2-0.8-0.3-1.3-0.3c-0.8,0-1.4,0.4-2,0.9
						c-0.4,0.4-0.5,0.8-0.9,1.2c-0.1,0.1,0,0.3-0.1,0.5c0.1,0.2,0.2,0.4,0.4,0.4c0.6-0.2,0.5-0.9,0.8-1.3c0.5-0.5,1.1-0.9,1.9-0.8
						c0.5,0.1,0.9,0.4,1.2,0.7l0.5,0.6c0,0,0,0.1,0,0.2c-1.1,0.5-2.5,0.7-3.2,2c0,0.1,0,0.3-0.1,0.4c-0.1,0.4-0.1,0.9,0.2,1.2
						c0.3,0.2,0.6,0.4,0.9,0.5c0.6,0.1,1-0.2,1.6-0.2c0.2-0.1,0.4,0,0.5-0.2c0.7-0.3,1.3-0.9,1.9-1.5c0.3-0.1,0.1-0.5,0.2-0.6
						C33.4,67.1,33.3,67,33.1,66.9L33.1,66.9z"/>
				</g>
			</g>
		</g>
	</g>
</g>
</svg>
